<?xml version="1.0" standalone="no"?>
<!DOCTYPE svg PUBLIC "-//W3C//DTD SVG 1.1//EN" "http://www.w3.org/Graphics/SVG/1.1/DTD/svg11.dtd">
<svg xmlns="http://www.w3.org/2000/svg">
<defs >
<font id="Pacifico" horiz-adv-x="1167" ><font-face
    font-family="Pacifico"
    units-per-em="2048"
    panose-1="2 0 0 0 0 0 0 0 0 0"
    ascent="2668"
    descent="-928"
    alphabetic="0" />
<glyph unicode=" " glyph-name="space" horiz-adv-x="545" />
<glyph unicode="!" glyph-name="exclam" horiz-adv-x="1184" d="M416 512Q426 615 446 724T492 943T547 1160T606 1365T661 1549T708 1704Q721 1752 745 1781T800 1827T863 1850T928 1856Q944 1856 958 1852T982 1838T997 1809T1003 1761Q1003 1741 1001 1718T992
1664Q967 1547 927 1430T831 1177T704 881T544 512Q542 501 534 492T513 476T487 466T460 462Q441 462 428 470T414 497Q414 502 416 512ZM590 185Q588 181 587 166T580 130T564 86T535 44T485 11T410 -2Q373 -2 343 7T292 37T258 88T246 162Q246 198 256 232T289
294T346 337T429 353Q507 353 549 311T591 191Q591 187 590 185Z" />
<glyph unicode="&quot;" glyph-name="quotedbl" horiz-adv-x="1184" d="M160 1283Q160 1301 161 1329T165 1392T170 1465T176 1541Q183 1628 192 1728Q192 1758 207 1781T246 1821T300 1847T360 1856Q385 1856 408 1850T449 1830T477 1796T488 1747Q488 1735 486
1723T480 1696Q466 1648 450 1591T416 1476T382 1368T352 1280Q335 1232 304 1209T240 1185Q208 1185 184 1209T160 1283ZM544 1283Q544 1301 545 1329T549 1392T554 1465T560 1541Q567 1628 576 1728Q576 1758 591 1781T630 1821T684 1847T744 1856Q769 1856 792
1850T833 1830T861 1796T872 1747Q872 1735 870 1723T864 1696Q850 1648 834 1591T800 1476T766 1368T736 1280Q719 1232 688 1209T624 1185Q592 1185 568 1209T544 1283Z" />
<glyph unicode="#" glyph-name="numbersign" horiz-adv-x="1248" d="M483 960Q459 960 435 966T392 985T361 1018T349 1068Q349 1106 368 1129T421 1164T499 1180T591 1184H644L782 1490Q792 1514 811 1539T856 1585T916 1618T987 1631Q1008 1631 1020 1623T1037
1602T1043 1574T1044 1546Q1044 1539 1039 1524T1027 1491T1012 1455T998 1425Q975 1374 949 1314T894 1184Q958 1184 1026 1184T1163 1185Q1196 1278 1225 1357T1275 1494Q1284 1518 1300 1543T1341 1589T1398 1622T1468 1635Q1489 1635 1501 1627T1520 1606T1529
1578T1533 1550Q1533 1542 1529 1527T1520 1495T1508 1460T1497 1429Q1478 1378 1457 1317T1413 1185H1539Q1564 1185 1580 1180T1605 1166T1617 1146T1621 1123Q1621 1088 1610 1059T1570 1007T1494 973T1375 960H1339Q1317 892 1293 821T1241 673H1328Q1353 671
1369 665T1394 651T1406 631T1410 609Q1410 575 1398 546T1358 495T1282 461T1164 448H1161Q1126 353 1088 255T1007 55Q995 26 980 9T949 -17T917 -28T885 -31Q865 -31 846 -28T812 -15T788 13T779 60Q779 103 803 172L900 447Q826 446 745 446T576 445Q532 350
485 252T387 51Q372 22 356 5T322 -21T289 -32T257 -35Q240 -35 223 -33T191 -22T168 1T159 43Q159 65 167 96T193 168L317 447Q312 447 308 447T300 448Q276 448 252 454T209 473T178 506T166 556Q166 583 176 601T201 631T236 652T274 666Q287 671 318 671T378
672H416L545 960H483ZM800 960Q771 891 741 819T676 669H677Q752 669 827 669T980 670Q1005 741 1031 814T1083 960H800Z" />
<glyph unicode="$" glyph-name="dollar" horiz-adv-x="1735" d="M1106 1872Q1109 1891 1119 1911T1147 1947T1191 1973T1250 1984Q1268 1984 1280 1976T1301 1955T1313 1930T1317 1906Q1317 1898 1316 1887T1314 1864T1311 1841T1308 1820L1293 1728Q1374 1712
1447 1681T1575 1605T1664 1502T1697 1374Q1697 1336 1688 1309T1662 1263T1626 1236T1584 1227Q1561 1227 1538 1236T1497 1265T1468 1311T1457 1374Q1457 1424 1405 1464T1259 1523L1163 966Q1234 925 1301 879T1420 778T1505 656T1537 507Q1537 396 1498 308T1387
156T1215 54T992 4L962 -158Q955 -181 944 -194T920 -214T891 -223T862 -225Q852 -225 844 -225T827 -224Q811 -224 798 -216T775 -192T760 -157T754 -114Q754 -103 755 -91T758 -65Q759 -57 762 -39T770 4Q663 13 570 42T407 121T297 244T257 417Q257 453 264
493T288 574T332 651T400 716T493 761T617 778Q647 778 668 770T704 747T726 716T733 680Q733 648 712 623T647 598Q624 598 598 592T549 566T511 512T496 420Q496 325 579 273T807 210L923 853Q845 894 769 938T632 1034T534 1150T496 1294Q496 1371 533 1448T645
1589T829 1695T1084 1743L1106 1872ZM1297 507Q1297 543 1284 575T1248 635T1194 690T1124 741L1033 224Q1093 239 1141 265T1224 327T1278 408T1297 507ZM767 1324Q767 1287 782 1255T823 1192T886 1135T965 1081Q987 1203 1008 1317T1046 1531Q971 1523 919 1503T832
1455T783 1392T767 1324Z" />
<glyph unicode="%" glyph-name="percent" horiz-adv-x="2208" d="M455 672Q366 672 299 708T186 807T117 950T94 1120Q94 1193 108 1266T149 1406T218 1532T315 1634T440 1703T594 1728Q688 1728 755 1695T865 1605T929 1473T950 1312Q950 1239 934 1164T888 1017T815
883T716 773T596 699T455 672ZM473 864Q519 864 561 906T635 1014T687 1159T706 1314Q706 1359 699 1399T675 1470T632 1518T568 1536Q515 1536 474 1501T406 1410T364 1283T350 1141Q350 1086 357 1036T380 948T419 887T473 864ZM1372 1696Q1382 1714 1398 1731T1437
1761T1493 1783T1568 1792Q1594 1792 1603 1774T1613 1730Q1613 1712 1610 1692T1601 1653T1590 1618T1580 1592Q1542 1516 1490 1405T1377 1162T1250 886T1116 601T985 330T864 96Q848 66 823 48T771 19T718 4T672 0Q646 0 628 7T600 28T585 58T580 96Q580 131
590 169T615 237Q631 268 664 332T742 484T841 677T954 895T1072 1122T1186 1342T1289 1539T1372 1696ZM1669 64Q1580 64 1514 98T1402 189T1335 323T1312 482Q1312 558 1325 635T1366 783T1435 915T1531 1022T1655 1094T1808 1120Q1896 1120 1960 1084T2065 987T2126
845T2146 674Q2146 605 2131 533T2086 393T2015 266T1920 161T1804 90T1669 64ZM1687 256Q1729 256 1768 293T1836 388T1882 517T1900 656Q1900 711 1894 760T1873 846T1837 906T1782 928Q1729 928 1689 891T1622 792T1582 652T1568 494Q1568 448 1575 405T1596
329T1633 276T1687 256Z" />
<glyph unicode="&amp;" glyph-name="ampersand" horiz-adv-x="1472" d="M471 857Q452 892 432 939T394 1038T365 1142T353 1242Q353 1323 388 1397T482 1528T618 1618T782 1652Q855 1652 916 1630T1022 1567T1090 1473T1115 1355Q1115 1299 1096 1238T1034 1113T923
986T758 864Q770 840 798 795T862 693T936 576T1008 457Q1029 472 1041 488T1060 520T1067 552T1069 586Q1069 624 1060 651T1035 704T995 759T945 832Q945 833 950 838T961 849T974 859T982 864Q997 864 1025 852T1086 817T1154 763T1217 692T1263 608T1281 513Q1281
452 1248 387T1134 256Q1137 256 1155 243T1196 211T1241 175T1275 147Q1291 132 1291 106Q1291 83 1278 57T1243 8T1197 -30T1147 -45Q1124 -45 1106 -30Q1093 -19 1069 6T1020 59T978 106T960 128Q913 92 852 64Q799 40 726 20T558 0Q436 0 344 27T189 101T96
210T64 345Q64 408 89 475T166 609T293 739T471 857ZM566 202Q631 202 693 224T809 282Q766 333 733 375T669 464T603 567T525 704Q477 668 439 628T375 545T336 462T322 381Q322 343 336 311T381 254T457 216T566 202ZM794 1440Q773 1440 747 1427T699 1389T661
1333T646 1262Q646 1229 655 1183T677 1095T699 1023T711 993Q760 1038 800 1079T869 1162T912 1245T928 1332Q928 1357 922 1377T900 1411T859 1432T794 1440Z" />
<glyph unicode="&apos;" glyph-name="quotesingle" horiz-adv-x="609" d="M160 1283Q160 1301 161 1329T165 1392T170 1465T176 1541Q183 1628 192 1728Q192 1758 207 1781T246 1821T300 1847T360 1856Q385 1856 408 1850T449 1830T477 1796T488 1747Q488 1735
486 1723T480 1696Q466 1648 450 1591T416 1476T382 1368T352 1280Q335 1232 304 1209T240 1185Q208 1185 184 1209T160 1283Z" />
<glyph unicode="(" glyph-name="parenleft" horiz-adv-x="1377" d="M704 -384Q621 -384 561 -344T461 -231T403 -58T384 160Q384 276 402 405T453 667T534 929T640 1176T769 1395T915 1570T1076 1686T1248 1728Q1312 1728 1381 1706T1508 1648T1609 1566T1664
1472Q1664 1470 1664 1468T1665 1464Q1665 1447 1651 1425T1615 1384T1569 1351T1525 1338Q1511 1338 1504 1344Q1480 1362 1455 1389T1400 1441T1333 1485T1248 1504Q1187 1504 1129 1466T1016 1361T912 1204T822 1010T747 794T690 571T653 354T640 160Q640 90
646 31T668 -70T707 -136T768 -160Q794 -160 824 -156T892 -132T978 -75T1088 32Q1101 46 1115 52T1143 58Q1162 58 1179 46T1209 16T1229 -26T1237 -71Q1237 -88 1233 -103T1217 -129Q1084 -266 954 -325T704 -384Z" />
<glyph unicode=")" glyph-name="parenright" horiz-adv-x="1279" d="M766 1728Q866 1728 939 1672T1058 1518T1127 1290T1150 1014Q1150 866 1129 710T1066 406T966 126T833 -105T669 -261T478 -319Q413 -319 345 -303T218 -261T117 -200T62 -128Q62 -126 62 -124T61
-120Q61 -103 75 -81T111 -40T157 -7T201 6Q215 6 222 0Q246 -11 271 -27T326 -59T393 -84T478 -95Q538 -95 592 -42T693 100T777 306T841 551T882 812T897 1062Q897 1156 888 1236T858 1376T805 1470T729 1504Q703 1504 669 1500T591 1476T496 1419T382 1312Q369
1298 355 1292T327 1286Q307 1286 290 1298T261 1328T241 1370T233 1415Q233 1452 253 1473Q386 1610 516 1669T766 1728Z" />
<glyph unicode="*" glyph-name="asterisk" horiz-adv-x="1024" d="M689 1708Q678 1677 665 1640T638 1565T611 1492T586 1429Q618 1446 660 1470T742 1515Q788 1540 835 1566Q844 1572 853 1574T873 1576Q895 1576 917 1565T955 1536T982 1496T993 1452Q993 1427
976 1407T918 1375Q888 1369 852 1362T780 1349T708 1336T642 1326Q669 1314 702 1299T769 1268T836 1237T897 1208Q926 1191 938 1172T951 1133Q951 1112 940 1092T910 1057T868 1032T823 1022Q788 1022 765 1045Q723 1084 683 1122Q649 1154 613 1188T553 1248Q552
1213 552 1164T550 1068Q549 1014 548 957Q548 935 537 918T508 889T468 871T424 864Q406 864 390 868T360 883T339 907T331 943Q331 951 332 960T336 980Q346 1011 359 1047T386 1121T413 1193T438 1255Q406 1237 364 1214T283 1170Q238 1145 191 1120Q174 1110
153 1110Q130 1110 109 1121T70 1151T43 1191T32 1235Q32 1261 49 1281T107 1312Q137 1318 172 1324T244 1337T316 1349T381 1360Q354 1372 321 1387T255 1417T188 1448T128 1477Q74 1508 74 1551Q74 1572 85 1592T115 1628T157 1653T203 1663Q238 1663 260 1640Q302
1601 342 1563Q376 1531 412 1496T473 1437Q473 1472 474 1521T476 1618Q477 1673 478 1731Q478 1753 489 1770T517 1800T556 1818T601 1824Q637 1824 665 1805T694 1745Q694 1737 693 1728T689 1708Z" />
<glyph unicode="+" glyph-name="plus" horiz-adv-x="1503" d="M673 416H449Q417 416 393 424T352 445T328 476T320 511Q320 529 328 546T353 577T395 599T453 608H673V836Q673 864 682 886T708 923T743 947T782 955Q814 955 839 931T865 855V608H1115Q1167 608
1191 583T1215 525Q1215 505 1207 486T1184 451T1146 426T1096 416H865V193Q865 160 857 135T835 94T804 69T768 60Q750 60 733 68T703 92T681 132T673 189V416Z" />
<glyph unicode="," glyph-name="comma" horiz-adv-x="609" d="M293 -72Q296 -59 301 -39T312 6T326 56T341 109Q358 169 377 237Q383 258 396 274T428 300T469 316T514 321Q542 321 570 314T620 291T657 255T671 205Q671 185 664 166T645 125Q626 95 604 61T559
-8T515 -74T477 -129Q453 -162 424 -176T368 -191Q335 -191 311 -170T287 -109Q287 -93 293 -72Z" />
<glyph unicode="-" glyph-name="hyphen" horiz-adv-x="768" d="M608 704Q621 704 638 701T669 690T693 667T703 628Q703 608 699 588T681 551T642 523T575 512H160Q128 512 109 523T80 551T66 587T63 621Q63 634 66 648T79 675T108 696T160 704H608Z" />
<glyph unicode="." glyph-name="period" horiz-adv-x="704" d="M672 191Q672 187 671 171T665 134T648 90T615 46T562 13T484 0Q447 0 417 9T366 38T332 88T320 162Q320 198 330 232T363 294T420 337T503 353Q586 353 629 311T672 191Z" />
<glyph unicode="/" glyph-name="slash" horiz-adv-x="1248" d="M928 1696Q941 1724 964 1752T1021 1804T1095 1841T1184 1856Q1208 1856 1221 1847T1240 1823T1247 1792T1248 1760Q1248 1752 1243 1735T1229 1697T1211 1657T1196 1622Q1143 1506 1076 1342T925
976T739 544T514 64Q494 31 473 12T429 -17T384 -30T341 -33Q320 -33 299 -31T261 -21T233 5T222 55Q222 81 231 116T261 197Q275 228 304 295T374 452T463 652T562 877T666 1111T767 1337T856 1537T928 1696Z" />
<glyph unicode="0" glyph-name="zero" horiz-adv-x="863" d="M345 0Q268 0 211 33T115 123T58 254T39 412Q39 485 52 561T92 709T156 844T245 955T356 1030T490 1058Q573 1058 633 1027T733 941T790 816T809 664Q809 590 795 512T752 360T684 221T592 106T478
29T345 0ZM361 182Q388 182 414 206T463 272T505 366T539 475T561 588T569 691Q569 730 564 764T549 823T524 862T486 877Q456 877 430 853T381 788T341 696T311 589T292 479T285 378Q285 336 289 301T303 239T327 197T361 182Z" />
<glyph unicode="1" glyph-name="one" horiz-adv-x="672" d="M320 850Q305 834 288 818T254 788T223 766T202 757Q108 757 58 773T8 807Q8 818 29 825T94 832Q105 832 127 848T179 890T247 944T323 998T402 1039T480 1056Q534 1056 552 1049T570 1027Q570 1012
566 990T562 938Q562 938 557 902T542 808T522 677T499 528T478 381T461 256Q458 244 454 220T441 168T422 110T394 56T357 16T308 0Q275 0 246 4T196 16T163 38T151 71Q151 79 152 87T160 107Q176 165 191 227T221 353T249 477T273 594Q299 723 320 850Z" />
<glyph unicode="2" glyph-name="two" horiz-adv-x="927" d="M753 1Q724 1 695 9T636 32T577 65T518 105Q460 61 395 34T257 1Q205 1 160 19T82 68T29 139T10 221Q10 254 21 288T55 351T115 398T204 416Q283 416 343 393T455 338Q485 374 511 415T558 501T589 589T601
677Q601 750 587 796T551 869T501 904T448 914Q416 914 388 903T337 873T301 826T288 766Q288 748 316 729T408 690Q410 684 410 680Q410 668 387 655T330 630T254 611T177 603Q169 611 162 612T148 613Q106 647 87 686T68 768Q68 824 99 879T185 979T313 1050T470
1077Q492 1077 528 1073T607 1054T693 1016T772 951T830 853T853 716Q853 672 839 613T797 487T729 351T637 221Q671 204 707 194T788 183Q799 183 812 198T838 233T860 267T876 283Q890 283 898 272T907 233Q907 196 891 126Q886 106 877 84T852 44T812 13T753
1ZM244 191Q286 191 345 233Q321 248 300 257T261 266Q216 266 198 258T179 238Q179 229 184 221T199 206T220 195T244 191Z" />
<glyph unicode="3" glyph-name="three" horiz-adv-x="831" d="M239 249Q239 215 246 191T265 152T294 130T329 123Q355 123 382 135T430 170T466 222T480 288Q480 345 466 383T424 446T352 484T250 503Q218 505 204 516T190 545Q190 559 193 575T204 606T225 630T256
640Q296 640 328 655T382 692T416 742T428 796Q428 830 407 854T339 878Q303 878 279 861T254 821Q254 809 262 796T291 772Q302 766 302 759Q302 751 288 744T254 731T218 722T195 718Q183 718 172 723T150 742T134 777T128 832Q128 884 151 922T212 985T300 1022T401
1034Q457 1034 511 1021T608 982T677 919T704 832Q704 804 698 771T673 704T620 642T530 592Q591 576 634 545T705 471T746 379T759 277Q759 224 732 172T657 78T542 10T396 -16Q303 -16 237 4T128 61T66 149T46 263Q46 301 57 326T88 367T132 389T184 396Q207
396 236 391T290 376T332 356T349 335Q349 327 332 322T294 309T256 287T239 249Z" />
<glyph unicode="4" glyph-name="four" horiz-adv-x="927" d="M770 -38Q727 -38 683 -41T597 -45Q565 -45 541 -41T500 -23T475 12T466 71Q466 111 476 163T501 273Q439 273 387 261T289 233T202 205T120 192Q102 192 94 205T86 237Q86 263 102 298T144 372Q165
427 182 474T214 566T240 656T263 751T287 860T313 992Q319 1008 337 1019T382 1037T438 1048T499 1052Q524 1052 546 1050T585 1043T612 1033T622 1019Q611 942 591 866T543 713T482 557T411 394Q449 392 475 392T522 391H535Q555 456 575 517T612 633Q618 659
634 677T672 707T715 724T756 730Q803 730 819 715T836 674Q836 658 830 631T812 570T787 496T759 414Q809 422 849 429T917 437Q930 437 935 426T941 397Q941 354 934 328T916 288T896 269T881 264Q843 264 802 265T715 269Q707 237 701 207T693 149V130Q693 112
707 89T739 44T770 2T785 -28Q785 -33 783 -35T770 -38Z" />
<glyph unicode="5" glyph-name="five" horiz-adv-x="831" d="M478 777Q436 781 408 786T358 796T321 804T287 807Q281 807 274 807T259 805Q263 781 267 754Q271 731 275 701T287 639Q347 645 399 645Q495 645 562 628T673 582T743 516T780 441T796 365T799 297Q799
240 769 184T686 84T558 12T396 -16Q303 -16 237 4T128 61T66 149T46 263Q46 301 57 326T88 367T132 389T184 396Q207 396 236 391T290 376T332 356T349 335Q349 327 332 322T294 309T256 287T239 249Q239 215 246 191T265 152T294 130T329 123Q362 123 396 137T457
175T502 234T520 308Q520 357 506 390T464 445T392 477T290 493Q261 498 241 500T208 509T186 528T173 566T166 633T163 736Q161 766 160 791T158 840Q158 917 169 955T194 1009T224 1024H249Q278 1024 307 1019T367 1007T428 995T492 989Q502 989 511 989T531
992Q576 1002 595 1009T621 1020T629 1027T642 1030Q679 1030 695 995T712 901V896Q712 891 707 882T688 860T648 833T581 804T478 777Z" />
<glyph unicode="6" glyph-name="six" horiz-adv-x="928" d="M625 432Q625 497 603 531T547 566Q522 566 505 554T476 523T455 482T437 442T418 411T394 398Q389 398 383 421T376 480Q376 535 398 579T457 653T539 700T633 717Q679 717 722 701T799 652T853 566T874
442Q874 362 843 283T754 141T613 39T425 0Q352 0 282 21T157 91T69 215T35 400Q35 524 82 642T212 863T405 1052T642 1197Q662 1206 679 1211T715 1217Q759 1217 784 1195T809 1140Q809 1117 796 1093T750 1047Q661 994 577 919T427 753T321 563T281 361Q281 322
288 287T313 225T359 183T429 167Q472 167 508 191T570 254T610 340T625 432Z" />
<glyph unicode="7" glyph-name="seven" horiz-adv-x="608" d="M271 -56Q263 -56 243 -53T202 -38T164 -6T147 49Q147 53 147 56T148 65Q164 157 200 250T288 439T405 632T544 832Q496 844 466 855T415 874T375 887T332 892Q300 892 279 891T244 884T218 866T192
832Q161 784 140 762T102 739Q86 739 80 753T73 792Q73 802 74 813T77 837Q92 924 120 978T182 1061T254 1101T324 1112Q361 1112 397 1101T470 1075T547 1050T628 1037Q648 1036 664 1036T695 1036Q735 1036 758 1037T794 1041T812 1044T821 1046Q856 1046 871
1022T887 955Q887 928 881 897Q880 891 865 879T831 852T791 825T760 804Q694 714 649 626T570 443T505 247T440 26Q432 -2 412 -18T368 -43T317 -53T271 -56Z" />
<glyph unicode="8" glyph-name="eight" horiz-adv-x="801" d="M148 827Q148 900 183 955T275 1046T401 1101T541 1119Q599 1119 652 1107T745 1071T809 1011T833 927Q833 840 808 776T742 664T647 581T534 516Q578 483 619 448T692 372T743 286T762 186Q762 116
734 59T655 -40T535 -105T384 -128Q326 -128 264 -116T151 -72T66 16T32 162Q32 238 55 296T117 401T204 484T304 552Q223 604 186 677T148 827ZM499 996Q470 996 444 987T398 959T367 916T355 858Q355 832 360 803T377 745T403 689T440 639Q474 660 505 692T562
761T602 833T617 898Q617 923 607 941T581 972T543 990T499 996ZM506 237Q506 288 482 326T422 399Q383 381 350 360T292 313T254 255T240 181Q240 149 249 125T274 85T307 60T342 51Q372 51 401 62T454 97T492 155T506 237Z" />
<glyph unicode="9" glyph-name="nine" horiz-adv-x="927" d="M464 511Q483 532 491 532Q499 532 500 527T501 511Q501 479 487 444T447 378T386 329T308 309Q242 309 194 338T114 412T68 515T53 630Q53 682 66 736T104 841T166 937T252 1015T361 1068T492 1088Q553
1088 619 1065T741 993T831 866T867 680Q867 519 821 389T694 157T506 -22T276 -153Q256 -162 238 -168T203 -174Q158 -174 133 -155T108 -107Q108 -84 122 -60T168 -14Q268 37 350 99T492 242T583 423T615 648Q615 697 609 742T586 821T544 876T477 897Q436 897
402 872T344 807T306 718T292 622Q292 586 301 558T325 511T359 481T398 471Q415 471 432 481T464 511Z" />
<glyph unicode=":" glyph-name="colon" horiz-adv-x="704" d="M732 863Q732 859 731 843T725 806T708 762T675 718T622 685T544 672Q507 672 477 681T426 710T392 760T380 834Q380 870 390 904T423 966T480 1009T563 1025Q646 1025 689 983T732 863ZM672 191Q672
187 671 171T665 134T648 90T615 46T562 13T484 0Q447 0 417 9T366 38T332 88T320 162Q320 198 330 232T363 294T420 337T503 353Q586 353 629 311T672 191Z" />
<glyph unicode=";" glyph-name="semicolon" horiz-adv-x="768" d="M293 -72Q296 -59 301 -39T312 6T326 56T341 109Q358 169 377 237Q383 258 396 274T428 300T469 316T514 321Q542 321 570 314T620 291T657 255T671 205Q671 185 664 166T645 125Q626 95 604 61T559
-8T515 -74T477 -129Q453 -162 424 -176T368 -191Q335 -191 311 -170T287 -109Q287 -93 293 -72ZM732 863Q732 859 731 843T725 806T708 762T675 718T622 685T544 672Q507 672 477 681T426 710T392 760T380 834Q380 870 390 904T423 966T480 1009T563 1025Q646
1025 689 983T732 863Z" />
<glyph unicode="&lt;" glyph-name="less" horiz-adv-x="1184" d="M493 275Q363 319 279 357T145 435T77 520T58 626Q58 684 83 718T151 776T246 818T356 863Q358 864 394 880T488 920T615 974T754 1032T883 1083T980 1118Q1002 1125 1024 1125Q1051 1125 1069
1114T1100 1084T1119 1046T1129 1007T1133 976T1134 962Q1134 923 1113 903T1056 872L254 613L909 373Q925 367 947 352T990 316T1024 266T1039 205Q1039 170 1012 148T936 126Q893 126 841 142T731 181T613 229T493 275Z" />
<glyph unicode="=" glyph-name="equal" horiz-adv-x="1707" d="M483 382Q459 382 435 388T392 407T361 440T349 490Q349 528 368 551T421 586T499 602T591 606Q634 606 701 606T851 606T1025 606T1208 607T1384 607T1539 607Q1564 607 1580 602T1605 588T1617
568T1621 545Q1621 510 1610 481T1570 429T1494 395T1375 382H483Z" />
<glyph unicode="&gt;" glyph-name="greater" horiz-adv-x="1184" d="M709 255Q650 235 590 210T472 161T362 122T266 106Q218 106 191 128T163 185Q163 218 172 246T196 295T225 332T253 353L938 613L216 832Q180 843 159 863T138 922Q138 923 138 935T142 966T152
1005T171 1044T202 1073T248 1085Q270 1085 292 1078Q325 1068 377 1049T490 1006T610 957T720 912T802 878T836 863Q892 837 945 819T1041 777T1108 719T1134 626Q1134 563 1116 515T1049 424T919 342T709 255Z" />
<glyph unicode="?" glyph-name="question" horiz-adv-x="1292" d="M711 584Q696 536 669 511T608 486Q573 486 547 501T520 550Q520 640 549 706T623 825T718 922T814 1013T887 1115T917 1245Q917 1287 902 1316T862 1363T807 1390T747 1399Q724 1399 699 1385T652
1352T614 1313T594 1280Q577 1259 556 1250T511 1240Q492 1240 474 1250T441 1277T418 1318T409 1370Q409 1392 424 1416Q454 1461 495 1496T583 1554T682 1590T783 1602Q844 1602 911 1583T1033 1522T1125 1416T1161 1264Q1161 1158 1136 1083T1071 952T980 854T880
771T785 686T711 584ZM746 191Q746 187 745 171T739 134T722 90T689 46T636 13T558 0Q521 0 491 9T440 38T406 88T394 162Q394 198 404 232T437 294T494 337T577 353Q660 353 703 311T746 191Z" />
<glyph unicode="@" glyph-name="at" horiz-adv-x="2241" d="M1486 1029Q1463 1035 1438 1038T1389 1042Q1325 1042 1264 1009T1148 923T1047 800T968 657T916 512T897 383Q897 308 928 268T1027 227Q1072 227 1112 245T1187 294T1250 363T1300 440T1336 515T1355
578L1486 1029ZM112 215Q112 329 136 448T205 683T316 911T464 1120T645 1300T855 1442T1089 1535T1344 1568Q1441 1568 1537 1551T1722 1499T1886 1408T2018 1275T2106 1097T2138 870Q2138 844 2137 817T2132 762Q2123 694 2096 615T2025 457T1923 305T1795 177T1644
88T1475 54Q1453 54 1431 61T1390 89T1361 144T1350 235Q1350 259 1353 286T1363 345Q1325 268 1278 210T1176 112T1065 52T950 32Q884 32 825 54T720 119T647 227T620 378Q620 465 647 563T725 757T847 940T1008 1095T1201 1201T1421 1241Q1444 1241 1458 1238T1479
1229T1488 1217T1490 1207Q1490 1203 1490 1201T1489 1196V1192Q1512 1182 1537 1180T1587 1176T1632 1169T1670 1148T1696 1101T1706 1018Q1706 978 1698 928T1676 822T1645 711T1612 601T1583 500T1562 417Q1548 372 1548 340Q1548 317 1555 303T1580 289Q1617
289 1654 311T1725 373T1789 464T1841 577T1875 703T1888 832Q1888 982 1846 1086T1729 1254T1556 1347T1344 1376Q1203 1376 1078 1324T848 1185T660 984T519 746T431 497T400 261Q400 172 431 101T532 -22T715 -100T992 -128Q1231 -128 1414 -92T1733 7Q1756
17 1775 17Q1792 17 1804 9T1824 -12T1835 -41T1839 -75Q1839 -101 1831 -124T1809 -156Q1713 -213 1598 -256T1361 -327T1120 -370T896 -384Q701 -384 554 -339T309 -215T162 -25T112 215Z" />
<glyph unicode="A" glyph-name="A" horiz-adv-x="1632" d="M1872 224Q1851 202 1819 174T1746 118T1658 62T1562 14T1464 -19T1368 -32Q1336 -32 1304 -21T1245 19T1201 101T1184 236Q1184 271 1189 311T1202 399Q1146 286 1076 200T926 55T761 -34T591 -64Q498
-64 415 -32T267 65T166 226T128 450Q128 547 150 653T216 867T320 1081T459 1282T629 1459T827 1600T1048 1694T1289 1728Q1323 1728 1343 1723T1374 1709T1388 1691T1391 1675Q1391 1670 1391 1666T1390 1660V1655Q1417 1639 1445 1636T1500 1630T1551 1619T1593
1588T1621 1519T1632 1397Q1632 1337 1621 1262T1590 1105T1548 939T1501 776T1455 627T1418 505Q1415 461 1413 423T1411 344Q1411 312 1412 292T1418 259T1429 243T1447 238Q1467 238 1497 248T1562 275T1634 312T1706 353T1771 391T1821 419L1872 224ZM1399
1517Q1364 1527 1327 1531T1254 1536Q1173 1536 1094 1505T941 1421T799 1295T673 1139T567 965T486 786T434 612T416 456Q416 315 472 238T648 160Q722 160 788 191T912 272T1016 386T1099 515T1158 640T1191 745L1399 1517Z" />
<glyph unicode="B" glyph-name="B" horiz-adv-x="1292" d="M60 1330Q-5 1212 -56 1153T-139 1094Q-183 1094 -183 1195Q-183 1293 -155 1371T-77 1509T43 1612T195 1682T370 1723T559 1736Q672 1736 786 1720T1005 1673T1201 1601T1359 1507T1465 1395T1504 1270Q1504
1193 1471 1118T1366 983T1183 883T915 841Q1014 841 1088 810T1212 725T1287 601T1312 454Q1312 391 1295 326T1244 201T1159 89T1040 -3T885 -64T696 -87Q631 -87 559 -79T414 -56T269 -21T135 22Q107 29 86 43T64 93Q64 259 72 433T107 773T182 1089T312 1359Q383
1408 441 1408Q514 1408 563 1326Q517 1264 485 1188T430 1029T395 858T373 688Q368 641 365 588T358 480T354 371T352 266Q352 258 352 244T355 215T361 188T373 169Q434 149 504 135T644 121Q729 121 809 141T951 206T1050 320T1088 489Q1088 547 1066 585T1009
650T928 691T835 719T742 744T661 774T603 820T581 892Q581 913 583 928T595 954T623 969T674 974Q717 974 752 971T829 967Q925 967 1002 990T1134 1054T1218 1147T1248 1262Q1248 1302 1225 1335T1161 1395T1063 1442T941 1475T802 1495T654 1502Q559 1502 467
1492T295 1460T154 1406T60 1330Z" />
<glyph unicode="C" glyph-name="C" horiz-adv-x="1440" d="M1766 338Q1717 317 1671 283T1578 207T1481 121T1372 31T1244 -54T1092 -125T908 -174T685 -192Q550 -192 442 -138T256 9T138 224T96 482Q96 574 116 679T173 894T265 1113T387 1322T538 1507T713 1656T909
1756T1123 1792Q1195 1792 1269 1767T1402 1688T1498 1554T1536 1363Q1536 1289 1513 1214T1448 1069T1352 938T1232 833T1099 762T961 736Q870 736 825 760T780 831Q780 839 780 850T779 873Q779 891 781 910T789 946T806 972T838 982Q850 982 859 979T879 971T905
964T945 960Q1009 960 1074 988T1192 1067T1278 1188T1312 1344Q1312 1389 1300 1429T1261 1500T1192 1549T1088 1568Q1016 1568 948 1537T816 1451T697 1323T592 1165T506 989T440 806T399 630T384 472Q384 369 409 293T482 165T597 89T750 64Q856 64 947 90T1122
160T1282 257T1437 365T1595 469T1766 553V338Z" />
<glyph unicode="D" glyph-name="D" horiz-adv-x="1272" d="M549 1736Q712 1736 839 1709T1061 1634T1223 1520T1330 1375T1389 1208T1408 1028Q1408 902 1380 773T1299 522T1169 295T991 110T771 -14T512 -60Q465 -60 416 -53T321 -34T234 -7T162 24Q149 28 142
33T130 46T125 65T124 93Q124 259 132 433T167 773T242 1089T372 1359Q443 1408 501 1408Q574 1408 623 1326Q577 1264 546 1188T494 1029T459 858T433 688Q419 596 410 531T395 416T387 330T384 258Q384 221 386 196T398 156T427 135T480 128Q580 128 670 167T836
273T972 428T1075 614T1141 813T1164 1009Q1164 1125 1126 1216T1020 1371T855 1468T644 1502Q560 1502 478 1492T325 1461T201 1408T120 1330Q47 1217 0 1156T-79 1094Q-123 1094 -123 1195Q-123 1293 -98 1371T-27 1509T81 1612T218 1682T377 1723T549 1736Z"
/>
<glyph unicode="E" glyph-name="E" horiz-adv-x="1248" d="M1477 250Q1396 164 1295 100T1083 -8T858 -74T637 -96Q519 -96 415 -69T233 15T110 158T64 364Q64 465 100 558T213 723T409 839T696 887Q586 887 504 918T368 1003T287 1128T260 1280Q260 1355 286
1417T357 1528T465 1615T599 1676T751 1713T912 1726Q1029 1726 1141 1701T1340 1624T1480 1497T1533 1318Q1533 1282 1509 1247T1450 1185T1379 1141T1316 1124Q1295 1124 1295 1161Q1295 1194 1305 1246T1341 1376Q1314 1398 1262 1420T1145 1460T1005 1489T859
1501Q792 1501 731 1489T624 1450T550 1377T522 1266Q522 1212 541 1175T593 1112T668 1070T755 1040T843 1015T923 988T985 950T1018 895Q1020 874 1022 853T1024 811Q1024 755 1003 730T921 704Q895 704 857 707T783 710Q703 710 626 690T488 629T390 529T352
390Q352 315 373 265T432 185T521 141T631 128Q702 128 780 142T935 180T1086 238T1223 310T1334 391T1408 477L1477 250Z" />
<glyph unicode="F" glyph-name="F" horiz-adv-x="1376" d="M654 1212Q654 1210 653 1198T642 1172T610 1147T544 1136Q486 1136 454 1142T406 1160T387 1186T383 1216Q383 1365 458 1471T668 1646T993 1746T1412 1778Q1564 1778 1730 1768T2074 1733Q2125 1719
2144 1693T2164 1638Q2164 1619 2159 1598T2142 1559T2113 1530T2069 1518Q2065 1518 2061 1518T2051 1520Q1986 1531 1910 1539T1751 1553T1580 1561T1400 1564Q1373 1564 1336 1561T1263 1554Q1223 1550 1180 1544Q1180 1533 1178 1519T1172 1480T1163 1416T1149
1316T1131 1167T1109 960H1664Q1688 960 1701 951T1720 927T1727 896T1728 864Q1728 816 1707 792T1664 768Q1657 768 1618 767T1523 763T1400 759T1271 754T1157 751T1079 749Q1061 628 1038 516T981 307T899 129T787 -8T637 -96T442 -128Q419 -128 387 -125T320
-115T251 -97T189 -68T145 -29T128 23Q128 38 134 62T154 110T188 150T238 167Q271 167 307 156T383 132T463 107T546 96Q579 96 610 122T668 195T721 304T768 439T809 591T844 749H721Q704 749 679 753T631 766T592 792T576 832Q576 849 585 864T615 886Q671 898
713 907T787 922T845 934T891 942Q915 1049 929 1128T953 1271T972 1393T993 1514Q906 1489 842 1454T736 1379T674 1296T654 1212Z" />
<glyph unicode="G" glyph-name="G" horiz-adv-x="1536" d="M1536 341Q1536 225 1523 100T1479 -145T1400 -372T1278 -560T1110 -688T889 -736Q866 -736 834 -733T767 -723T698 -705T636 -676T592 -637T575 -585Q575 -570 581 -546T601 -498T635 -458T685 -441Q718
-441 749 -452T813 -476T882 -501T960 -512Q1007 -512 1052 -464T1138 -339T1212 -167T1269 25Q1221 -19 1168 -58T1046 -127T889 -174T685 -192Q550 -192 442 -138T256 9T138 224T96 482Q96 659 138 820T256 1120T433 1371T653 1563T900 1686T1160 1730Q1240 1730
1308 1706T1427 1631T1506 1502T1535 1316Q1535 1274 1525 1233T1492 1149Q1460 1102 1430 1083T1373 1063Q1352 1063 1334 1074T1303 1103T1283 1143T1275 1190Q1275 1209 1281 1227T1293 1263T1306 1300T1312 1341Q1312 1441 1268 1491T1158 1541Q1077 1541 988
1508T812 1411T649 1255T512 1043T419 781T384 472Q384 369 409 293T482 165T597 89T750 64Q908 64 1041 106T1291 226Q1299 256 1305 283T1311 334Q1311 364 1303 381T1282 407T1250 418T1210 420Q1172 420 1144 430T1095 456T1065 493T1055 535Q1055 556 1064
575T1094 610T1144 634T1216 644Q1313 644 1375 624T1473 565T1522 470T1536 341Z" />
<glyph unicode="H" glyph-name="H" horiz-adv-x="2111" d="M1798 750Q1763 627 1742 521T1721 336Q1721 268 1749 230T1844 191Q1869 191 1904 205T1984 251T2084 331T2208 448Q2211 442 2220 420Q2228 401 2242 363T2283 257Q2208 178 2133 118T1986 18T1849
-43T1728 -64Q1665 -64 1611 -41T1518 28T1455 138T1432 288Q1432 317 1438 361T1455 461T1483 583T1520 724Q1386 710 1263 698T1018 675Q990 591 963 511T910 360T863 231T826 131Q777 25 731 -19T647 -63Q623 -63 600 -55T559 -32T531 4T520 51Q520 67 524 82Q566
235 615 377T716 655Q661 655 611 663T517 693T441 751T385 845Q381 863 379 877T376 905Q376 949 407 949Q426 949 449 929T508 863Q555 865 602 866T703 867H799Q835 960 867 1046T928 1216Q945 1269 955 1322T965 1423Q965 1462 958 1495T935 1551T894 1587T832
1600Q802 1600 763 1590T675 1558T571 1499T448 1408Q425 1389 406 1381T370 1373Q362 1373 358 1399T354 1465Q354 1517 378 1564T444 1650T538 1722T648 1777T761 1812T864 1824Q934 1824 998 1805T1110 1744T1187 1635T1216 1472Q1216 1427 1206 1362T1177 1220T1135
1055T1082 876Q1185 883 1314 890T1573 904Q1624 1071 1685 1249T1816 1600Q1839 1657 1876 1691T1965 1725Q1986 1725 2005 1719T2040 1701T2063 1669T2072 1623Q2072 1600 2069 1570T2053 1504Q2030 1442 2004 1372T1952 1227T1899 1074T1848 919Q1911 923 1958
926T2029 932Q2040 933 2049 933T2067 934Q2097 934 2115 928T2144 911T2159 885T2163 851Q2163 830 2154 816T2132 794T2103 782T2075 777Q2047 774 2035 773T2018 771T2012 770T2004 769T1983 767T1937 763Q1901 759 1867 756T1798 750Z" />
<glyph unicode="I" glyph-name="I" horiz-adv-x="863" d="M309 1404Q305 1402 305 1402Q302 1402 300 1437T297 1533Q297 1545 308 1564T345 1606T413 1650T520 1690T672 1719T875 1730Q974 1730 1029 1721T1113 1696T1147 1660T1154 1618Q1154 1596 1149 1575T1123
1538T1060 1511T945 1501Q912 1501 879 1504Q851 1395 830 1309T792 1151T761 1014T733 885T702 749T666 592T618 400T554 157Q560 157 581 155T631 148T690 135T748 115T791 87T808 50Q808 8 736 -32Q715 -32 669 -32T559 -32T423 -32T277 -32T136 -33T15 -32T-68
-30T-100 -27Q-100 -24 -91 -18T-69 0T-46 29T-32 71Q-30 88 2 103T79 131T174 152T264 163Q295 294 326 425T388 681T448 924T506 1145T560 1334T609 1484Q572 1480 544 1476T494 1467T453 1456T412 1443T367 1426T309 1404Z" />
<glyph unicode="J" glyph-name="J" horiz-adv-x="1952" d="M576 -256Q576 -121 627 19T774 285T1003 509T1302 659Q1217 728 1143 804T1014 959T928 1119T896 1280Q896 1382 918 1474T980 1644T1074 1786T1190 1894T1319 1963T1455 1987Q1545 1987 1628 1941T1777
1795T1881 1536T1920 1152Q1920 989 1909 843T1875 562Q1936 524 1998 488T2125 416Q2138 408 2157 397T2195 374T2227 349T2240 326Q2240 316 2232 307T2212 289T2189 274T2171 265Q2154 256 2127 256Q2071 257 1996 278T1831 337Q1787 152 1726 -1T1591 -277T1437
-489T1272 -640T1106 -730T947 -760Q868 -760 801 -728T683 -633T605 -475T576 -256ZM832 -320Q832 -422 871 -474T976 -527Q1042 -527 1125 -469T1293 -290T1453 19T1583 464L1546 487Q1444 467 1352 418T1180 300T1036 151T927 -14T857 -176T832 -320ZM1152 1344Q1152
1264 1187 1185T1285 1029T1435 875T1627 725Q1644 864 1654 1017T1664 1344Q1664 1462 1649 1543T1609 1676T1549 1749T1476 1772Q1439 1772 1401 1754T1327 1705T1259 1631T1204 1542T1166 1444T1152 1344Z" />
<glyph unicode="K" glyph-name="K" horiz-adv-x="1920" d="M1227 1497Q1217 1410 1210 1321T1196 1158Q1189 1072 1184 992Q1288 992 1375 998T1534 1023T1659 1079T1750 1176T1805 1325T1824 1536Q1824 1586 1824 1615T1835 1661T1872 1684T1952 1696Q1991 1696
2015 1686T2053 1660T2071 1630T2077 1604Q2079 1581 2079 1544T2080 1474Q2080 1361 2066 1268T2018 1099T1929 968T1791 875T1599 819T1344 800Q1404 644 1453 525T1550 324T1648 202T1760 160Q1798 160 1844 170T1937 200T2032 247T2119 306L2235 110Q2235 111
2216 99T2163 67T2083 25T1980 -18T1862 -51T1734 -64Q1662 -64 1607 -42T1508 20T1430 111T1367 224T1312 348T1257 476T1195 597T1120 704Q1067 500 996 355T838 116T649 -20T434 -64Q395 -64 342 -59T241 -42T158 -11T124 36Q124 63 137 85T163 131Q167 138
176 149T197 170T223 188T251 196Q257 196 260 195Q295 179 330 170T399 160Q489 160 562 215T693 365T795 588T873 864T929 1170T969 1485L981 1568Q893 1568 822 1547T695 1490T599 1407T532 1307T493 1201T480 1097Q480 1092 477 1080T461 1056T424 1034T356
1024Q300 1024 268 1034T219 1057T197 1086T192 1111V1120Q192 1122 193 1123Q209 1258 263 1355T397 1520T571 1628T763 1691T948 1720T1105 1728Q1144 1728 1168 1719T1207 1696T1226 1665T1231 1632Q1231 1591 1231 1559T1227 1497Z" />
<glyph unicode="L" glyph-name="L" horiz-adv-x="992" d="M-156 327Q-143 336 -112 356T-39 405T51 466T147 534L155 602Q177 812 226 987T341 1304T486 1552T646 1729T807 1836T956 1872Q1006 1872 1048 1853T1120 1796T1167 1701T1184 1568Q1184 1475 1156 1373T1077
1167T953 960T794 760T605 579T394 426Q392 365 391 330T389 276T388 250T388 239Q388 230 391 223T405 211T434 204T482 201Q527 201 603 223L938 319Q946 321 954 322T969 323Q994 323 1012 314T1042 288T1060 251T1066 208Q1066 188 1060 169T1042 134T1012
105T970 89Q872 50 770 19Q726 6 678 -6T579 -28T477 -44T377 -50Q303 -50 256 -25T181 44T142 145T131 266Q45 203 -15 166T-92 129Q-109 129 -124 140T-153 171T-173 213T-181 260Q-181 279 -177 297T-156 327ZM412 678Q463 731 518 793T628 924T733 1064T824
1207T892 1345T928 1472Q931 1492 932 1510T933 1545Q933 1602 918 1628T875 1654Q843 1654 800 1621T710 1525T615 1375T526 1179T455 944T412 678Z" />
<glyph unicode="M" glyph-name="M" horiz-adv-x="2175" d="M440 98Q436 68 421 49T385 19T340 4T294 -1Q268 -1 244 4T200 21T170 49T159 87Q159 128 163 162T175 232Q203 349 224 449T260 640T286 814T305 984T321 1161T336 1356Q336 1365 336 1379T333 1405T323
1427T300 1436Q276 1436 242 1420T169 1375T93 1310T23 1229Q17 1214 4 1208T-25 1201Q-30 1201 -35 1209T-45 1230T-53 1255T-56 1280Q-56 1286 -52 1290Q-16 1408 29 1487T125 1614T228 1682T329 1702Q391 1702 432 1679T497 1613T530 1510T540 1377Q540 1321
531 1246T509 1089T479 923T448 768Q480 901 523 1023T618 1252T728 1445T847 1594T972 1690T1097 1724Q1143 1724 1182 1704T1249 1642T1292 1536T1308 1384Q1308 1376 1307 1359T1303 1320T1297 1273T1290 1222Q1282 1162 1273 1092L1294 1093Q1333 1241 1390
1359T1518 1559T1671 1686T1841 1730Q1902 1730 1949 1694T2029 1597T2078 1453T2095 1278Q2095 1192 2084 1102T2055 923T2019 749T1982 588T1954 448T1942 336Q1942 277 1963 251T2026 224Q2049 224 2074 236T2125 269T2176 316T2224 371Q2277 435 2329 518Q2329
517 2338 497Q2345 480 2361 439T2406 321Q2356 233 2303 172T2195 73T2084 17T1971 0Q1917 0 1866 19T1774 75T1710 168T1686 296Q1686 304 1686 313T1688 331Q1692 398 1705 473T1734 629T1769 792T1802 957T1827 1120T1837 1275Q1837 1320 1834 1356T1822 1418T1796
1458T1751 1472Q1698 1472 1651 1435T1562 1333T1484 1179T1415 987T1354 770T1302 541T1257 314T1218 102Q1210 74 1194 55T1156 23T1110 6T1062 0Q1041 0 1021 8T985 33T960 78T950 144Q950 170 962 233T992 385T1032 579T1072 794T1103 1011T1115 1208Q1115
1270 1112 1319T1098 1402T1067 1454T1012 1472Q984 1472 948 1434T871 1329T785 1172T698 976T614 757T539 528T479 304T440 98Z" />
<glyph unicode="N" glyph-name="N" horiz-adv-x="1623" d="M458 761Q527 965 594 1116T725 1375T850 1551T968 1659T1079 1713T1183 1728Q1241 1728 1282 1700T1349 1628T1388 1531T1400 1427Q1400 1367 1391 1294T1367 1138T1336 969T1305 795T1282 625T1272
467Q1272 443 1273 414T1280 354T1294 294T1320 242T1361 205T1420 191Q1468 191 1521 215T1626 275T1724 354T1806 433T1862 494T1883 520L1943 303Q1911 260 1870 218T1782 137T1683 67T1575 10T1465 -27T1355 -41Q1285 -41 1232 -17T1141 48T1076 143T1035 259T1013
383T1006 505Q1006 583 1018 658T1049 805T1089 947T1129 1081T1159 1208T1172 1327Q1172 1342 1170 1367T1162 1415T1141 1455T1103 1472Q1063 1472 1021 1435T934 1331T844 1175T755 980T667 760T583 528T504 298T433 85Q405 31 369 9T287 -14Q261 -14 237 -3T193
29T163 82T152 154Q152 196 156 230T168 299Q193 413 214 510T254 695T286 865T313 1031T334 1203T350 1391Q350 1400 350 1414T347 1440T337 1462T314 1471Q294 1471 266 1452T207 1400T145 1321T87 1224Q81 1209 68 1203T39 1196Q26 1196 12 1204T-14 1225T-34
1250T-42 1275Q-42 1281 -38 1285Q-5 1398 37 1476T127 1603T224 1674T320 1696Q391 1696 439 1675T518 1615T561 1522T574 1402Q574 1336 563 1260T533 1103T490 936T441 767L458 761Z" />
<glyph unicode="O" glyph-name="O" horiz-adv-x="1632" d="M742 -192Q593 -192 474 -131T270 39T141 300T96 633Q96 729 110 830T152 1031T223 1228T322 1411T449 1569T603 1694T785 1776T995 1806Q1145 1806 1263 1752T1463 1601T1588 1370T1632 1073Q1632 939
1606 794T1528 508T1401 240T1226 17T1006 -135T742 -192ZM766 52Q846 52 915 83T1041 168T1146 294T1231 450T1295 622T1341 798T1367 965T1376 1112Q1376 1208 1355 1292T1292 1439T1185 1538T1034 1574Q942 1574 856 1530T694 1410T555 1235T447 1025T377 801T352
583Q352 470 380 373T462 204T592 93T766 52Z" />
<glyph unicode="P" glyph-name="P" horiz-adv-x="1441" d="M958 1823Q1126 1823 1252 1778T1463 1657T1589 1483T1632 1280Q1632 1182 1594 1086T1480 909T1287 769T1013 686Q1010 613 1008 552Q1007 526 1006 500T1005 453T1004 415T1003 393Q1001 323 987 248T945
100T878 -36T786 -149T668 -226T526 -255Q444 -255 380 -213T267 -98T185 68T130 264T100 471T90 667Q90 825 119 972T202 1247T333 1482T506 1664T716 1781T958 1823ZM358 693Q358 652 358 583T364 434T380 274T412 128T466 21T548 -21Q599 -21 635 14T695 106T733
234T754 378T763 515T765 627V674Q682 707 635 732T563 780T533 828T526 888Q526 906 527 923T532 954T545 976T569 985Q579 985 587 981T609 970Q642 952 669 941T715 922Q737 914 755 910Q755 923 755 961T761 1049T780 1153T818 1252T883 1326T982 1356Q1000
1356 1019 1353T1053 1340T1079 1314T1090 1273Q1090 1266 1090 1264T1089 1257L1028 1000L1019 921Q1117 936 1188 969T1305 1047T1374 1146T1397 1257Q1397 1313 1376 1371T1301 1478T1159 1557T935 1588Q834 1588 752 1550T606 1445T495 1291T418 1104T373 899T358
693Z" />
<glyph unicode="Q" glyph-name="Q" horiz-adv-x="1512" d="M1632 1064Q1632 947 1612 817T1550 557T1444 308T1293 93T1096 -67T850 -148Q897 -195 933 -239T1005 -317T1078 -373T1165 -394Q1213 -394 1258 -369T1341 -314Q1384 -279 1423 -233Q1434 -225 1444
-224T1460 -223Q1486 -228 1504 -243T1532 -279T1547 -323T1552 -367Q1552 -393 1547 -403T1536 -419Q1535 -420 1518 -437T1471 -481T1398 -537T1304 -593T1194 -636T1072 -653Q996 -653 943 -624T853 -550T791 -449T746 -340T708 -243T666 -175Q514 -148 406
-74T229 107T128 348T96 628Q96 764 121 908T197 1188T323 1446T499 1658T723 1803T996 1856Q1145 1856 1263 1799T1463 1639T1588 1389T1632 1064ZM766 64Q842 64 907 95T1028 181T1127 308T1207 465T1268 638T1311 815T1336 984T1344 1132Q1344 1246 1324 1343T1263
1512T1160 1624T1014 1664Q929 1664 849 1617T699 1490T571 1305T472 1083T407 845T384 613Q384 495 410 395T485 221T605 106T766 64Z" />
<glyph unicode="R" glyph-name="R" horiz-adv-x="1700" d="M1824 1263Q1824 1215 1808 1162T1759 1058T1675 958T1551 872T1387 809T1180 776Q1250 750 1297 709T1375 618T1425 511T1457 401T1480 298T1505 211T1542 151T1601 128Q1635 128 1675 139T1758 172T1842
222T1920 286L2036 90Q2036 91 2017 78T1964 44T1884 -1T1781 -47T1663 -82T1535 -96Q1462 -96 1411 -60T1323 35T1263 169T1221 324T1188 478T1153 613T1108 708T1043 744H980Q960 525 930 352T851 57T727 -128T544 -192Q464 -192 398 -162T278 -78T184 46T118
198T78 367T64 540Q64 695 102 843T213 1124T389 1366T620 1557T900 1683T1221 1728Q1296 1728 1370 1714T1511 1673T1635 1606T1734 1515T1800 1400T1824 1263ZM1203 1504Q1038 1504 909 1458T681 1334T514 1153T402 937T340 708T320 487Q320 406 334 325T378
178T455 73T570 32Q604 32 630 58T676 129T711 232T736 354T752 481T761 601T766 700T767 767Q689 804 649 836T608 910Q608 920 609 934T616 960T630 980T656 989Q663 989 684 987T728 981T770 975T796 972L797 993Q798 1009 800 1037T809 1097T826 1161T857 1220T902
1263T967 1280Q1017 1280 1033 1258T1050 1200V1191Q1049 1153 1039 1091T1019 946Q1182 949 1288 978T1456 1053T1543 1151T1568 1255Q1568 1304 1545 1349T1475 1428T1361 1483T1203 1504Z" />
<glyph unicode="S" glyph-name="S" horiz-adv-x="1695" d="M733 1312Q733 1246 771 1194T873 1098T1017 1013T1182 931T1347 840T1491 730T1593 592T1632 416Q1632 326 1603 251T1524 115T1404 9T1255 -67T1087 -112T910 -128Q785 -128 667 -98T457 -6T310 148T254
365Q254 429 274 477T325 558T392 607T459 624Q491 624 512 607T534 552Q534 535 530 516T522 475T513 425T509 366Q509 296 541 245T626 161T748 112T891 96Q978 96 1065 117T1221 179T1333 279T1376 416Q1376 487 1338 543T1236 646T1091 736T926 821T761 911T617
1016T515 1143T476 1304Q476 1388 516 1469T638 1615T842 1720T1128 1760Q1232 1760 1331 1729T1509 1641T1634 1505T1682 1330Q1682 1273 1663 1213T1600 1088Q1558 1025 1509 995T1419 964Q1389 964 1370 981T1351 1034Q1351 1060 1363 1095T1404 1177Q1431 1221
1444 1259T1457 1331Q1457 1382 1430 1420T1354 1485T1237 1524T1088 1537Q998 1537 932 1517T821 1464T755 1391T733 1312Z" />
<glyph unicode="T" glyph-name="T" horiz-adv-x="1536" d="M199 1330Q199 1414 233 1476T330 1583T480 1655T673 1700T898 1722T1146 1728Q1320 1728 1510 1714T1908 1663Q1956 1653 1975 1627T1995 1569Q1995 1549 1986 1530T1962 1495T1927 1470T1885 1460Q1808
1460 1725 1468T1551 1486T1364 1506T1166 1521Q1148 1409 1120 1280T1059 1017T989 749T918 494T855 269T806 92Q798 58 782 30T745 -20T702 -52T661 -64Q604 -64 567 -37T530 50Q530 69 536 92Q549 183 570 271T621 454T687 657T769 892T866 1176T980 1521Q927
1517 873 1512T767 1499T671 1477T593 1444T540 1396T520 1330Q520 1328 518 1308T500 1265T453 1222T360 1202Q300 1202 267 1222T219 1266Q201 1294 199 1330Z" />
<glyph unicode="U" glyph-name="U" horiz-adv-x="1382" d="M1248 1568Q1251 1619 1267 1650T1307 1698T1362 1722T1423 1728Q1450 1728 1471 1722T1506 1701T1528 1659T1536 1593Q1536 1316 1503 1078T1410 646T1266 301T1081 48T862 -107T620 -160Q470 -160 369
-100T208 64T122 302T96 588Q96 707 111 829T151 1066T205 1285T266 1472Q285 1530 304 1562T343 1609T381 1628T420 1632Q458 1632 487 1629T537 1615T567 1587T577 1537V1529Q575 1517 574 1503T568 1472Q556 1435 536 1373T491 1230T442 1056T397 866T365 672T352
488Q352 398 367 321T417 186T510 97T651 64Q716 64 774 99T884 199T981 354T1065 552T1133 782T1187 1035T1225 1301T1248 1568Z" />
<glyph unicode="V" glyph-name="V" horiz-adv-x="1056" d="M91 480Q91 482 88 515T81 603T72 729T61 879T50 1039T40 1195T34 1332T31 1436Q31 1497 46 1530T84 1578T130 1596T172 1599Q209 1599 232 1589T269 1560T288 1512T293 1449L337 260L988 1510Q995 1534
1012 1556T1053 1594T1106 1620T1166 1630Q1202 1630 1222 1599T1243 1516Q1243 1480 1224 1420T1174 1285T1100 1124T1013 949T921 773T832 608Q820 585 814 560T808 510Q808 472 823 436T869 372T949 328T1065 311Q1081 311 1100 318T1141 336T1184 363T1227
393Q1275 429 1326 475L1303 268Q1220 202 1138 163T983 123Q915 123 863 141T773 194T717 276T698 383Q698 413 704 448Q645 310 594 218T494 70T401 -9T312 -33Q252 -33 214 -13T154 42T121 127T106 233T99 353T91 480Z" />
<glyph unicode="W" glyph-name="W" horiz-adv-x="2399" d="M864 1542Q864 1508 848 1442T806 1288T752 1099T698 892T657 686T640 497Q640 426 649 365T679 258T729 186T800 160Q841 160 879 184T954 250T1023 350T1086 475T1144 617T1195 768Q1279 1036 1344
1377Q1356 1432 1372 1469T1412 1528T1465 1559T1536 1568Q1574 1568 1598 1561T1637 1542T1658 1513T1664 1475Q1664 1468 1656 1417T1636 1285T1609 1102T1582 893T1561 680T1553 487Q1553 397 1559 325T1581 201T1622 123T1684 96Q1748 96 1800 146T1896 279T1974
473T2035 703T2081 945T2114 1175T2134 1370T2145 1506Q2148 1557 2163 1588T2203 1636T2257 1658T2320 1664Q2345 1664 2365 1659T2401 1640T2424 1604T2432 1546Q2432 1449 2420 1337T2389 1111T2349 891T2309 698T2278 553T2265 478Q2265 439 2276 412T2305
366T2349 340T2404 332Q2433 332 2463 345T2522 383T2573 440T2613 515L2630 308Q2556 223 2478 174T2330 125Q2297 125 2268 135T2217 168T2179 225T2158 308Q2108 215 2051 141T1929 14T1794 -67T1648 -96Q1553 -96 1487 -46T1379 90T1318 292T1299 539Q1299
587 1304 629T1312 704Q1276 476 1222 323T1094 76T926 -56T716 -96Q650 -96 590 -53T485 77T412 292T384 595Q384 701 396 812T430 1036T486 1258T561 1472Q586 1530 611 1562T662 1610T714 1629T768 1632Q790 1632 808 1629T838 1617T857 1590T864 1542Z" />
<glyph unicode="X" glyph-name="X" horiz-adv-x="1696" d="M947 934Q939 989 928 1050T901 1171T863 1285T810 1381T740 1447T650 1472Q644 1472 624 1454T577 1405T521 1332T468 1244Q452 1214 438 1214Q428 1214 419 1227T403 1262T391 1309T382 1359T376 1404T374
1436Q374 1510 394 1565T450 1656T534 1710T640 1728Q690 1728 741 1720T844 1690T945 1625T1038 1515T1119 1349T1185 1116Q1234 1190 1289 1262T1400 1401T1513 1523T1619 1621T1714 1686T1791 1710Q1822 1710 1848 1688T1892 1629T1921 1545T1931 1450Q1931
1354 1878 1306T1741 1257Q1731 1257 1727 1268T1722 1297T1721 1334T1721 1372T1716 1400T1703 1412Q1683 1412 1655 1392T1591 1335T1516 1250T1432 1144T1346 1025T1260 901Q1292 781 1313 679T1351 495T1384 350T1422 245T1475 181T1555 159Q1616 159 1691
219T1855 416Q1870 431 1889 431Q1906 431 1923 420T1953 392T1975 353T1984 310Q1984 279 1962 257Q1896 178 1829 118T1697 18T1574 -43T1467 -64Q1411 -64 1366 -53T1284 -12T1216 70T1155 204T1096 401T1034 671Q926 509 832 368Q792 308 751 247T674 132T608
36T562 -31Q538 -64 494 -84T400 -105Q331 -105 297 -77T263 -5Q263 48 310 109Q331 136 370 184T458 294T564 424T677 562T783 692T873 801T934 876T956 903L947 934Z" />
<glyph unicode="Y" glyph-name="Y" horiz-adv-x="1472" d="M1126 506Q1044 394 978 311T858 167T758 68T670 6T588 -26T504 -35Q464 -35 423 -17T348 25T291 72T263 108Q257 116 252 131T247 162Q247 177 254 188T278 200Q284 200 293 197Q324 177 354 168T410
159Q485 159 545 185T653 254T739 349T807 457T860 560T904 645Q869 733 832 820T755 986T674 1134T589 1252T500 1331T410 1360Q386 1360 372 1354T349 1338T338 1315T335 1289Q335 1274 337 1259T339 1233Q339 1216 331 1212T311 1208Q291 1208 275 1232T248
1296T231 1387T225 1494Q225 1511 234 1529T262 1562T311 1586T383 1596Q497 1596 591 1539T767 1382T918 1149T1054 864Q1113 971 1167 1074T1268 1268T1350 1430T1411 1548Q1424 1572 1458 1587T1533 1602Q1554 1602 1574 1596T1609 1577T1635 1543T1645 1491Q1645
1449 1619 1388Q1596 1335 1555 1251T1457 1063T1331 842T1186 605L1126 506Z" />
<glyph unicode="Z" glyph-name="Z" horiz-adv-x="1025" d="M635 1313Q582 1319 541 1330T468 1353T411 1373T363 1382Q345 1382 328 1374T294 1347T257 1295T216 1213Q188 1152 159 1130T109 1107Q90 1107 82 1123T74 1168Q74 1179 75 1192T79 1219Q96 1348 129
1429T204 1555T290 1617T373 1633Q417 1633 460 1620T547 1591T638 1562T735 1547Q772 1546 804 1546T866 1546Q957 1546 1010 1548T1092 1552T1131 1556T1145 1558Q1187 1558 1205 1530T1224 1454Q1224 1439 1222 1423T1217 1388Q1215 1383 1203 1370T1161 1340Q1045
1227 948 1114T771 894T629 694T522 527T449 405T408 342L403 319Q404 319 419 311T460 292T517 266T582 241T646 221T701 213Q782 213 846 230T962 271T1057 323T1137 372Q1159 388 1181 388Q1203 388 1223 376T1260 345T1285 303T1295 257Q1295 223 1277 202Q1241
172 1181 132T1045 56T885 -5T713 -30Q699 -30 666 -22T578 5T446 56T268 135Q217 90 167 71T74 51Q20 51 -13 79T-47 156Q-47 194 -22 244T64 352L798 1312Q775 1312 751 1311T700 1310Q668 1310 635 1313Z" />
<glyph unicode="[" glyph-name="bracketleft" horiz-adv-x="927" d="M392 1415Q398 1438 405 1465T425 1521T457 1575T505 1622T575 1654T672 1667H990Q1015 1667 1033 1657T1064 1630T1082 1596T1088 1561Q1088 1539 1076 1518T1044 1480T1002 1453T958 1443H672Q672
1441 666 1400T650 1291T627 1131T598 939T566 730T535 522T506 332T482 175T465 70T459 32H745Q761 32 776 26T803 8T821 -19T828 -51Q828 -66 817 -90T784 -136T734 -175T671 -192H353Q299 -192 265 -181T211 -150T184 -105T176 -53Q176 -24 181 5T192 60Q210
151 228 257T263 476T297 701T328 919Q361 1164 392 1415Z" />
<glyph unicode="\" glyph-name="backslash" horiz-adv-x="1248" d="M416 1760Q446 1694 489 1599T583 1391T689 1155T800 909T906 672T1001 462T1075 298T1120 197Q1140 151 1149 116T1159 55Q1159 6 1128 -16T1053 -39Q1028 -39 1002 -32T950 -12T904 20T867
64Q744 313 642 544T456 976T305 1341T185 1622Q169 1657 162 1687T155 1743Q155 1773 164 1795T188 1833T224 1856T267 1864Q309 1864 350 1838T416 1760Z" />
<glyph unicode="]" glyph-name="bracketright" horiz-adv-x="927" d="M696 60Q690 37 683 10T663 -46T631 -100T583 -147T513 -179T416 -192H108Q81 -192 61 -181T28 -152T7 -116T0 -80Q0 -59 11 -39T39 -3T78 22T119 32H416Q416 34 422 75T438 184T461 344T490
536T522 745T553 953T582 1143T606 1300T623 1405T629 1443H369Q350 1443 332 1451T298 1474T274 1506T264 1544Q264 1559 272 1580T297 1621T336 1653T389 1667H735Q789 1667 823 1656T877 1625T904 1580T912 1528Q912 1499 907 1469T896 1415Q878 1324 860 1218T824
999T791 773T760 556Q727 311 696 60Z" />
<glyph unicode="^" glyph-name="asciicircum" horiz-adv-x="1089" d="M1013 680Q1023 649 1023 622Q1023 595 1014 574T992 538T962 516T933 508Q903 508 878 523T834 560T801 604T784 642L578 1124L318 603Q290 552 257 532T194 511Q173 511 155 519T123 543T101
578T93 621Q93 634 96 650T107 681Q108 683 119 704T147 758T186 832T231 917T276 1002T315 1077T343 1131T356 1156Q401 1255 457 1299T567 1344Q595 1344 623 1339T679 1316T734 1269T785 1189Q842 1079 900 951T1013 680Z" />
<glyph unicode="_" glyph-name="underscore" horiz-adv-x="1248" d="M128 0Q104 0 80 6T37 25T6 58T-6 108Q-6 146 13 169T66 204T144 220T236 224Q279 224 346 224T496 224T670 224T853 225T1029 225T1184 225Q1209 225 1225 220T1250 206T1262 186T1266 163Q1266
128 1255 99T1215 47T1139 13T1020 0H128Z" />
<glyph unicode="`" glyph-name="grave" horiz-adv-x="609" d="M496 1203Q501 1190 503 1178T506 1155Q506 1125 489 1107T448 1088Q431 1088 414 1096T380 1125Q367 1140 347 1165T302 1220T250 1285T196 1353T145 1419T101 1477Q64 1529 64 1574Q64 1604 77 1629T110
1672T157 1700T209 1710Q238 1710 264 1695T304 1646Q350 1542 389 1452Q405 1414 422 1375T453 1303T479 1243T496 1203Z" />
<glyph unicode="a" glyph-name="a" horiz-adv-x="928" d="M1174 245Q1151 213 1113 170T1026 88T923 22T813 -5Q747 -5 703 37T627 161Q603 133 568 104T492 52T405 13T315 -2Q267 -2 222 17T141 73T85 162T64 281Q64 356 85 435T143 589T230 732T341 849T467
928T603 958Q626 958 639 949T660 929T677 906T697 890Q709 885 721 884T747 882Q758 882 769 882T792 883Q807 883 820 880T843 867T858 839T864 790Q864 742 854 684T832 564T810 441T800 324Q800 277 808 251T845 224Q866 224 889 234T935 262T982 300T1027
345Q1076 399 1126 467L1174 245ZM320 324Q320 299 323 276T336 234T360 204T398 192Q435 192 465 224T517 301T552 394T570 474L631 768Q590 768 551 748T478 692T414 612T364 518T332 418T320 324Z" />
<glyph unicode="b" glyph-name="b" horiz-adv-x="950" d="M452 805Q508 875 554 917T647 960Q706 960 752 934T830 865T879 766T896 649Q896 598 892 553T878 464T849 377T800 288Q836 309 873 329T947 373T1023 426T1101 496L1178 331Q1123 281 1069 244T957
180T837 132T704 96Q687 79 658 62T599 31Q566 15 528 0H503Q418 0 335 23T183 76Q104 109 32 152Q35 233 44 335Q52 423 66 542T104 809Q120 907 144 1027T200 1271T273 1511T363 1719T471 1865T598 1920Q674 1920 720 1894T791 1824T824 1719T832 1591Q832 1496
797 1395T704 1194T577 997T436 816L452 805ZM542 732Q507 732 472 718T407 673T354 595T320 480Q311 426 305 381T295 300Q291 260 288 225Q321 215 354 208Q383 202 415 197T476 192Q510 192 538 212T588 265T626 342T652 431T667 523T672 607Q672 632 667 654T647
694T607 721T542 732ZM640 1648Q640 1652 639 1665T632 1692T616 1717T589 1728Q569 1728 548 1700T505 1623T464 1511T425 1378T390 1236T360 1100T336 982T320 895Q347 947 380 1003T448 1119T514 1243T573 1373T617 1508T640 1648Z" />
<glyph unicode="c" glyph-name="c" horiz-adv-x="736" d="M437 0Q345 0 276 34T159 125T88 257T64 413Q64 471 76 534T111 657T169 773T249 869T351 935T474 960Q531 960 579 943T662 894T716 821T736 729Q736 695 727 662T701 603T658 560T602 544Q555 544 541
569T526 638Q526 656 527 676T529 712Q529 736 524 752T502 768Q461 768 432 749T383 698T350 627T331 548T322 474T320 414Q320 378 326 339T351 268T400 214T480 192Q528 192 586 221T702 296T814 395T905 497L974 381Q899 274 812 190Q775 154 732 120T641 60T542
17T437 0Z" />
<glyph unicode="d" glyph-name="d" horiz-adv-x="1072" d="M568 756Q502 724 451 672T365 558T312 435T294 323Q294 303 298 283T315 247T349 221T406 211Q424 211 441 220T475 243T505 276T532 315Q560 361 583 419Q580 433 578 463T575 531T573 609T572 682T570
736T568 756ZM1256 196Q1185 141 1116 98Q1087 80 1055 63T992 32T932 10T877 1Q863 1 836 7T776 31T711 85T654 178Q617 142 576 110T490 53T400 15T308 0Q243 0 196 28T117 102T70 208T54 330Q54 394 70 459T118 586T195 702T297 799T421 870T564 905Q567 1033
587 1158T640 1396T717 1605T815 1771T928 1880T1052 1920Q1099 1920 1132 1896T1185 1831T1215 1737T1224 1626Q1224 1591 1221 1554Q1208 1413 1173 1288T1091 1043T989 807T882 564Q877 550 872 530T863 487T855 439T852 391Q852 362 855 336T867 290T888 257T922
245Q941 245 963 252T1011 273T1061 302T1111 336Q1166 376 1226 427L1256 196ZM1038 1481Q1044 1551 1044 1592Q1044 1646 1035 1667T1007 1688Q975 1688 949 1648T903 1544T868 1405T843 1258T827 1130T819 1049Q815 1000 813 955T809 872T808 806T808 763V753Q865
883 913 1012Q933 1067 953 1127T991 1249T1020 1369T1038 1481Z" />
<glyph unicode="e" glyph-name="e" horiz-adv-x="787" d="M466 0Q372 0 302 34T184 125T114 258T90 417Q90 473 101 535T134 658T191 772T270 868T372 934T498 959Q554 959 602 941T685 891T741 812T761 709Q761 647 731 585T646 468T518 370T356 303Q371 276
385 258T415 230T446 216T482 212Q542 212 608 236T738 296T857 374T952 455L1081 321Q993 230 894 160Q851 130 802 101T698 50T585 14T466 0ZM333 470Q369 470 411 488T490 536T552 599T577 665Q577 710 561 739T520 768Q477 768 447 752T396 711T363 653T344
587T335 523T333 470Z" />
<glyph unicode="f" glyph-name="f" horiz-adv-x="723" d="M68 -38Q68 -33 70 23T80 172T99 386T130 643T176 921T239 1199T323 1453T428 1662T559 1804T717 1856Q751 1856 788 1844T857 1805T908 1734T929 1624Q929 1565 911 1489T859 1325T780 1144T680 957T567
773T445 603L443 587Q463 597 473 600T494 603Q507 603 515 601T529 595T543 590T560 587Q659 587 735 610T863 663Q924 696 969 740L947 497Q881 461 809 441T676 411Q605 400 535 397Q571 331 600 260Q625 199 645 124T666 -29Q666 -38 664 -67T655 -138T638
-231T610 -334T567 -434T509 -520T432 -581T333 -604Q278 -604 237 -579T167 -512T119 -413T88 -293T73 -165T68 -38ZM335 442Q331 442 326 420T317 362T308 282T301 196T296 117T294 59Q294 -88 299 -175T313 -307T332 -365T354 -379Q388 -379 408 -348T439 -270T453
-166T457 -57Q457 -22 452 29T437 135T415 246T389 344T361 415T335 442ZM578 1533Q520 1389 487 1280T437 1085T413 936T399 816Q460 931 522 1042T634 1249T715 1418T747 1529Q747 1582 732 1606T691 1631Q645 1631 621 1607T578 1533Z" />
<glyph unicode="g" glyph-name="g" horiz-adv-x="928" d="M541 105Q487 57 429 28T315 -2Q267 -2 222 17T141 73T85 162T64 281Q64 356 85 435T143 589T230 732T341 849T467 928T603 958Q626 958 639 949T660 929T677 906T697 890Q709 885 721 884T747 882Q758
882 769 882T792 883Q807 883 820 880T843 867T858 839T864 790Q864 764 860 720T849 622T834 508T816 389Q795 251 768 94Q798 111 833 136T911 203T1007 308T1126 467L1174 245Q1156 214 1128 182T1065 117T993 54T919 -4Q834 -68 736 -128Q717 -235 691 -336T630
-526T549 -689T446 -816T317 -898T160 -928Q126 -928 87 -921T14 -893T-42 -833T-64 -729Q-64 -684 -41 -628T22 -509T117 -379T236 -244T371 -112T514 12L541 105ZM320 324Q320 299 323 276T336 234T360 204T398 192Q435 192 465 224T517 301T552 394T570 474L631
768Q590 768 551 748T478 692T414 612T364 518T332 418T320 324ZM172 -736Q214 -736 251 -712T320 -647T378 -556T424 -452T458 -347T480 -256Q441 -282 401 -318T322 -395T249 -481T188 -565T147 -641T132 -699Q132 -736 172 -736Z" />
<glyph unicode="h" glyph-name="h" horiz-adv-x="1025" d="M473 622Q514 676 565 738T671 853T780 942T883 978Q895 978 910 974T938 957T961 924T970 868Q970 800 951 736T910 607T869 475T850 335Q850 295 862 271T893 247Q917 247 944 257T998 283T1051 319T1100
362Q1155 413 1208 478L1225 212Q1207 198 1180 177T1119 133T1046 85T968 43T889 12T813 0Q758 0 718 29T651 104T612 204T599 306Q599 338 607 377T628 457T656 535T685 603T709 652T722 674L701 677Q684 666 644 621T552 508T447 354T348 177Q326 132 312 99T285
44T255 11T214 0Q181 0 162 19T133 69T120 141T117 223Q117 290 118 398T128 639T151 917T193 1205T262 1477T363 1705T503 1862T687 1920Q741 1920 775 1904T830 1859T859 1790T867 1699Q867 1625 846 1535T791 1348T712 1152T622 959T532 782T453 636L473 622ZM562
1240Q621 1393 647 1498T674 1653Q674 1729 654 1729Q628 1729 577 1644T457 1397Q440 1342 426 1283T400 1166T379 1051T362 943Q345 824 336 710Q363 773 395 847T458 993T516 1130T562 1240Z" />
<glyph unicode="i" glyph-name="i" horiz-adv-x="537" d="M736 213Q700 180 647 143T531 74T405 21T282 0Q230 0 195 14T137 55T106 118T96 201Q96 264 110 347T146 520T190 699T232 863Q239 889 260 907T307 937T362 954T414 960Q456 960 471 945T486 903Q486
881 476 840T451 746T419 633T387 512T362 394T352 290Q352 245 362 219T403 192Q439 192 483 217T572 277T660 351T736 416V213ZM289 1241Q289 1264 299 1293T331 1347T391 1390T485 1408Q520 1408 551 1400T605 1376T641 1332T655 1268Q655 1234 644 1202T609
1145T549 1105T461 1089Q373 1089 331 1130T289 1241Z" />
<glyph unicode="j" glyph-name="j" horiz-adv-x="672" d="M0 0Q0 16 4 56T16 154T35 282T59 425T87 571T118 707T150 820T183 896Q197 919 216 932T257 951T304 958T353 960Q388 960 403 939T419 895Q419 883 414 857T400 801T384 744T372 704L316 544Q372 553
424 556T538 569T678 601T864 672V480Q798 444 732 425T611 396Q548 385 488 384Q513 319 532 249Q549 189 562 116T576 -32Q576 -45 574 -92T562 -204T532 -339T476 -470T387 -569T256 -608Q186 -608 137 -567T58 -448T14 -257T0 0ZM286 447Q260 292 242 134T224
-192Q224 -247 231 -283T248 -342T269 -374T288 -384Q321 -384 340 -348T369 -259T381 -145T384 -32Q384 -3 380 33T369 109T353 188T335 266Q313 354 286 447ZM222 1241Q222 1264 232 1293T264 1347T324 1390T418 1408Q453 1408 484 1400T538 1376T574 1332T588
1268Q588 1234 577 1202T542 1145T482 1105T394 1089Q306 1089 264 1130T222 1241Z" />
<glyph unicode="k" glyph-name="k" horiz-adv-x="991" d="M449 559Q485 605 528 660T612 765T688 854T743 907Q774 929 819 944T919 960Q947 960 972 947T1017 910T1047 852T1058 776Q1058 735 1038 694T988 610T923 526T858 442T808 357T788 273Q788 237 805
222T860 206Q880 206 903 219T952 255T1002 304T1051 359T1096 412T1134 456L1194 211Q1163 166 1116 128T1013 61T898 16T783 0Q711 0 666 17T594 64T559 129T549 205Q549 228 554 261T575 337T619 429T692 538Q710 556 725 570T751 596T768 618T774 639Q774 660
767 673T745 686Q728 686 701 664T642 587L348 71Q325 31 301 16T244 0Q201 0 176 18T138 68T122 141T118 230Q118 287 122 381T134 587T155 823T188 1062Q195 1103 206 1161T233 1287T272 1426T324 1567T391 1698T474 1806T575 1880T695 1907Q746 1907 779 1891T831
1845T859 1774T867 1685Q867 1600 846 1502T791 1306T719 1114T644 946T581 820T544 752L425 574L449 559ZM645 1682Q613 1682 590 1662T547 1605T506 1515T459 1397Q443 1340 430 1279T405 1158T386 1038T371 927Q356 804 347 685Q369 751 395 828T446 981T494
1124T532 1239Q539 1261 552 1294T580 1365T610 1444T637 1523T658 1594T666 1650Q666 1682 645 1682Z" />
<glyph unicode="l" glyph-name="l" horiz-adv-x="575" d="M351 0Q297 0 251 47T170 175T116 360T96 582Q96 671 109 775T147 991T206 1214T284 1429T379 1621T486 1777T603 1882T727 1920Q770 1920 798 1901T842 1849T864 1777T871 1694Q871 1600 850 1503T792
1307T707 1109T607 913T503 721T404 536Q399 526 394 510T383 476T373 436T365 395V381Q365 355 370 331T384 287T401 256T418 244Q437 244 461 252T513 273T570 304T626 340Q689 382 758 437L840 227Q751 163 664 113Q626 92 586 72T504 35T424 10T351 0ZM352
800Q397 880 447 980T543 1186T621 1397T663 1594Q663 1623 662 1643T652 1664Q623 1664 590 1627T523 1525T459 1376T404 1195T366 998T352 800Z" />
<glyph unicode="m" glyph-name="m" horiz-adv-x="1312" d="M544 187Q544 200 546 224T552 279T561 344T571 413Q582 493 598 585H583Q571 570 556 540T512 452T441 302T328 70Q308 29 282 15T223 0Q182 0 157 17T119 64T101 131T96 209Q96 250 101 306T114 424T132
550T154 674T178 782T200 862Q210 894 219 913T239 942T267 956T308 960Q346 960 367 958T399 946T412 918T414 869Q414 852 413 830T408 783T402 732T394 680Q385 621 375 558L386 546Q388 549 407 584T455 668T517 770T580 865Q609 906 641 933T719 960Q761 960
791 936T821 866Q821 827 816 792T804 724T788 660T773 595Q768 572 767 566T766 558L777 546Q779 549 800 583T851 667T916 770T981 865Q1010 905 1039 932T1110 960Q1157 960 1189 936T1222 866Q1222 797 1215 735T1199 613T1183 492T1176 361Q1176 307 1190
273T1224 239Q1245 239 1268 248T1315 271T1362 303T1406 342Q1455 388 1503 446L1520 210Q1476 175 1433 138T1341 70T1234 20T1103 0Q1067 0 1043 23T1003 89T982 188T975 312Q975 375 979 445T992 588H977L774 71Q748 29 716 15T642 0Q610 0 591 17T562 62T548
123T544 187Z" />
<glyph unicode="n" glyph-name="n" horiz-adv-x="927" d="M128 209Q128 275 136 361T156 537T183 710T212 852Q223 898 254 929T340 960Q394 960 415 927T436 839Q436 824 433 799T426 743T416 680T407 620T399 572T396 544H416Q422 555 435 579T465 636T501 703T538
771T569 829T590 866Q622 920 663 940T754 960Q804 960 833 918T863 802Q863 791 859 765T847 703T832 624T816 536T805 447T800 366Q800 304 815 264T864 224Q879 224 898 233T940 256T986 290T1033 329Q1086 376 1144 435L1161 211L1111 173Q1070 142 1028 111T939
56T843 16T738 0Q683 0 646 79T608 312Q608 372 616 441T636 591H620L358 71Q338 30 313 15T255 0Q214 0 189 17T151 64T133 131T128 209Z" />
<glyph unicode="o" glyph-name="o" horiz-adv-x="873" d="M742 749Q771 691 785 627T800 503Q800 444 787 384T750 268T690 163T609 78T509 21T394 0Q306 0 244 38T141 139T83 279T64 437Q64 547 97 642T191 808T342 919T542 960Q637 960 720 931T875 852T1010
738T1127 606L1108 465Q1081 501 1035 543T938 625T836 700T750 760L742 749ZM433 192Q467 192 499 226T555 313T593 429T608 551Q608 597 601 636T580 705T544 751T491 768Q450 768 413 733T348 644T304 523T288 396Q288 354 296 317T321 253T366 209T433 192Z"
/>
<glyph unicode="p" glyph-name="p" horiz-adv-x="854" d="M536 178Q637 178 720 198T870 252T992 331T1091 429L1102 200Q1070 161 1025 125T925 61T812 17T694 0Q687 0 677 2T640 9T566 22T434 43V25Q434 -157 404 -305T322 -559T205 -721T68 -778Q11 -778 -27
-750T-87 -675T-119 -564T-129 -429Q-129 -388 -116 -337T-81 -229T-32 -114T25 0Q93 128 180 264Q191 342 202 424T231 583T275 729T343 849T443 930T583 960Q644 960 697 944T790 890T853 795T876 651Q876 583 856 520T794 398T686 290T530 199L536 178ZM410
279Q470 309 513 346T588 425T640 512T672 604Q677 626 678 655T673 711T647 755T595 774Q558 774 530 754T482 698T448 615T426 512T414 398T410 279ZM62 -441Q62 -449 65 -467T77 -503T98 -535T130 -549Q147 -549 158 -531T176 -481T186 -411T191 -331T193 -251T196
-181Q199 -127 200 -90T203 -27Q204 1 205 20Q186 -13 168 -56T134 -147T105 -241T83 -328T68 -398T62 -441Z" />
<glyph unicode="q" glyph-name="q" horiz-adv-x="832" d="M384 160Q372 158 361 157T338 156Q269 156 213 185T117 264T54 378T32 512Q32 606 70 688T172 830T315 925T480 960Q556 960 610 939T699 881T750 798T766 698Q766 680 764 661T756 624Q748 600 737 564T715
487T691 406T670 333T655 279T649 256Q648 257 652 242T662 200Q674 195 685 194T704 192Q740 192 786 217T882 277T977 351T1056 416V192Q1026 163 990 134T911 80T816 35T701 6Q715 -72 725 -158T736 -320Q736 -416 716 -493T655 -624T555 -707T416 -736Q382
-736 348 -721T286 -677T241 -607T224 -512Q224 -452 240 -372T280 -203T332 -21T384 160ZM416 288Q418 293 424 315T440 370T461 442T484 523Q511 618 544 736Q535 745 524 752Q515 758 504 763T480 768Q425 768 384 743T314 680T271 596T256 512Q256 480 262
443T285 372T334 316T416 288ZM544 33Q539 19 527 -20T499 -111T466 -222T434 -335T411 -433T401 -498Q401 -518 411 -531T438 -544Q477 -544 503 -521T545 -458T569 -366T576 -256Q576 -185 569 -109T544 33Z" />
<glyph unicode="r" glyph-name="r" horiz-adv-x="864" d="M128 209Q128 253 133 311T146 435T166 567T191 696T217 808T243 892Q251 914 259 927T277 947T303 957T342 960Q368 960 382 958T404 946T412 918T414 869Q414 832 414 780T416 676H427Q447 716 472 765T530
858T605 930T702 960Q721 960 739 954T770 935T792 906T800 866Q800 849 795 819T784 755T773 690T768 637Q768 601 775 577T793 539T819 518T850 512Q895 512 943 532T1031 577Q1078 606 1123 643L1108 409Q1082 392 1049 371T979 332T901 301T818 288Q743 288
697 318T624 398T584 509T563 634H547L368 135Q354 96 342 71T316 29T288 7T255 0Q214 0 189 17T151 64T133 131T128 209Z" />
<glyph unicode="s" glyph-name="s" horiz-adv-x="865" d="M96 384Q152 432 187 464T247 522T292 576T341 640T409 730T513 864Q526 882 542 899T577 929T620 951T673 960Q721 960 747 950T785 924T799 893T801 864Q801 840 782 811T740 755T697 706T673 672Q673
641 677 616T689 566T705 514T720 450T732 367T737 256Q773 280 814 299T901 340T993 386T1089 448L1090 224Q1028 176 947 134T776 60T595 10T421 -9Q362 -9 311 2T222 36T159 98T130 190Q116 187 103 186T76 185Q60 185 46 186T22 193T6 214T0 256Q0 280 12 300T40
337T72 365T96 384ZM224 256Q236 256 250 241T284 208T328 175T385 160Q424 160 449 173T490 207T511 257T517 317Q517 344 514 372T505 425T493 473T481 512L224 256Z" />
<glyph unicode="t" glyph-name="t" horiz-adv-x="801" d="M960 224Q864 168 789 126T656 56T552 14T469 0Q393 0 335 46T238 178T180 388T160 665Q160 725 165 793T179 928Q149 932 133 935T98 942T51 950T-32 960Q-56 963 -69 971T-88 991T-95 1015T-96 1037Q-96
1057 -77 1067T-27 1083T40 1088T110 1088T170 1087T207 1088Q234 1223 275 1349T368 1574T481 1732T609 1792Q652 1792 687 1768T748 1704T786 1611T800 1499Q800 1450 786 1396T748 1285T692 1170T623 1055Q632 1054 653 1054T701 1052T761 1050T823 1047T879
1045T922 1043Q942 1042 951 1023T960 975Q960 940 940 918T896 896H512Q483 856 454 818T399 748Q395 686 392 626Q391 600 390 573T388 518T387 466T386 420Q386 366 396 329T425 269T471 235T533 224Q554 224 585 234T654 261T733 303T815 355T893 415T960 480V224ZM640
1490Q640 1501 639 1514T632 1540T617 1560T587 1568Q561 1568 535 1522T484 1405T438 1247T398 1080Q413 1078 428 1077T459 1073Q489 1124 521 1183T580 1300T623 1408T640 1490Z" />
<glyph unicode="u" glyph-name="u" horiz-adv-x="962" d="M876 895Q876 868 870 822T855 720T834 605T814 495T798 406T792 352Q792 324 793 301T799 260T814 233T845 223Q867 223 898 234T965 263T1038 305T1108 355T1169 406T1214 454Q1214 421 1214 394T1215
343T1215 292T1216 234Q1194 212 1162 187T1090 137T1006 89T916 49T827 21T745 10Q707 10 680 25T634 67T601 131T577 215Q541 168 501 129T420 60T336 15T253 -2Q220 -2 191 9T140 46T104 114T91 220Q91 297 109 416T155 688Q157 703 162 728T177 784T201 845T234
901T278 942T336 959Q389 957 412 946T435 917Q426 864 416 799T394 668T373 540T355 428T343 349T338 318Q338 300 341 284T352 254T370 233T396 225Q418 225 441 236T484 269T521 322T545 394L644 902Q649 926 684 942T765 959Q816 959 846 941T876 895Z" />
<glyph unicode="v" glyph-name="v" horiz-adv-x="907" d="M128 324Q125 399 122 454T117 555T113 638T112 716Q112 819 121 876T163 939L283 958Q288 959 292 959T302 960Q336 960 354 940T374 894L335 261L349 262L612 889Q615 903 625 916T651 938T686 954T728
960Q786 960 821 937T856 876Q856 848 849 823T828 769T796 703T755 618Q748 600 743 581Q738 564 735 543T731 498Q731 474 737 451T758 410T799 380T866 369Q896 369 935 384T1010 420Q1051 443 1094 472V237Q1028 195 958 170T823 145Q769 145 727 161T655 206T609
269T591 342Q562 282 525 219T449 105T370 22T295 -11Q237 -11 205 18T158 93T138 191T130 292L128 324Z" />
<glyph unicode="w" glyph-name="w" horiz-adv-x="1301" d="M563 494Q534 385 495 295T410 139T317 37T223 0Q145 0 109 115T72 455Q72 487 72 511T73 560T76 613T81 682Q82 692 85 716T96 772T116 836T148 897T194 943T258 961L282 959Q326 959 349 942T373 895L303
354L316 355Q360 457 392 541T452 693T505 810T561 893T628 942T718 959Q762 959 785 942T809 895L727 354L741 355L980 889Q992 917 1032 938T1127 960Q1184 960 1219 937T1254 876Q1254 848 1245 816T1224 757T1203 710T1192 688Q1170 648 1152 614T1119 554Q1102
524 1089 498Q1103 459 1125 428Q1144 402 1172 380T1239 358Q1272 358 1315 375T1396 415Q1441 440 1488 472V237Q1422 195 1352 170T1216 145Q1165 145 1120 157T1040 195T985 262T963 363Q929 283 892 217T816 102T737 27T657 0Q643 0 633 21T615 79T604 164T597
267T593 378T592 489L563 494Z" />
<glyph unicode="x" glyph-name="x" horiz-adv-x="1025" d="M198 466Q198 437 197 410T196 358Q196 334 198 315T206 281T224 259T256 251Q267 251 280 264T311 301T351 358T401 430Q370 502 340 586T281 771Q279 777 279 781Q279 799 294 819T332 856T383 884T436
896Q456 896 470 889T492 868Q503 842 527 784T582 653Q633 707 695 760T832 864Q857 881 879 888T919 895Q942 895 959 886T989 860T1007 823T1013 780Q1013 748 1000 719T960 672Q882 623 813 563T680 436Q702 392 724 353T768 285T808 240T845 223Q867 223 898
234T965 263T1038 305T1108 355T1169 406T1214 454Q1214 421 1214 394T1215 343T1215 292T1216 234Q1183 201 1131 161T1016 85T880 25T736 0Q695 0 633 55T498 235Q455 185 416 143T343 68T279 18T224 0Q174 0 142 26T91 92T63 180T52 272L198 466Z" />
<glyph unicode="y" glyph-name="y" horiz-adv-x="928" d="M640 768Q648 802 668 828T715 873T771 900T826 909Q857 909 878 896T899 853Q899 844 896 832Q890 806 881 761T862 659T840 539T819 412Q794 264 768 94Q798 111 833 136T911 203T1007 308T1126 467L1174
245Q1156 214 1128 182T1065 117T993 54T919 -4Q834 -68 736 -128Q717 -235 691 -336T630 -526T549 -689T446 -816T317 -898T160 -928Q126 -928 87 -921T14 -893T-42 -833T-64 -729Q-64 -684 -41 -628T22 -509T117 -379T236 -244T371 -112T514 12L541 105Q487 57
429 28T315 -2Q267 -2 222 17T141 73T85 162T64 281Q64 368 72 441T97 580T137 707T192 832Q215 877 258 900T342 924Q377 924 402 907T427 852Q427 841 425 828T416 800Q398 754 381 692T350 564T328 435T320 324Q320 299 323 276T336 234T360 204T398 192Q435
192 465 224T517 301T552 394T570 474L640 768ZM172 -736Q214 -736 251 -712T320 -647T378 -556T424 -452T458 -347T480 -256Q441 -282 401 -318T322 -395T249 -481T188 -565T147 -641T132 -699Q132 -736 172 -736Z" />
<glyph unicode="z" glyph-name="z" horiz-adv-x="673" d="M27 187Q27 209 35 223T56 251T86 277T121 311L432 729Q414 737 401 744T378 756T356 765T332 768Q300 768 279 767T244 760T218 742T192 708Q161 660 140 638T102 615Q86 615 80 629T73 668Q73 678 74
689T77 713Q92 800 120 854T182 937T254 977T324 988Q348 988 372 977T419 951T467 926T518 913Q538 912 554 912T585 912Q625 912 649 913T685 917T703 920T711 922Q746 922 761 898T777 831Q777 804 771 773Q769 765 751 753T691 729Q679 707 651 667T587 578T511
477T436 380T374 301T338 255L333 235Q334 235 351 228T391 213T439 197T484 190Q526 190 560 202T624 234T679 274T728 315T775 346T823 359Q842 359 857 350T883 327T899 296T905 261Q905 232 883 201T824 139T738 82T636 35T527 2T422 -10Q418 -10 401 -6T356
7T291 32T210 70Q172 58 144 58Q114 58 92 68T56 97T34 138T27 187Z" />
<glyph unicode="{" glyph-name="braceleft" horiz-adv-x="1153" d="M487 1384Q502 1481 538 1562T625 1701T741 1792T877 1824Q913 1824 964 1822T1070 1809T1179 1780T1278 1728Q1292 1717 1298 1702T1305 1669Q1305 1646 1296 1623T1270 1580T1231 1549T1183
1536Q1159 1536 1126 1541T1054 1552T976 1563T900 1568Q868 1568 842 1556T795 1509T756 1414T723 1256Q711 1181 698 1107T660 968T595 854T488 781Q528 771 555 748T598 693T620 620T627 534Q627 477 620 414T604 289T588 175T580 86Q580 44 586 17T605 -26T634
-49T675 -56Q711 -56 743 -45T805 -19T865 6T926 18Q943 18 960 12T990 -7T1011 -40T1019 -87Q1019 -102 1016 -120Q1011 -154 982 -181T909 -230T815 -267T716 -292T629 -307T570 -312Q509 -312 461 -288T380 -220T330 -114T312 23Q312 107 328 197T360 376Q362
391 363 406T365 439Q365 475 358 509T332 571T284 615T209 632Q168 632 150 662T132 735Q132 766 141 798T166 857T204 901T254 920Q318 921 358 937T424 986T463 1065T487 1176V1384Z" />
<glyph unicode="|" glyph-name="bar" horiz-adv-x="1248" d="M715 1696Q718 1724 731 1752T766 1804T819 1841T892 1856Q919 1856 937 1843T966 1811T982 1772T987 1739Q987 1727 986 1712T983 1680T979 1649T975 1622Q966 1564 953 1480T924 1294T891 1081T857
855T824 632T793 426T768 253T750 128Q744 84 724 54T678 5T625 -23T579 -32Q555 -32 536 -19T502 16T480 67T472 129Q472 144 473 161T477 197Q482 228 492 295T516 452T547 652T582 877T619 1111T655 1337T688 1537T715 1696Z" />
<glyph unicode="}" glyph-name="braceright" horiz-adv-x="1248" d="M1007 1304Q1000 1261 991 1213T974 1117T961 1024T955 943Q955 908 963 882T989 838T1039 811T1118 800Q1157 799 1175 766T1193 688Q1193 658 1185 627T1162 570T1124 528T1073 512Q1026 512
992 497T935 457T898 403T880 346Q869 283 860 226T841 106Q825 8 789 -74T702 -215T586 -308T450 -342Q431 -342 395 -338T316 -324T228 -301T147 -266T87 -221T64 -163Q64 -124 78 -96T114 -49T158 -21T198 -12Q229 -12 255 -23T307 -49T362 -74T427 -86Q459
-86 485 -73T533 -23T572 75T606 234Q617 301 631 371T670 501T735 604T840 661Q800 676 774 701T731 759T709 832T702 916Q702 969 709 1030T725 1151T741 1263T748 1350Q748 1391 742 1418T723 1460T693 1482T652 1488Q616 1488 575 1483T494 1472T419 1461T359
1456Q338 1456 323 1464T296 1485T280 1516T274 1552Q274 1579 287 1605T326 1648Q380 1681 440 1700T559 1729T669 1741T757 1744Q818 1744 866 1721T947 1654T998 1551T1016 1415Q1016 1362 1007 1304Z" />
<glyph unicode="~" glyph-name="asciitilde" horiz-adv-x="864" d="M710 1467Q722 1480 734 1497Q745 1511 757 1529T783 1567Q803 1599 832 1614T891 1630Q925 1630 949 1611T974 1557Q974 1532 960 1504Q948 1481 929 1446T882 1377T815 1319T728 1295Q697 1295
674 1304T626 1331T576 1376T512 1440L410 1541Q398 1526 386 1510Q375 1496 362 1479T337 1441Q317 1409 288 1394T229 1378Q195 1378 171 1397T146 1451Q146 1476 160 1504Q172 1527 191 1562T238 1631T305 1689T392 1713Q423 1713 446 1704T494 1677T544 1632T608
1568L710 1467Z" />
<glyph unicode="&#xa0;" glyph-name="space" horiz-adv-x="545" />
<glyph unicode="&#xa1;" glyph-name="exclamdown" horiz-adv-x="1184" d="M833 1342Q823 1239 803 1130T757 911T702 694T643 489T587 305T541 150Q527 102 503 73T449 27T386 4T321 -2Q305 -2 291 2T267 16T252 45T246 93Q246 113 248 136T257 190Q281 307 321
424T418 677T545 973T705 1342Q707 1353 715 1362T736 1378T762 1388T789 1392Q808 1392 821 1384T835 1357Q835 1352 833 1342ZM659 1669Q661 1673 662 1688T669 1724T685 1768T714 1810T764 1843T839 1856Q876 1856 906 1847T957 1817T991 1766T1003 1692Q1003
1656 993 1622T960 1560T903 1517T820 1501Q742 1501 700 1543T658 1663Q658 1667 659 1669Z" />
<glyph unicode="&#xa2;" glyph-name="cent" horiz-adv-x="896" d="M515 1023Q516 1042 522 1062T540 1098T567 1125T604 1135Q614 1135 621 1127T634 1106T642 1081T645 1057Q645 1041 644 1015T640 970L638 954Q694 946 739 926T817 876T868 809T886 729Q886
695 879 662T856 603T820 560T772 544Q737 544 722 558T702 595T696 643T690 694T671 738T624 765Q616 647 608 506T586 202Q639 218 693 248T785 307Q798 314 809 314Q823 314 836 306T860 284T877 253T884 218Q884 201 877 187T854 161Q816 128 770 98Q731 72
679 46T568 5L552 -130Q547 -153 540 -166T525 -187T508 -197T490 -199Q484 -199 479 -199T469 -198Q459 -198 451 -189T436 -165T427 -131T423 -89Q423 -70 425 -52T429 0Q339 1 271 35T157 127T88 258T64 413Q64 467 77 526T115 642T179 753T266 849T376 919T509
956L515 1023ZM320 414Q320 382 325 347T344 280T382 226T444 195Q449 256 454 325T466 466T478 610T491 750Q434 727 400 683T349 589T326 492T320 414Z" />
<glyph unicode="&#xa3;" glyph-name="sterling" horiz-adv-x="1505" d="M1264 992Q1288 992 1315 987T1367 969T1406 931T1422 868Q1422 849 1416 831T1392 799T1343 777T1263 768H1012Q1006 714 998 653T982 531T965 414T950 315T939 244T936 215Q1027 215 1094
224T1217 243T1323 263T1433 272Q1458 272 1485 266T1536 246T1574 214T1589 170Q1589 149 1582 126T1559 84T1519 51T1459 34Q1416 30 1346 20T1191 -1T1016 -20T842 -29Q780 -29 740 -16T677 20T644 72T634 135Q634 175 644 216T666 292Q670 330 682 390T707
517T731 650T748 768H632Q597 768 576 782T544 814T529 851T525 879Q525 900 530 920T550 956T589 982T656 992H768Q768 1128 792 1234T857 1421T954 1557T1074 1648T1207 1698T1343 1714Q1384 1714 1427 1709T1512 1690T1589 1653T1652 1595T1696 1512T1712 1398Q1712
1362 1703 1337T1679 1297T1645 1274T1606 1266Q1586 1266 1568 1272T1535 1291T1511 1319T1502 1356Q1502 1396 1490 1419T1457 1453T1407 1467T1344 1470Q1310 1470 1273 1464T1201 1439T1133 1387T1077 1301T1039 1172T1024 992H1264Z" />
<glyph unicode="&#xa4;" glyph-name="currency" horiz-adv-x="1472" d="M666 452Q589 452 525 473T410 535Q374 509 336 482T262 432T196 395T146 381Q131 381 116 389T90 411T71 440T64 474Q64 499 82 523T142 576L294 681Q248 779 248 901Q248 1022 285 1137T397
1343L302 1429Q272 1456 258 1477T243 1521Q243 1537 252 1555T276 1588T309 1613T344 1623Q383 1623 433 1579L553 1473Q611 1505 680 1522T830 1540Q908 1540 973 1520T1089 1462Q1124 1486 1157 1509T1219 1549T1272 1577T1314 1588Q1330 1588 1345 1580T1371
1558T1390 1528T1397 1495Q1397 1470 1379 1446T1319 1394L1204 1315Q1241 1229 1241 1124Q1241 1058 1230 991T1195 860T1138 738T1060 630L1159 541Q1216 489 1217 451Q1217 434 1208 416T1184 382T1152 357T1117 347Q1097 347 1072 361T1019 397T960 448T898
505Q847 479 789 466T666 452ZM696 645Q753 645 798 667T879 726T941 813T983 915T1008 1023T1016 1125Q1016 1171 1003 1212T966 1283T905 1330T824 1348Q740 1348 675 1314T564 1221T496 1079T472 901Q472 841 487 794T532 713T603 663T696 645Z" />
<glyph unicode="&#xa5;" glyph-name="yen" horiz-adv-x="1793" d="M1239 545Q1258 545 1282 543T1327 533T1362 514T1376 481Q1376 465 1370 448T1345 417T1289 394T1191 385H945Q917 297 888 234T828 129T766 61T700 22T631 5T557 1Q527 1 501 9T456 31T425 65T414
108Q414 128 420 147T435 180T457 204T484 213Q505 213 526 209T567 195Q580 187 600 187Q614 187 635 241T683 385H589Q543 385 515 394T472 417T453 447T448 475Q448 486 452 498T471 520T514 538T589 545H725L749 641H594Q546 641 517 650T473 673T453 703T448
731Q448 742 452 754T472 776T517 794T594 801H743Q727 886 710 969T673 1126T633 1264T587 1374T537 1446T480 1472Q445 1472 372 1426T203 1279Q198 1282 183 1296Q170 1308 145 1332T78 1400Q138 1471 200 1525T321 1616T435 1672T533 1691Q617 1691 680 1626T790
1448T874 1186T940 869Q1019 984 1092 1094T1228 1301T1341 1476T1423 1603Q1432 1615 1446 1625T1477 1642T1515 1653T1555 1657Q1576 1657 1595 1653T1628 1638T1651 1611T1660 1570Q1660 1546 1650 1515T1615 1443Q1588 1398 1540 1332T1430 1182T1296 1003T1148
801H1266Q1286 801 1311 799T1357 789T1393 770T1408 737Q1408 721 1402 704T1375 673T1317 650T1216 641H1042L1007 545H1239Z" />
<glyph unicode="&#xa6;" glyph-name="brokenbar" horiz-adv-x="1025" d="M575 1728Q591 1792 623 1823T691 1854Q713 1854 734 1842T772 1807T798 1748T808 1668Q808 1657 808 1646T806 1622Q802 1605 797 1570T786 1489T773 1390T759 1283T746 1179T735 1088Q730
1049 719 1022T691 977T655 951T615 943Q590 943 566 954T523 986T493 1034T481 1097Q481 1104 481 1110T483 1125Q488 1167 495 1219T510 1327T526 1441T543 1552T560 1650T575 1728ZM400 608Q405 643 418 669T449 713T489 740T533 749Q556 749 577 739T616 709T643
657T654 585Q654 573 653 561T650 534Q633 418 623 338T605 194T588 71T566 -64Q561 -96 550 -115T524 -145T492 -159T459 -162Q447 -162 436 -161T415 -160Q391 -160 372 -147T338 -112T316 -61T308 1Q308 16 309 33T313 69Q319 111 324 142T334 204T346 269T359
349T377 457T400 608Z" />
<glyph unicode="&#xa7;" glyph-name="section" horiz-adv-x="1440" d="M1228 625Q1228 547 1192 486T1093 376Q1117 339 1130 296T1144 200Q1144 122 1104 63T998 -36T849 -96T681 -117Q594 -117 512 -96T366 -33T263 73T224 223Q224 268 238 303T275 361T322
396T370 408Q406 408 429 396T453 357Q453 333 444 302T435 224Q435 182 456 152T512 101T592 72T687 62Q723 62 759 71T825 99T873 146T892 210Q892 256 868 292T805 358T715 416T612 470T509 528T420 595T356 677T332 782Q332 845 368 904T481 1011Q443 1050
420 1095T396 1197Q396 1251 425 1303T512 1397T657 1465T860 1491Q930 1491 1000 1467T1128 1397T1220 1290T1256 1151Q1256 1110 1246 1082T1220 1035T1184 1008T1144 999Q1110 999 1084 1020T1058 1080Q1058 1096 1063 1113T1068 1148Q1068 1186 1049 1216T996
1268T920 1300T831 1312Q781 1312 746 1299T689 1267T657 1225T647 1185Q647 1156 672 1131T738 1080T831 1028T937 971T1044 907T1137 830T1203 738T1228 625ZM1006 625Q1006 667 970 702T878 770T754 836T619 908Q587 881 571 850T555 787Q555 762 572 740T620
698T690 657T774 614T865 568T955 514Q979 537 992 565T1006 625Z" />
<glyph unicode="&#xa8;" glyph-name="dieresis" horiz-adv-x="1025" d="M898 1306Q898 1302 897 1288T892 1254T877 1213T849 1174T804 1144T736 1132Q674 1132 635 1166T595 1280Q595 1313 604 1344T632 1400T681 1439T753 1454Q824 1454 861 1416T898 1306ZM431
1306Q431 1302 430 1288T424 1254T409 1213T381 1174T336 1144T269 1132Q205 1132 167 1166T128 1280Q128 1313 137 1344T165 1400T214 1439T286 1454Q356 1454 393 1416T431 1306Z" />
<glyph unicode="&#xa9;" glyph-name="copyright" horiz-adv-x="1792" d="M834 32Q650 32 514 84T287 223T152 423T107 657Q107 751 132 845T208 1027T332 1189T505 1320T724 1408T989 1440Q1103 1440 1194 1417T1357 1352T1479 1254T1562 1130T1610 989T1626 838Q1626
743 1603 647T1533 461T1419 293T1263 157T1068 66T834 32ZM838 192Q937 192 1020 219T1171 293T1288 403T1373 537T1424 684T1441 833Q1441 923 1414 1003T1328 1145T1177 1242T953 1278Q847 1278 758 1252T595 1181T465 1074T370 943T312 797T292 646Q292 556
324 474T424 329T595 229T838 192ZM830 323Q750 323 690 351T590 428T529 539T509 672Q509 722 520 777T554 886T610 989T686 1076T782 1136T898 1158Q948 1158 990 1143T1062 1101T1109 1038T1126 959Q1126 927 1117 896T1092 840T1051 800T998 784Q959 784 946
803T933 858Q933 877 936 901T939 943Q939 962 935 974T916 986Q876 986 847 967T799 917T767 851T749 781T741 718T739 677Q739 646 745 614T766 556T808 513T876 496Q900 496 929 504T988 526T1046 554T1095 582Q1105 587 1113 587Q1125 587 1135 579T1154 557T1167
528T1172 495Q1172 478 1166 463T1146 440Q1103 407 1052 381Q1008 359 951 341T830 323Z" />
<glyph unicode="&#xaa;" glyph-name="ordfeminine" horiz-adv-x="928" d="M1024 1016Q1004 988 971 951T896 880T807 823T712 799Q655 799 617 836T551 943Q530 919 500 894T434 849T359 815T281 802Q239 802 200 818T131 866T83 943T64 1047Q64 1112 82 1180T132
1314T208 1436T303 1537T412 1606T530 1632Q549 1632 560 1625T579 1607T594 1587T612 1573Q626 1567 642 1567T674 1567T704 1568T730 1560T749 1535T756 1487Q756 1445 748 1395T729 1291T710 1185T701 1084Q701 1043 708 1020T739 997Q757 997 777 1006T817
1029T858 1063T897 1102Q940 1148 983 1207L1024 1016ZM285 1084Q285 1062 288 1042T298 1005T319 979T353 969Q374 969 393 982T428 1016T456 1063T478 1117T493 1169T501 1213L554 1467Q501 1467 453 1429T367 1333T307 1208T285 1084Z" />
<glyph unicode="&#xab;" glyph-name="guillemotleft" horiz-adv-x="1440" d="M638 87Q561 132 507 172T412 248T337 318T268 385Q228 423 210 460T192 533Q192 567 206 600T246 663T307 723T382 778Q385 780 408 796T463 835T532 884T601 933T655 971T680 988Q694
994 707 996T733 999Q757 999 777 991T813 969T836 936T845 896Q845 865 820 837T746 773L420 544L689 313Q701 302 722 288T764 255T799 212T814 158Q814 145 806 130T784 103T749 82T702 73Q672 73 638 87ZM1214 87Q1137 132 1083 172T988 248T913 318T844 385Q804
423 786 460T768 533Q768 567 782 600T822 663T883 723T958 778Q961 780 984 796T1039 835T1108 884T1177 933T1231 971T1256 988Q1270 994 1283 996T1309 999Q1333 999 1353 991T1389 969T1412 936T1421 896Q1421 865 1396 837T1322 773L996 544L1265 313Q1277
302 1298 288T1340 255T1375 212T1390 158Q1390 145 1382 130T1360 103T1325 82T1278 73Q1248 73 1214 87Z" />
<glyph unicode="&#xac;" glyph-name="logicalnot" horiz-adv-x="1216" d="M1015 353Q1013 320 1004 295T980 254T947 229T911 220Q894 220 878 227T850 248T830 285T822 336Q822 339 822 342T823 349L836 576H293Q262 576 239 583T201 603T178 632T170 666Q170
684 179 702T205 735T248 759T309 768H940Q990 768 1012 745T1035 691V685L1015 353Z" />
<glyph unicode="&#xae;" glyph-name="registered" horiz-adv-x="1760" d="M855 38Q657 38 510 96T266 252T120 475T71 736Q71 836 97 935T176 1126T306 1296T488 1433T719 1524T1001 1557Q1122 1557 1220 1533T1393 1464T1523 1361T1613 1230T1665 1081T1682 921Q1682
816 1657 710T1584 506T1465 323T1302 174T1098 75T855 38ZM850 202Q955 202 1043 232T1203 316T1327 441T1417 593T1471 760T1489 930Q1489 1024 1463 1108T1381 1255T1237 1356T1026 1394Q902 1394 796 1366T604 1289T451 1175T341 1033T273 875T250 712Q250
612 286 520T396 357T583 244T850 202ZM423 500Q433 493 445 490T468 487Q491 487 511 508T549 564T580 639T605 719T623 789T633 835Q604 852 591 866T578 898Q578 902 579 909T584 923T593 935T607 940Q610 940 618 939T636 936T652 933T662 932L665 942Q669
959 677 990T696 1057T722 1130T754 1198T791 1247T833 1267Q870 1270 903 1273Q932 1275 962 1277T1015 1279Q1082 1279 1132 1261T1216 1211T1265 1139T1282 1054Q1282 1012 1263 970T1205 894T1110 836T978 809Q1012 794 1029 768T1054 712T1061 649T1063 591T1070
549T1093 532Q1109 532 1129 539T1171 558T1215 588T1257 627L1296 514Q1296 515 1271 495T1204 451T1110 407T1004 387Q958 387 935 417T901 494T888 593T883 693T871 769T837 800H807Q779 699 750 619T687 484T612 400T517 371Q491 371 459 375T404 396L423 500ZM897
1143Q888 1102 879 1062Q871 1027 862 989T845 919Q867 916 889 916Q938 916 978 928T1045 958T1088 999T1103 1044Q1103 1084 1068 1113T958 1143H897Z" />
<glyph unicode="&#xb0;" glyph-name="degree" horiz-adv-x="737" d="M64 1317Q64 1394 100 1453T193 1551T315 1611T440 1632Q482 1632 523 1618T598 1576T651 1504T672 1403Q672 1314 640 1249T557 1141T445 1076T324 1055Q282 1055 237 1068T153 1112T89 1193T64
1317ZM413 1489Q363 1489 326 1473T264 1433T227 1377T215 1316Q215 1293 222 1273T242 1237T276 1212T324 1203Q368 1203 402 1220T460 1265T496 1324T509 1388Q509 1429 486 1459T413 1489Z" />
<glyph unicode="&#xb1;" glyph-name="plusminus" horiz-adv-x="1503" d="M673 612H449Q417 612 393 620T352 641T328 672T320 707Q320 725 328 742T353 773T395 795T453 804H673V1032Q673 1060 682 1082T708 1119T743 1143T782 1151Q814 1151 839 1127T865 1051V804H1115Q1167
804 1191 779T1215 721Q1215 701 1207 682T1184 647T1146 622T1096 612H865V389Q865 356 857 331T835 290T804 265T768 256Q750 256 733 264T703 288T681 328T673 385V612ZM1000 194Q1013 194 1030 191T1061 180T1085 157T1095 118Q1095 98 1091 78T1073 41T1034
13T967 2H552Q520 2 501 13T472 41T458 77T455 111Q455 124 458 138T471 165T500 186T552 194H1000Z" />
<glyph unicode="&#xb2;" glyph-name="twosuperior" horiz-adv-x="992" d="M765 609Q706 609 646 637T528 702Q473 663 410 639T276 609Q225 609 182 624T106 664T56 721T37 789Q37 819 47 852T80 912T136 958T220 976Q296 976 353 960T461 920Q507 980 538 1051T570
1191Q570 1245 559 1279T529 1332T488 1357T445 1364Q421 1364 399 1357T360 1338T333 1307T323 1268Q323 1253 343 1237T409 1202Q410 1200 411 1199T412 1195Q412 1185 389 1173T330 1151T253 1134T175 1127Q169 1135 162 1136T150 1137Q113 1166 96 1199T78
1271Q78 1319 108 1366T190 1450T313 1511T464 1535Q485 1535 520 1531T597 1515T680 1480T756 1421T812 1331T834 1206Q834 1172 822 1126T788 1029T732 924T657 821Q688 809 722 803T796 796Q808 796 822 809T851 838T877 867T895 881Q924 881 935 876T947 854Q947
840 941 815T927 748Q923 725 913 701T883 656T835 623T765 609ZM263 774Q301 774 354 813Q333 824 314 831T279 838Q241 838 224 831T207 813Q207 799 224 787T263 774Z" />
<glyph unicode="&#xb3;" glyph-name="threesuperior" horiz-adv-x="768" d="M221 937Q221 894 242 876T293 857Q314 857 335 865T374 888T403 923T414 968Q414 1014 403 1045T369 1095T312 1125T230 1141Q204 1143 193 1152T182 1174Q182 1186 184 1199T193 1224T210
1243T235 1251Q265 1251 288 1262T328 1289T354 1326T363 1366Q363 1397 348 1419T301 1442Q272 1442 253 1429T233 1396Q233 1389 239 1382T252 1368T265 1356T271 1346Q271 1340 260 1334T233 1324T204 1316T186 1313Q177 1313 167 1317T150 1331T137 1360T132
1405Q132 1447 152 1477T205 1528T282 1557T371 1567Q418 1567 463 1555T544 1520T602 1462T624 1385Q624 1365 618 1341T593 1294T541 1249T454 1212Q511 1200 551 1175T618 1115T656 1041T668 959Q668 917 644 875T578 800T476 745T347 724Q272 724 219 740T132
786T82 857T66 948Q66 978 75 998T99 1031T135 1049T177 1055Q196 1055 219 1051T262 1039T295 1023T309 1006Q309 1000 295 996T265 985T235 967T221 937Z" />
<glyph unicode="&#xb4;" glyph-name="acute" horiz-adv-x="609" d="M112 1203Q118 1216 129 1242T154 1302T185 1375T219 1452Q258 1542 304 1646Q317 1680 343 1695T399 1710Q425 1710 451 1700T497 1672T531 1629T544 1574Q544 1527 507 1477Q488 1451 464 1420T413
1354T359 1285T306 1221T261 1165T228 1125Q211 1105 194 1097T160 1088Q136 1088 119 1106T102 1155Q102 1166 104 1178T112 1203Z" />
<glyph unicode="&#xb5;" glyph-name="mu" horiz-adv-x="962" d="M876 895Q876 868 870 822T855 720T834 605T814 495T798 406T792 352Q792 324 793 301T799 260T814 233T845 223Q867 223 898 234T965 263T1038 305T1108 355T1169 406T1214 454Q1214 421 1214 394T1215
343T1215 292T1216 234Q1194 212 1162 187T1090 137T1006 89T916 49T827 21T745 10Q707 10 680 25T634 67T601 131T577 215Q528 143 469 102T350 60Q320 60 293 72Q284 -10 277 -71T253 -174T209 -235T128 -256Q75 -256 54 -225T32 -128Q32 -80 40 -1T61 171T91
366T124 558T156 725T181 842Q189 874 196 896T218 932T260 952T336 959Q385 957 410 947T435 920V917Q426 864 416 799T394 668T373 540T355 428T343 349T338 318Q338 300 341 284T352 254T370 233T396 225Q418 225 441 236T484 269T521 322T545 394L644 902Q649
926 684 942T765 959Q816 959 846 941T876 895Z" />
<glyph unicode="&#xb6;" glyph-name="paragraph" horiz-adv-x="1308" d="M914 127Q933 237 949 347T981 560T1010 758T1039 931Q1003 927 958 924T870 914Q841 758 813 604Q801 538 788 467T762 324T736 184T712 55Q706 39 694 28T666 8T629 -4T589 -8Q566 -8
544 -3T504 14T476 41T465 81Q465 96 471 114Q472 124 478 164T494 264T514 395T536 541Q562 713 595 926Q461 926 367 959T212 1045T124 1163T96 1295Q96 1355 124 1411T202 1518T323 1609T479 1680T660 1726T860 1743Q978 1743 1058 1736T1187 1719Q1244 1708
1277 1696Q1314 1681 1344 1656Q1369 1635 1390 1601T1411 1519Q1411 1497 1405 1472Q1398 1441 1386 1375T1359 1218T1325 1021T1288 804T1250 586T1215 387T1184 228T1161 126Q1152 93 1136 70T1099 31T1056 8T1011 0Q970 0 940 24T910 95Q910 112 914 127Z"
/>
<glyph unicode="&#xb7;" glyph-name="middot" horiz-adv-x="704" d="M672 191Q672 187 671 171T665 134T648 90T615 46T562 13T484 0Q447 0 417 9T366 38T332 88T320 162Q320 198 330 232T363 294T420 337T503 353Q586 353 629 311T672 191Z" />
<glyph unicode="&#xb8;" glyph-name="cedilla" horiz-adv-x="1184" d="M684 46Q674 -57 668 -119T658 -217T652 -269T647 -295T643 -318T636 -360Q631 -397 615 -425T576 -472T526 -501T473 -511Q451 -511 431 -504T396 -482T371 -445T362 -392Q362 -350 379 -305T425
-206T493 -91T576 46Q584 66 602 81T640 96Q659 96 672 88T686 61Q686 56 684 46Z" />
<glyph unicode="&#xb9;" glyph-name="onesuperior" horiz-adv-x="704" d="M153 1350L151 1349L155 1350Q144 1347 136 1347Q120 1347 106 1355T80 1376T62 1406T55 1440Q55 1468 68 1482T121 1510T229 1540T411 1590Q429 1595 448 1597T486 1600Q508 1600 530
1594T569 1574T597 1542T608 1497Q608 1496 604 1468T588 1368T552 1175T492 865L489 857L490 859Q487 845 481 819T460 768T422 723T361 704Q308 704 275 726T242 800Q242 808 243 817T247 837H246Q266 934 287 1034T325 1218Q345 1315 365 1406L153 1350Z" />
<glyph unicode="&#xba;" glyph-name="ordmasculine" horiz-adv-x="799" d="M483 1631Q544 1631 589 1604T664 1532T708 1427T723 1301Q723 1214 699 1125T628 964T512 847T355 801Q279 801 225 834T137 921T86 1042T70 1179Q70 1274 103 1356T194 1500T326 1596T483
1631ZM383 967Q413 967 440 996T488 1071T521 1172T534 1277Q534 1317 528 1351T510 1410T479 1450T433 1465Q397 1465 366 1435T310 1357T272 1253T258 1143Q258 1107 264 1075T286 1019T325 981T383 967Z" />
<glyph unicode="&#xbb;" glyph-name="guillemotright" horiz-adv-x="1440" d="M975 87Q941 73 911 73Q885 73 865 81T830 102T807 130T799 158Q799 188 814 212T849 255T890 288T924 313L1193 544L867 773Q818 808 793 836T768 896Q768 917 776 935T800 968T835
991T880 999Q892 999 905 997T933 988Q936 987 958 972T1012 934T1081 885T1150 835T1204 796T1231 778Q1271 752 1306 723T1366 664T1406 600T1421 533Q1421 497 1403 460T1345 385Q1310 352 1277 318T1202 248T1106 172T975 87ZM399 87Q365 73 335 73Q309 73
289 81T254 102T231 130T223 158Q223 188 238 212T273 255T314 288T348 313L617 544L291 773Q242 808 217 836T192 896Q192 917 200 935T224 968T259 991T304 999Q316 999 329 997T357 988Q360 987 382 972T436 934T505 885T574 835T628 796T655 778Q695 752 730
723T790 664T830 600T845 533Q845 497 827 460T769 385Q734 352 701 318T626 248T530 172T399 87Z" />
<glyph unicode="&#xbc;" glyph-name="onequarter" horiz-adv-x="1759" d="M992 1408Q1000 1422 1014 1433T1047 1453T1085 1467T1123 1472Q1155 1472 1178 1456T1202 1402Q1202 1382 1194 1353T1164 1288Q1120 1213 1064 1111T936 882T779 608T590 294Q570 261
542 246T488 231Q453 231 427 255T400 323Q400 343 407 367T431 420Q443 440 467 484T526 588T600 720T684 870T771 1025T855 1174T931 1305T992 1408ZM1554 -39Q1514 -39 1473 -42T1394 -45Q1365 -45 1343 -41T1305 -26T1281 6T1273 58Q1273 93 1282 139T1305
237Q1248 237 1200 226T1109 201T1028 176T952 165Q935 165 928 176T921 205Q921 228 936 259T974 325Q994 374 1010 416T1039 497T1063 577T1085 662T1107 759T1131 875Q1136 889 1153 899T1194 915T1246 925T1303 928Q1326 928 1347 926T1383 920T1408 911T1417
899Q1407 831 1388 764T1344 627T1287 488T1222 344Q1257 343 1280 343T1324 342H1336Q1355 399 1373 453T1408 556Q1414 579 1429 595T1463 622T1503 637T1541 642Q1585 642 1600 629T1615 593Q1615 579 1609 555T1593 501T1570 435T1544 362Q1590 370 1627 376T1690
383Q1702 383 1707 373T1712 347Q1712 309 1705 286T1689 250T1671 233T1657 229Q1622 229 1584 230T1503 234Q1487 173 1483 127V110Q1483 94 1496 74T1525 34T1554 -3T1568 -30Q1568 -35 1566 -37T1554 -39ZM153 1350L151 1349L155 1350Q144 1347 136 1347Q120
1347 106 1355T80 1376T62 1406T55 1440Q55 1468 68 1482T121 1510T229 1540T411 1590Q429 1595 448 1597T486 1600Q508 1600 530 1594T569 1574T597 1542T608 1497Q608 1496 604 1468T588 1368T552 1175T492 865L489 857L490 859Q487 845 481 819T460 768T422
723T361 704Q308 704 275 726T242 800Q242 808 243 817T247 837H246Q266 934 287 1034T325 1218Q345 1315 365 1406L153 1350Z" />
<glyph unicode="&#xbd;" glyph-name="onehalf" horiz-adv-x="1729" d="M1561 1Q1502 1 1442 29T1324 94Q1269 55 1206 31T1072 1Q1021 1 978 16T902 56T852 113T833 181Q833 211 843 244T876 304T932 350T1016 368Q1092 368 1149 352T1257 312Q1303 372 1334 443T1366
583Q1366 637 1355 671T1325 724T1284 749T1241 756Q1217 756 1195 749T1156 730T1129 699T1119 660Q1119 645 1139 629T1205 594Q1206 592 1207 591T1208 587Q1208 577 1185 565T1126 543T1049 526T971 519Q965 527 958 528T946 529Q909 558 892 591T874 663Q874
711 904 758T986 842T1109 903T1260 927Q1281 927 1316 923T1393 907T1476 872T1552 813T1608 723T1630 598Q1630 564 1618 518T1584 421T1528 316T1453 213Q1484 201 1518 195T1592 188Q1604 188 1618 201T1647 230T1673 259T1691 273Q1720 273 1731 268T1743
246Q1743 232 1737 207T1723 140Q1719 117 1709 93T1679 48T1631 15T1561 1ZM941 1408Q949 1422 963 1433T996 1453T1034 1467T1072 1472Q1104 1472 1127 1456T1151 1402Q1151 1382 1143 1353T1113 1288Q1069 1213 1013 1111T885 882T728 608T539 294Q519 261 491
246T437 231Q402 231 376 255T349 323Q349 343 356 367T380 420Q392 440 416 484T475 588T549 720T633 870T720 1025T804 1174T880 1305T941 1408ZM153 1416L151 1415L155 1416Q144 1413 136 1413Q120 1413 106 1421T80 1442T62 1472T55 1506Q55 1534 68 1548T121
1576T229 1606T411 1656Q429 1661 448 1663T486 1666Q508 1666 530 1660T569 1640T597 1608T608 1563Q608 1562 604 1534T588 1434T552 1241T492 931L489 923L490 925Q487 911 481 885T460 834T422 789T361 770Q308 770 275 792T242 866Q242 874 243 883T247 903H246Q266
1000 287 1100T325 1284Q345 1381 365 1472L153 1416ZM1059 166Q1097 166 1150 205Q1129 216 1110 223T1075 230Q1037 230 1020 223T1003 205Q1003 191 1020 179T1059 166Z" />
<glyph unicode="&#xbe;" glyph-name="threequarters" horiz-adv-x="1793" d="M991 1408Q999 1422 1013 1433T1046 1453T1084 1467T1122 1472Q1154 1472 1177 1456T1201 1402Q1201 1382 1193 1353T1163 1288Q1119 1213 1063 1111T935 882T778 608T589 294Q569 261
541 246T487 231Q452 231 426 255T399 323Q399 343 406 367T430 420Q442 440 466 484T525 588T599 720T683 870T770 1025T854 1174T930 1305T991 1408ZM190 1063Q190 1020 211 1002T262 983Q283 983 304 991T343 1014T372 1049T383 1094Q383 1140 372 1171T338
1221T281 1251T199 1267Q173 1269 162 1278T151 1300Q151 1312 153 1325T162 1350T179 1369T204 1377Q234 1377 257 1388T297 1415T323 1452T332 1492Q332 1523 317 1545T270 1568Q241 1568 222 1555T202 1522Q202 1515 208 1508T221 1494T234 1482T240 1472Q240
1466 229 1460T202 1450T173 1442T155 1439Q146 1439 136 1443T119 1457T106 1486T101 1531Q101 1573 121 1603T174 1654T251 1683T340 1693Q387 1693 432 1681T513 1646T571 1588T593 1511Q593 1491 587 1467T562 1420T510 1375T423 1338Q480 1326 520 1301T587
1241T625 1167T637 1085Q637 1043 613 1001T547 926T445 871T316 850Q241 850 188 866T101 912T51 983T35 1074Q35 1104 44 1124T68 1157T104 1175T146 1181Q165 1181 188 1177T231 1165T264 1149T278 1132Q278 1126 264 1122T234 1111T204 1093T190 1063ZM1569
-38Q1526 -38 1482 -41T1396 -45Q1364 -45 1340 -41T1299 -23T1274 12T1265 71Q1265 111 1275 163T1300 273Q1238 273 1186 261T1088 233T1001 205T919 192Q901 192 893 205T885 237Q885 263 901 298T943 372Q964 427 981 474T1013 566T1039 656T1062 751T1086
860T1112 992Q1118 1008 1136 1019T1181 1037T1237 1048T1298 1052Q1323 1052 1345 1050T1384 1043T1411 1033T1421 1019Q1410 942 1390 866T1342 713T1281 557T1210 394Q1248 392 1274 392T1321 391H1334Q1354 456 1374 517T1411 633Q1417 659 1433 677T1471 707T1514
724T1555 730Q1602 730 1618 715T1635 674Q1635 658 1629 631T1611 570T1586 496T1558 414Q1608 422 1648 429T1716 437Q1729 437 1734 426T1740 397Q1740 354 1733 328T1715 288T1695 269T1680 264Q1642 264 1601 265T1514 269Q1506 237 1500 207T1492 149V130Q1492
112 1506 89T1538 44T1569 2T1584 -28Q1584 -33 1582 -35T1569 -38Z" />
<glyph unicode="&#xbf;" glyph-name="questiondown" horiz-adv-x="1292" d="M844 1018Q859 1066 886 1091T947 1116Q982 1116 1008 1101T1035 1052Q1035 984 1018 931T973 833T910 751T837 680T764 612T700 540T655 458T638 357Q638 309 648 278T676 227T718 200T771
192Q799 192 829 202T887 230T940 268T981 312Q995 331 1013 339T1048 347Q1067 347 1085 338T1116 313T1138 277T1146 232Q1146 221 1143 209T1131 186Q1101 141 1060 106T972 48T873 12T772 0Q711 0 644 19T522 80T430 185T394 338Q394 444 419 519T484 650T575
748T675 831T769 915T844 1018ZM809 1411Q809 1415 810 1431T816 1468T833 1512T866 1556T919 1589T997 1602Q1034 1602 1064 1593T1115 1564T1149 1514T1161 1440Q1161 1404 1151 1370T1118 1308T1061 1265T978 1249Q895 1249 852 1291T809 1411Z" />
<glyph unicode="&#xc0;" glyph-name="Agrave" horiz-adv-x="1632" d="M1872 224Q1851 202 1819 174T1746 118T1658 62T1562 14T1464 -19T1368 -32Q1336 -32 1304 -21T1245 19T1201 101T1184 236Q1184 271 1189 311T1202 399Q1146 286 1076 200T926 55T761 -34T591
-64Q498 -64 415 -32T267 65T166 226T128 450Q128 547 150 653T216 867T320 1081T459 1282T629 1459T827 1600T1048 1694T1289 1728Q1323 1728 1343 1723T1374 1709T1388 1691T1391 1675Q1391 1670 1391 1666T1390 1660V1655Q1417 1639 1445 1636T1500 1630T1551
1619T1593 1588T1621 1519T1632 1397Q1632 1337 1621 1262T1590 1105T1548 939T1501 776T1455 627T1418 505Q1415 461 1413 423T1411 344Q1411 312 1412 292T1418 259T1429 243T1447 238Q1467 238 1497 248T1562 275T1634 312T1706 353T1771 391T1821 419L1872
224ZM1399 1517Q1364 1527 1327 1531T1254 1536Q1173 1536 1094 1505T941 1421T799 1295T673 1139T567 965T486 786T434 612T416 456Q416 315 472 238T648 160Q722 160 788 191T912 272T1016 386T1099 515T1158 640T1191 745L1399 1517ZM1287 2065Q1292 2052 1294
2040T1297 2017Q1297 1987 1280 1969T1239 1950Q1222 1950 1205 1958T1171 1987Q1158 2002 1138 2027T1093 2082T1041 2147T987 2215T936 2281T892 2339Q855 2391 855 2436Q855 2466 868 2491T901 2534T948 2562T1000 2572Q1029 2572 1055 2557T1095 2508Q1141
2404 1180 2314Q1196 2276 1213 2237T1244 2165T1270 2105T1287 2065Z" />
<glyph unicode="&#xc1;" glyph-name="Aacute" horiz-adv-x="1632" d="M1872 224Q1851 202 1819 174T1746 118T1658 62T1562 14T1464 -19T1368 -32Q1336 -32 1304 -21T1245 19T1201 101T1184 236Q1184 271 1189 311T1202 399Q1146 286 1076 200T926 55T761 -34T591
-64Q498 -64 415 -32T267 65T166 226T128 450Q128 547 150 653T216 867T320 1081T459 1282T629 1459T827 1600T1048 1694T1289 1728Q1323 1728 1343 1723T1374 1709T1388 1691T1391 1675Q1391 1670 1391 1666T1390 1660V1655Q1417 1639 1445 1636T1500 1630T1551
1619T1593 1588T1621 1519T1632 1397Q1632 1337 1621 1262T1590 1105T1548 939T1501 776T1455 627T1418 505Q1415 461 1413 423T1411 344Q1411 312 1412 292T1418 259T1429 243T1447 238Q1467 238 1497 248T1562 275T1634 312T1706 353T1771 391T1821 419L1872
224ZM1399 1517Q1364 1527 1327 1531T1254 1536Q1173 1536 1094 1505T941 1421T799 1295T673 1139T567 965T486 786T434 612T416 456Q416 315 472 238T648 160Q722 160 788 191T912 272T1016 386T1099 515T1158 640T1191 745L1399 1517ZM1260 2065Q1266 2078 1277
2104T1302 2164T1333 2237T1367 2314Q1406 2404 1452 2508Q1465 2542 1491 2557T1547 2572Q1573 2572 1599 2562T1645 2534T1679 2491T1692 2436Q1692 2389 1655 2339Q1636 2313 1612 2282T1561 2216T1507 2147T1454 2083T1409 2027T1376 1987Q1359 1967 1342 1959T1308
1950Q1284 1950 1267 1968T1250 2017Q1250 2028 1252 2040T1260 2065Z" />
<glyph unicode="&#xc2;" glyph-name="Acircumflex" horiz-adv-x="1632" d="M1872 224Q1851 202 1819 174T1746 118T1658 62T1562 14T1464 -19T1368 -32Q1336 -32 1304 -21T1245 19T1201 101T1184 236Q1184 271 1189 311T1202 399Q1146 286 1076 200T926 55T761
-34T591 -64Q498 -64 415 -32T267 65T166 226T128 450Q128 547 150 653T216 867T320 1081T459 1282T629 1459T827 1600T1048 1694T1289 1728Q1323 1728 1343 1723T1374 1709T1388 1691T1391 1675Q1391 1670 1391 1666T1390 1660V1655Q1417 1639 1445 1636T1500
1630T1551 1619T1593 1588T1621 1519T1632 1397Q1632 1337 1621 1262T1590 1105T1548 939T1501 776T1455 627T1418 505Q1415 461 1413 423T1411 344Q1411 312 1412 292T1418 259T1429 243T1447 238Q1467 238 1497 248T1562 275T1634 312T1706 353T1771 391T1821
419L1872 224ZM1399 1517Q1364 1527 1327 1531T1254 1536Q1173 1536 1094 1505T941 1421T799 1295T673 1139T567 965T486 786T434 612T416 456Q416 315 472 238T648 160Q722 160 788 191T912 272T1016 386T1099 515T1158 640T1191 745L1399 1517ZM1382 2419Q1351
2338 1323 2265Q1311 2234 1299 2202T1275 2139T1253 2083T1235 2039Q1217 1992 1198 1966T1158 1928T1116 1914T1074 1911Q1063 1911 1051 1917T1029 1936T1012 1964T1005 2002Q1005 2021 1013 2040L1177 2369Q1204 2421 1225 2461T1270 2528T1323 2569T1398 2583Q1442
2583 1472 2567T1523 2518T1559 2440T1590 2333Q1601 2299 1608 2278T1620 2241T1629 2211T1640 2177T1655 2129T1678 2055Q1683 2037 1683 2020Q1683 1973 1654 1940T1568 1907Q1549 1907 1532 1913T1499 1934T1473 1974T1455 2039Q1438 2142 1424 2214T1401 2332Q1390
2386 1382 2419Z" />
<glyph unicode="&#xc3;" glyph-name="Atilde" horiz-adv-x="1632" d="M1872 224Q1851 202 1819 174T1746 118T1658 62T1562 14T1464 -19T1368 -32Q1336 -32 1304 -21T1245 19T1201 101T1184 236Q1184 271 1189 311T1202 399Q1146 286 1076 200T926 55T761 -34T591
-64Q498 -64 415 -32T267 65T166 226T128 450Q128 547 150 653T216 867T320 1081T459 1282T629 1459T827 1600T1048 1694T1289 1728Q1323 1728 1343 1723T1374 1709T1388 1691T1391 1675Q1391 1670 1391 1666T1390 1660V1655Q1417 1639 1445 1636T1500 1630T1551
1619T1593 1588T1621 1519T1632 1397Q1632 1337 1621 1262T1590 1105T1548 939T1501 776T1455 627T1418 505Q1415 461 1413 423T1411 344Q1411 312 1412 292T1418 259T1429 243T1447 238Q1467 238 1497 248T1562 275T1634 312T1706 353T1771 391T1821 419L1872
224ZM1399 1517Q1364 1527 1327 1531T1254 1536Q1173 1536 1094 1505T941 1421T799 1295T673 1139T567 965T486 786T434 612T416 456Q416 315 472 238T648 160Q722 160 788 191T912 272T1016 386T1099 515T1158 640T1191 745L1399 1517ZM1541 2145Q1553 2158 1565
2175Q1576 2189 1588 2207T1614 2245Q1634 2277 1663 2292T1722 2308Q1756 2308 1780 2289T1805 2235Q1805 2210 1791 2182Q1779 2159 1760 2124T1713 2055T1646 1997T1559 1973Q1528 1973 1503 1981T1444 2012T1364 2072T1241 2169Q1229 2154 1217 2138Q1206 2124
1193 2107T1168 2069Q1148 2037 1119 2022T1060 2006Q1026 2006 1002 2025T977 2079Q977 2104 991 2132Q1003 2155 1022 2190T1069 2259T1136 2317T1223 2341Q1254 2341 1279 2333T1338 2302T1418 2242T1541 2145Z" />
<glyph unicode="&#xc4;" glyph-name="Adieresis" horiz-adv-x="1632" d="M1872 224Q1851 202 1819 174T1746 118T1658 62T1562 14T1464 -19T1368 -32Q1336 -32 1304 -21T1245 19T1201 101T1184 236Q1184 271 1189 311T1202 399Q1146 286 1076 200T926 55T761 -34T591
-64Q498 -64 415 -32T267 65T166 226T128 450Q128 547 150 653T216 867T320 1081T459 1282T629 1459T827 1600T1048 1694T1289 1728Q1323 1728 1343 1723T1374 1709T1388 1691T1391 1675Q1391 1670 1391 1666T1390 1660V1655Q1417 1639 1445 1636T1500 1630T1551
1619T1593 1588T1621 1519T1632 1397Q1632 1337 1621 1262T1590 1105T1548 939T1501 776T1455 627T1418 505Q1415 461 1413 423T1411 344Q1411 312 1412 292T1418 259T1429 243T1447 238Q1467 238 1497 248T1562 275T1634 312T1706 353T1771 391T1821 419L1872
224ZM1399 1517Q1364 1527 1327 1531T1254 1536Q1173 1536 1094 1505T941 1421T799 1295T673 1139T567 965T486 786T434 612T416 456Q416 315 472 238T648 160Q722 160 788 191T912 272T1016 386T1099 515T1158 640T1191 745L1399 1517ZM1745 2150Q1745 2146 1744
2132T1739 2098T1724 2057T1696 2018T1651 1988T1583 1976Q1521 1976 1482 2010T1442 2124Q1442 2157 1451 2188T1479 2244T1528 2283T1600 2298Q1671 2298 1708 2260T1745 2150ZM1278 2150Q1278 2146 1277 2132T1271 2098T1256 2057T1228 2018T1183 1988T1116
1976Q1052 1976 1014 2010T975 2124Q975 2157 984 2188T1012 2244T1061 2283T1133 2298Q1203 2298 1240 2260T1278 2150Z" />
<glyph unicode="&#xc5;" glyph-name="Aring" horiz-adv-x="1632" d="M1872 224Q1851 202 1819 174T1746 118T1658 62T1562 14T1464 -19T1368 -32Q1336 -32 1304 -21T1245 19T1201 101T1184 236Q1184 271 1189 311T1202 399Q1146 286 1076 200T926 55T761 -34T591
-64Q498 -64 415 -32T267 65T166 226T128 450Q128 547 150 653T216 867T320 1081T459 1282T629 1459T827 1600T1048 1694T1289 1728Q1323 1728 1343 1723T1374 1709T1388 1691T1391 1675Q1391 1670 1391 1666T1390 1660V1655Q1417 1639 1445 1636T1500 1630T1551
1619T1593 1588T1621 1519T1632 1397Q1632 1337 1621 1262T1590 1105T1548 939T1501 776T1455 627T1418 505Q1415 461 1413 423T1411 344Q1411 312 1412 292T1418 259T1429 243T1447 238Q1467 238 1497 248T1562 275T1634 312T1706 353T1771 391T1821 419L1872
224ZM1399 1517Q1364 1527 1327 1531T1254 1536Q1173 1536 1094 1505T941 1421T799 1295T673 1139T567 965T486 786T434 612T416 456Q416 315 472 238T648 160Q722 160 788 191T912 272T1016 386T1099 515T1158 640T1191 745L1399 1517ZM1143 2230Q1143 2276 1158
2315T1199 2385T1258 2441T1329 2481T1405 2506T1479 2514Q1516 2514 1553 2502T1620 2463T1667 2398T1686 2307Q1686 2227 1657 2168T1583 2070T1483 2012T1375 1993Q1338 1993 1297 2005T1222 2044T1166 2117T1143 2230ZM1454 2385Q1409 2385 1376 2371T1322
2334T1289 2284T1278 2229Q1278 2209 1284 2191T1302 2158T1333 2136T1375 2127Q1414 2127 1445 2142T1497 2182T1529 2236T1541 2294Q1541 2332 1520 2358T1454 2385Z" />
<glyph unicode="&#xc6;" glyph-name="AE" horiz-adv-x="2304" d="M2568 250Q2487 164 2386 100T2174 -8T1949 -74T1728 -96Q1623 -96 1529 -70T1365 10T1254 143T1213 329Q1213 355 1216 384Q1160 291 1084 210T924 67T754 -29T591 -64Q498 -64 415 -32T267 65T166
226T128 450Q128 581 171 719T293 986T482 1231T727 1432T1015 1568T1336 1618Q1368 1618 1402 1611T1465 1588T1512 1547T1531 1486Q1531 1473 1528 1458Q1567 1525 1611 1571T1703 1644T1803 1684T1909 1696Q1982 1696 2058 1679T2211 1636T2362 1582T2507 1534Q2523
1524 2529 1507T2536 1469Q2536 1446 2529 1422T2510 1377T2483 1344T2451 1331Q2439 1331 2432 1336Q2398 1361 2340 1390T2213 1445T2068 1487T1925 1504Q1849 1504 1791 1471T1689 1385T1616 1268T1569 1144T1544 1034T1536 960Q1636 969 1728 976Q1767 979
1808 982T1887 987T1958 990T2016 992Q2061 992 2083 966T2106 906Q2106 887 2099 868T2076 834T2038 810T1984 800Q1975 800 1940 798T1855 792T1749 784T1642 777T1553 771T1504 768Q1486 718 1473 658Q1462 607 1453 538T1443 390Q1443 315 1464 265T1523 185T1612
141T1722 128Q1793 128 1871 142T2026 180T2177 238T2314 310T2425 391T2499 477L2568 250ZM1400 1426Q1296 1426 1183 1390T960 1289T752 1133T579 936T460 706T416 456Q416 315 472 238T648 160Q722 160 792 202T924 312T1039 463T1135 629T1206 782T1248 896L1400
1426Z" />
<glyph unicode="&#xc7;" glyph-name="Ccedilla" horiz-adv-x="1440" d="M1766 338Q1717 317 1671 283T1578 207T1481 121T1372 31T1244 -54T1092 -125T908 -174T685 -192Q550 -192 442 -138T256 9T138 224T96 482Q96 574 116 679T173 894T265 1113T387 1322T538
1507T713 1656T909 1756T1123 1792Q1195 1792 1269 1767T1402 1688T1498 1554T1536 1363Q1536 1289 1513 1214T1448 1069T1352 938T1232 833T1099 762T961 736Q870 736 825 760T780 831Q780 839 780 850T779 873Q779 891 781 910T789 946T806 972T838 982Q850 982
859 979T879 971T905 964T945 960Q1009 960 1074 988T1192 1067T1278 1188T1312 1344Q1312 1389 1300 1429T1261 1500T1192 1549T1088 1568Q1016 1568 948 1537T816 1451T697 1323T592 1165T506 989T440 806T399 630T384 472Q384 369 409 293T482 165T597 89T750
64Q856 64 947 90T1122 160T1282 257T1437 365T1595 469T1766 553V338ZM782 -198Q772 -301 766 -363T756 -461T750 -513T745 -539T741 -562T734 -604Q729 -641 713 -669T674 -716T624 -745T571 -755Q549 -755 529 -748T494 -726T469 -689T460 -636Q460 -594 477
-549T523 -450T591 -335T674 -198Q682 -178 700 -163T738 -148Q757 -148 770 -156T784 -183Q784 -188 782 -198Z" />
<glyph unicode="&#xc8;" glyph-name="Egrave" horiz-adv-x="1248" d="M1477 250Q1396 164 1295 100T1083 -8T858 -74T637 -96Q519 -96 415 -69T233 15T110 158T64 364Q64 465 100 558T213 723T409 839T696 887Q586 887 504 918T368 1003T287 1128T260 1280Q260
1355 286 1417T357 1528T465 1615T599 1676T751 1713T912 1726Q1029 1726 1141 1701T1340 1624T1480 1497T1533 1318Q1533 1282 1509 1247T1450 1185T1379 1141T1316 1124Q1295 1124 1295 1161Q1295 1194 1305 1246T1341 1376Q1314 1398 1262 1420T1145 1460T1005
1489T859 1501Q792 1501 731 1489T624 1450T550 1377T522 1266Q522 1212 541 1175T593 1112T668 1070T755 1040T843 1015T923 988T985 950T1018 895Q1020 874 1022 853T1024 811Q1024 755 1003 730T921 704Q895 704 857 707T783 710Q703 710 626 690T488 629T390
529T352 390Q352 315 373 265T432 185T521 141T631 128Q702 128 780 142T935 180T1086 238T1223 310T1334 391T1408 477L1477 250ZM1113 2050Q1118 2037 1120 2025T1123 2002Q1123 1972 1106 1954T1065 1935Q1048 1935 1031 1943T997 1972Q984 1987 964 2012T919
2067T867 2132T813 2200T762 2266T718 2324Q681 2376 681 2421Q681 2451 694 2476T727 2519T774 2547T826 2557Q855 2557 881 2542T921 2493Q967 2389 1006 2299Q1022 2261 1039 2222T1070 2150T1096 2090T1113 2050Z" />
<glyph unicode="&#xc9;" glyph-name="Eacute" horiz-adv-x="1248" d="M1477 250Q1396 164 1295 100T1083 -8T858 -74T637 -96Q519 -96 415 -69T233 15T110 158T64 364Q64 465 100 558T213 723T409 839T696 887Q586 887 504 918T368 1003T287 1128T260 1280Q260
1355 286 1417T357 1528T465 1615T599 1676T751 1713T912 1726Q1029 1726 1141 1701T1340 1624T1480 1497T1533 1318Q1533 1282 1509 1247T1450 1185T1379 1141T1316 1124Q1295 1124 1295 1161Q1295 1194 1305 1246T1341 1376Q1314 1398 1262 1420T1145 1460T1005
1489T859 1501Q792 1501 731 1489T624 1450T550 1377T522 1266Q522 1212 541 1175T593 1112T668 1070T755 1040T843 1015T923 988T985 950T1018 895Q1020 874 1022 853T1024 811Q1024 755 1003 730T921 704Q895 704 857 707T783 710Q703 710 626 690T488 629T390
529T352 390Q352 315 373 265T432 185T521 141T631 128Q702 128 780 142T935 180T1086 238T1223 310T1334 391T1408 477L1477 250ZM946 2040Q952 2053 963 2079T988 2139T1019 2212T1053 2289Q1092 2379 1138 2483Q1151 2517 1177 2532T1233 2547Q1259 2547 1285
2537T1331 2509T1365 2466T1378 2411Q1378 2364 1341 2314Q1322 2288 1298 2257T1247 2191T1193 2122T1140 2058T1095 2002T1062 1962Q1045 1942 1028 1934T994 1925Q970 1925 953 1943T936 1992Q936 2003 938 2015T946 2040Z" />
<glyph unicode="&#xca;" glyph-name="Ecircumflex" horiz-adv-x="1248" d="M1477 250Q1396 164 1295 100T1083 -8T858 -74T637 -96Q519 -96 415 -69T233 15T110 158T64 364Q64 465 100 558T213 723T409 839T696 887Q586 887 504 918T368 1003T287 1128T260 1280Q260
1355 286 1417T357 1528T465 1615T599 1676T751 1713T912 1726Q1029 1726 1141 1701T1340 1624T1480 1497T1533 1318Q1533 1282 1509 1247T1450 1185T1379 1141T1316 1124Q1295 1124 1295 1161Q1295 1194 1305 1246T1341 1376Q1314 1398 1262 1420T1145 1460T1005
1489T859 1501Q792 1501 731 1489T624 1450T550 1377T522 1266Q522 1212 541 1175T593 1112T668 1070T755 1040T843 1015T923 988T985 950T1018 895Q1020 874 1022 853T1024 811Q1024 755 1003 730T921 704Q895 704 857 707T783 710Q703 710 626 690T488 629T390
529T352 390Q352 315 373 265T432 185T521 141T631 128Q702 128 780 142T935 180T1086 238T1223 310T1334 391T1408 477L1477 250ZM1043 2429Q1012 2348 984 2275Q972 2244 960 2212T936 2149T914 2093T896 2049Q878 2002 859 1976T819 1938T777 1924T735 1921Q724
1921 712 1927T690 1946T673 1974T666 2012Q666 2031 674 2050L838 2379Q865 2431 886 2471T931 2538T984 2579T1059 2593Q1103 2593 1133 2577T1184 2528T1220 2450T1251 2343Q1262 2309 1269 2288T1281 2251T1290 2221T1301 2187T1316 2139T1339 2065Q1344 2047
1344 2030Q1344 1983 1315 1950T1229 1917Q1210 1917 1193 1923T1160 1944T1134 1984T1116 2049Q1099 2152 1085 2224T1062 2342Q1051 2396 1043 2429Z" />
<glyph unicode="&#xcb;" glyph-name="Edieresis" horiz-adv-x="1248" d="M1477 250Q1396 164 1295 100T1083 -8T858 -74T637 -96Q519 -96 415 -69T233 15T110 158T64 364Q64 465 100 558T213 723T409 839T696 887Q586 887 504 918T368 1003T287 1128T260 1280Q260
1355 286 1417T357 1528T465 1615T599 1676T751 1713T912 1726Q1029 1726 1141 1701T1340 1624T1480 1497T1533 1318Q1533 1282 1509 1247T1450 1185T1379 1141T1316 1124Q1295 1124 1295 1161Q1295 1194 1305 1246T1341 1376Q1314 1398 1262 1420T1145 1460T1005
1489T859 1501Q792 1501 731 1489T624 1450T550 1377T522 1266Q522 1212 541 1175T593 1112T668 1070T755 1040T843 1015T923 988T985 950T1018 895Q1020 874 1022 853T1024 811Q1024 755 1003 730T921 704Q895 704 857 707T783 710Q703 710 626 690T488 629T390
529T352 390Q352 315 373 265T432 185T521 141T631 128Q702 128 780 142T935 180T1086 238T1223 310T1334 391T1408 477L1477 250ZM1380 2121Q1380 2117 1379 2103T1374 2069T1359 2028T1331 1989T1286 1959T1218 1947Q1156 1947 1117 1981T1077 2095Q1077 2128
1086 2159T1114 2215T1163 2254T1235 2269Q1306 2269 1343 2231T1380 2121ZM913 2121Q913 2117 912 2103T906 2069T891 2028T863 1989T818 1959T751 1947Q687 1947 649 1981T610 2095Q610 2128 619 2159T647 2215T696 2254T768 2269Q838 2269 875 2231T913 2121Z"
/>
<glyph unicode="&#xcc;" glyph-name="Igrave" horiz-adv-x="1248" d="M660 1404Q656 1402 656 1402Q653 1402 651 1437T648 1533Q648 1545 659 1564T696 1606T764 1650T871 1690T1023 1719T1226 1730Q1325 1730 1380 1721T1464 1696T1498 1660T1505 1618Q1505
1596 1500 1575T1474 1538T1411 1511T1296 1501Q1263 1501 1230 1504Q1202 1395 1181 1309T1143 1151T1112 1014T1084 885T1053 749T1017 592T969 400T905 157Q911 157 932 155T982 148T1041 135T1099 115T1142 87T1159 50Q1159 8 1087 -32Q1066 -32 1020 -32T910
-32T774 -32T628 -32T487 -33T366 -32T283 -30T251 -27Q251 -24 260 -18T282 0T305 29T319 71Q321 88 353 103T430 131T525 152T615 163Q646 294 677 425T739 681T799 924T857 1145T911 1334T960 1484Q923 1480 895 1476T845 1467T804 1456T763 1443T718 1426T660
1404ZM1264 2009Q1269 1996 1271 1984T1274 1961Q1274 1931 1257 1913T1216 1894Q1199 1894 1182 1902T1148 1931Q1135 1946 1115 1971T1070 2026T1018 2091T964 2159T913 2225T869 2283Q832 2335 832 2380Q832 2410 845 2435T878 2478T925 2506T977 2516Q1006
2516 1032 2501T1072 2452Q1118 2348 1157 2258Q1173 2220 1190 2181T1221 2109T1247 2049T1264 2009Z" />
<glyph unicode="&#xcd;" glyph-name="Iacute" horiz-adv-x="1248" d="M660 1404Q656 1402 656 1402Q653 1402 651 1437T648 1533Q648 1545 659 1564T696 1606T764 1650T871 1690T1023 1719T1226 1730Q1325 1730 1380 1721T1464 1696T1498 1660T1505 1618Q1505
1596 1500 1575T1474 1538T1411 1511T1296 1501Q1263 1501 1230 1504Q1202 1395 1181 1309T1143 1151T1112 1014T1084 885T1053 749T1017 592T969 400T905 157Q911 157 932 155T982 148T1041 135T1099 115T1142 87T1159 50Q1159 8 1087 -32Q1066 -32 1020 -32T910
-32T774 -32T628 -32T487 -33T366 -32T283 -30T251 -27Q251 -24 260 -18T282 0T305 29T319 71Q321 88 353 103T430 131T525 152T615 163Q646 294 677 425T739 681T799 924T857 1145T911 1334T960 1484Q923 1480 895 1476T845 1467T804 1456T763 1443T718 1426T660
1404ZM1048 2031Q1054 2044 1065 2070T1090 2130T1121 2203T1155 2280Q1194 2370 1240 2474Q1253 2508 1279 2523T1335 2538Q1361 2538 1387 2528T1433 2500T1467 2457T1480 2402Q1480 2355 1443 2305Q1424 2279 1400 2248T1349 2182T1295 2113T1242 2049T1197
1993T1164 1953Q1147 1933 1130 1925T1096 1916Q1072 1916 1055 1934T1038 1983Q1038 1994 1040 2006T1048 2031Z" />
<glyph unicode="&#xce;" glyph-name="Icircumflex" horiz-adv-x="1248" d="M660 1404Q656 1402 656 1402Q653 1402 651 1437T648 1533Q648 1545 659 1564T696 1606T764 1650T871 1690T1023 1719T1226 1730Q1325 1730 1380 1721T1464 1696T1498 1660T1505 1618Q1505
1596 1500 1575T1474 1538T1411 1511T1296 1501Q1263 1501 1230 1504Q1202 1395 1181 1309T1143 1151T1112 1014T1084 885T1053 749T1017 592T969 400T905 157Q911 157 932 155T982 148T1041 135T1099 115T1142 87T1159 50Q1159 8 1087 -32Q1066 -32 1020 -32T910
-32T774 -32T628 -32T487 -33T366 -32T283 -30T251 -27Q251 -24 260 -18T282 0T305 29T319 71Q321 88 353 103T430 131T525 152T615 163Q646 294 677 425T739 681T799 924T857 1145T911 1334T960 1484Q923 1480 895 1476T845 1467T804 1456T763 1443T718 1426T660
1404ZM1149 2420Q1118 2339 1090 2266Q1078 2235 1066 2203T1042 2140T1020 2084T1002 2040Q984 1993 965 1967T925 1929T883 1915T841 1912Q830 1912 818 1918T796 1937T779 1965T772 2003Q772 2022 780 2041L944 2370Q971 2422 992 2462T1037 2529T1090 2570T1165
2584Q1209 2584 1239 2568T1290 2519T1326 2441T1357 2334Q1368 2300 1375 2279T1387 2242T1396 2212T1407 2178T1422 2130T1445 2056Q1450 2038 1450 2021Q1450 1974 1421 1941T1335 1908Q1316 1908 1299 1914T1266 1935T1240 1975T1222 2040Q1205 2143 1191 2215T1168
2333Q1157 2387 1149 2420Z" />
<glyph unicode="&#xcf;" glyph-name="Idieresis" horiz-adv-x="1248" d="M660 1404Q656 1402 656 1402Q653 1402 651 1437T648 1533Q648 1545 659 1564T696 1606T764 1650T871 1690T1023 1719T1226 1730Q1325 1730 1380 1721T1464 1696T1498 1660T1505 1618Q1505
1596 1500 1575T1474 1538T1411 1511T1296 1501Q1263 1501 1230 1504Q1202 1395 1181 1309T1143 1151T1112 1014T1084 885T1053 749T1017 592T969 400T905 157Q911 157 932 155T982 148T1041 135T1099 115T1142 87T1159 50Q1159 8 1087 -32Q1066 -32 1020 -32T910
-32T774 -32T628 -32T487 -33T366 -32T283 -30T251 -27Q251 -24 260 -18T282 0T305 29T319 71Q321 88 353 103T430 131T525 152T615 163Q646 294 677 425T739 681T799 924T857 1145T911 1334T960 1484Q923 1480 895 1476T845 1467T804 1456T763 1443T718 1426T660
1404ZM1505 2106Q1505 2102 1504 2088T1499 2054T1484 2013T1456 1974T1411 1944T1343 1932Q1281 1932 1242 1966T1202 2080Q1202 2113 1211 2144T1239 2200T1288 2239T1360 2254Q1431 2254 1468 2216T1505 2106ZM1038 2106Q1038 2102 1037 2088T1031 2054T1016
2013T988 1974T943 1944T876 1932Q812 1932 774 1966T735 2080Q735 2113 744 2144T772 2200T821 2239T893 2254Q963 2254 1000 2216T1038 2106Z" />
<glyph unicode="&#xd0;" glyph-name="Eth" horiz-adv-x="1272" d="M219 992Q256 1129 303 1252T406 1473T527 1633T667 1713Q686 1716 709 1720Q729 1723 755 1725T811 1728Q915 1728 999 1702T1150 1628T1265 1516T1345 1373T1392 1208T1408 1028Q1408 902 1380
773T1299 522T1169 295T991 110T771 -14T512 -60Q465 -60 416 -53T321 -34T234 -7T162 24Q149 28 137 33T116 46T102 65T96 93Q96 170 101 255T116 431T140 614T174 800H119Q92 800 75 808T49 830T36 859T32 890Q32 902 34 919T46 952T78 980T138 992H219ZM480
128Q583 128 675 170T846 283T986 449T1093 648T1160 861T1184 1069Q1184 1171 1155 1252T1078 1389T968 1474T839 1504Q778 1504 727 1462T633 1350T556 1187T494 992H746Q759 992 774 990T802 980T824 959T833 926Q833 906 828 884T807 843T765 812T694 800H450Q433
713 421 630T400 476T388 348T384 258Q384 221 386 196T398 156T427 135T480 128Z" />
<glyph unicode="&#xd1;" glyph-name="Ntilde" horiz-adv-x="1623" d="M458 761Q527 965 594 1116T725 1375T850 1551T968 1659T1079 1713T1183 1728Q1241 1728 1282 1700T1349 1628T1388 1531T1400 1427Q1400 1367 1391 1294T1367 1138T1336 969T1305 795T1282
625T1272 467Q1272 443 1273 414T1280 354T1294 294T1320 242T1361 205T1420 191Q1468 191 1521 215T1626 275T1724 354T1806 433T1862 494T1883 520L1943 303Q1911 260 1870 218T1782 137T1683 67T1575 10T1465 -27T1355 -41Q1285 -41 1232 -17T1141 48T1076 143T1035
259T1013 383T1006 505Q1006 583 1018 658T1049 805T1089 947T1129 1081T1159 1208T1172 1327Q1172 1342 1170 1367T1162 1415T1141 1455T1103 1472Q1063 1472 1021 1435T934 1331T844 1175T755 980T667 760T583 528T504 298T433 85Q405 31 369 9T287 -14Q261 -14
237 -3T193 29T163 82T152 154Q152 196 156 230T168 299Q193 413 214 510T254 695T286 865T313 1031T334 1203T350 1391Q350 1400 350 1414T347 1440T337 1462T314 1471Q294 1471 266 1452T207 1400T145 1321T87 1224Q81 1209 68 1203T39 1196Q26 1196 12 1204T-14
1225T-34 1250T-42 1275Q-42 1281 -38 1285Q-5 1398 37 1476T127 1603T224 1674T320 1696Q391 1696 439 1675T518 1615T561 1522T574 1402Q574 1336 563 1260T533 1103T490 936T441 767L458 761ZM1031 2078Q1043 2091 1055 2108Q1066 2122 1078 2140T1104 2178Q1124
2210 1153 2225T1212 2241Q1246 2241 1270 2222T1295 2168Q1295 2143 1281 2115Q1269 2092 1250 2057T1203 1988T1136 1930T1049 1906Q1018 1906 993 1914T934 1945T854 2005T731 2102Q719 2087 707 2071Q696 2057 683 2040T658 2002Q638 1970 609 1955T550 1939Q516
1939 492 1958T467 2012Q467 2037 481 2065Q493 2088 512 2123T559 2192T626 2250T713 2274Q744 2274 769 2266T828 2235T908 2175T1031 2078Z" />
<glyph unicode="&#xd2;" glyph-name="Ograve" horiz-adv-x="1632" d="M742 -192Q593 -192 474 -131T270 39T141 300T96 633Q96 729 110 830T152 1031T223 1228T322 1411T449 1569T603 1694T785 1776T995 1806Q1145 1806 1263 1752T1463 1601T1588 1370T1632 1073Q1632
939 1606 794T1528 508T1401 240T1226 17T1006 -135T742 -192ZM766 52Q846 52 915 83T1041 168T1146 294T1231 450T1295 622T1341 798T1367 965T1376 1112Q1376 1208 1355 1292T1292 1439T1185 1538T1034 1574Q942 1574 856 1530T694 1410T555 1235T447 1025T377
801T352 583Q352 470 380 373T462 204T592 93T766 52ZM1171 2095Q1176 2082 1178 2070T1181 2047Q1181 2017 1164 1999T1123 1980Q1106 1980 1089 1988T1055 2017Q1042 2032 1022 2057T977 2112T925 2177T871 2245T820 2311T776 2369Q739 2421 739 2466Q739 2496
752 2521T785 2564T832 2592T884 2602Q913 2602 939 2587T979 2538Q1025 2434 1064 2344Q1080 2306 1097 2267T1128 2195T1154 2135T1171 2095Z" />
<glyph unicode="&#xd3;" glyph-name="Oacute" horiz-adv-x="1512" d="M742 -192Q593 -192 474 -131T270 39T141 300T96 633Q96 729 110 830T152 1031T223 1228T322 1411T449 1569T603 1694T785 1776T995 1806Q1145 1806 1263 1752T1463 1601T1588 1370T1632 1073Q1632
939 1606 794T1528 508T1401 240T1226 17T1006 -135T742 -192ZM766 52Q846 52 915 83T1041 168T1146 294T1231 450T1295 622T1341 798T1367 965T1376 1112Q1376 1208 1355 1292T1292 1439T1185 1538T1034 1574Q942 1574 856 1530T694 1410T555 1235T447 1025T377
801T352 583Q352 470 380 373T462 204T592 93T766 52ZM1069 2096Q1075 2109 1086 2135T1111 2195T1142 2268T1176 2345Q1215 2435 1261 2539Q1274 2573 1300 2588T1356 2603Q1382 2603 1408 2593T1454 2565T1488 2522T1501 2467Q1501 2420 1464 2370Q1445 2344
1421 2313T1370 2247T1316 2178T1263 2114T1218 2058T1185 2018Q1168 1998 1151 1990T1117 1981Q1093 1981 1076 1999T1059 2048Q1059 2059 1061 2071T1069 2096Z" />
<glyph unicode="&#xd4;" glyph-name="Ocircumflex" horiz-adv-x="1512" d="M742 -192Q593 -192 474 -131T270 39T141 300T96 633Q96 729 110 830T152 1031T223 1228T322 1411T449 1569T603 1694T785 1776T995 1806Q1145 1806 1263 1752T1463 1601T1588 1370T1632
1073Q1632 939 1606 794T1528 508T1401 240T1226 17T1006 -135T742 -192ZM766 52Q846 52 915 83T1041 168T1146 294T1231 450T1295 622T1341 798T1367 965T1376 1112Q1376 1208 1355 1292T1292 1439T1185 1538T1034 1574Q942 1574 856 1530T694 1410T555 1235T447
1025T377 801T352 583Q352 470 380 373T462 204T592 93T766 52ZM1123 2504Q1092 2423 1064 2350Q1052 2319 1040 2287T1016 2224T994 2168T976 2124Q958 2077 939 2051T899 2013T857 1999T815 1996Q804 1996 792 2002T770 2021T753 2049T746 2087Q746 2106 754
2125L918 2454Q945 2506 966 2546T1011 2613T1064 2654T1139 2668Q1183 2668 1213 2652T1264 2603T1300 2525T1331 2418Q1342 2384 1349 2363T1361 2326T1370 2296T1381 2262T1396 2214T1419 2140Q1424 2122 1424 2105Q1424 2058 1395 2025T1309 1992Q1290 1992
1273 1998T1240 2019T1214 2059T1196 2124Q1179 2227 1165 2299T1142 2417Q1131 2471 1123 2504Z" />
<glyph unicode="&#xd5;" glyph-name="Otilde" horiz-adv-x="1512" d="M742 -192Q593 -192 474 -131T270 39T141 300T96 633Q96 729 110 830T152 1031T223 1228T322 1411T449 1569T603 1694T785 1776T995 1806Q1145 1806 1263 1752T1463 1601T1588 1370T1632 1073Q1632
939 1606 794T1528 508T1401 240T1226 17T1006 -135T742 -192ZM766 52Q846 52 915 83T1041 168T1146 294T1231 450T1295 622T1341 798T1367 965T1376 1112Q1376 1208 1355 1292T1292 1439T1185 1538T1034 1574Q942 1574 856 1530T694 1410T555 1235T447 1025T377
801T352 583Q352 470 380 373T462 204T592 93T766 52ZM1323 2162Q1335 2175 1347 2192Q1358 2206 1370 2224T1396 2262Q1416 2294 1445 2309T1504 2325Q1538 2325 1562 2306T1587 2252Q1587 2227 1573 2199Q1561 2176 1542 2141T1495 2072T1428 2014T1341 1990Q1310
1990 1285 1998T1226 2029T1146 2089T1023 2186Q1011 2171 999 2155Q988 2141 975 2124T950 2086Q930 2054 901 2039T842 2023Q808 2023 784 2042T759 2096Q759 2121 773 2149Q785 2172 804 2207T851 2276T918 2334T1005 2358Q1036 2358 1061 2350T1120 2319T1200
2259T1323 2162Z" />
<glyph unicode="&#xd6;" glyph-name="Odieresis" horiz-adv-x="1512" d="M742 -192Q593 -192 474 -131T270 39T141 300T96 633Q96 729 110 830T152 1031T223 1228T322 1411T449 1569T603 1694T785 1776T995 1806Q1145 1806 1263 1752T1463 1601T1588 1370T1632
1073Q1632 939 1606 794T1528 508T1401 240T1226 17T1006 -135T742 -192ZM766 52Q846 52 915 83T1041 168T1146 294T1231 450T1295 622T1341 798T1367 965T1376 1112Q1376 1208 1355 1292T1292 1439T1185 1538T1034 1574Q942 1574 856 1530T694 1410T555 1235T447
1025T377 801T352 583Q352 470 380 373T462 204T592 93T766 52ZM1539 2208Q1539 2204 1538 2190T1533 2156T1518 2115T1490 2076T1445 2046T1377 2034Q1315 2034 1276 2068T1236 2182Q1236 2215 1245 2246T1273 2302T1322 2341T1394 2356Q1465 2356 1502 2318T1539
2208ZM1072 2208Q1072 2204 1071 2190T1065 2156T1050 2115T1022 2076T977 2046T910 2034Q846 2034 808 2068T769 2182Q769 2215 778 2246T806 2302T855 2341T927 2356Q997 2356 1034 2318T1072 2208Z" />
<glyph unicode="&#xd7;" glyph-name="multiply" horiz-adv-x="1280" d="M691 386L534 218Q508 192 484 181T436 170Q400 170 376 194T352 254Q352 277 364 303T402 356L557 512L396 673Q376 693 368 715T359 759Q359 779 365 797T383 828T410 850T444 858Q481
858 518 822L691 638L858 824Q877 843 896 851T932 860Q951 860 966 852T993 830T1010 798T1017 761Q1017 738 1009 717T980 675L827 512L974 354Q1000 328 1012 302T1024 252Q1024 216 1000 192T940 168Q917 168 892 179T841 216L691 386Z" />
<glyph unicode="&#xd8;" glyph-name="Oslash" horiz-adv-x="1512" d="M742 -192Q725 -192 709 -191T676 -188L635 -328Q622 -365 609 -387T582 -421T557 -437T532 -441Q518 -441 505 -439T483 -427T468 -398T462 -344Q462 -311 470 -260T498 -142Q403 -100 329
-27T203 147T124 370T96 633Q96 766 121 908T197 1186T322 1443T497 1656T721 1802T995 1856Q1028 1856 1060 1853L1086 1945Q1095 1977 1109 2007T1143 2060T1186 2096T1238 2110Q1264 2110 1271 2092T1279 2044Q1279 2036 1279 2029T1278 2014Q1277 1999 1271
1969T1256 1908T1241 1849T1230 1813Q1326 1774 1401 1705T1527 1540T1605 1326T1632 1073Q1632 939 1606 794T1528 508T1401 240T1226 17T1006 -135T742 -192ZM766 32Q846 32 915 65T1041 155T1146 289T1231 453T1295 635T1341 821T1367 998T1376 1152Q1376 1233
1364 1307T1328 1442T1266 1551T1180 1626Q1154 1530 1123 1416T1057 1173T984 905T905 620T823 326T740 33Q746 32 752 32T766 32ZM563 91Q591 190 625 313T699 573T779 855T860 1142T937 1417T1007 1663Q918 1656 835 1604T680 1468T547 1278T443 1053T376 814T352
583Q352 500 366 426T407 288T473 175T563 91Z" />
<glyph unicode="&#xd9;" glyph-name="Ugrave" horiz-adv-x="1382" d="M1248 1568Q1251 1619 1267 1650T1307 1698T1362 1722T1423 1728Q1450 1728 1471 1722T1506 1701T1528 1659T1536 1593Q1536 1316 1503 1078T1410 646T1266 301T1081 48T862 -107T620 -160Q470
-160 369 -100T208 64T122 302T96 588Q96 707 111 829T151 1066T205 1285T266 1472Q285 1530 304 1562T343 1609T381 1628T420 1632Q458 1632 487 1629T537 1615T567 1587T577 1537V1529Q575 1517 574 1503T568 1472Q556 1435 536 1373T491 1230T442 1056T397 866T365
672T352 488Q352 398 367 321T417 186T510 97T651 64Q716 64 774 99T884 199T981 354T1065 552T1133 782T1187 1035T1225 1301T1248 1568ZM1020 1957Q1025 1944 1027 1932T1030 1909Q1030 1879 1013 1861T972 1842Q955 1842 938 1850T904 1879Q891 1894 871 1919T826
1974T774 2039T720 2107T669 2173T625 2231Q588 2283 588 2328Q588 2358 601 2383T634 2426T681 2454T733 2464Q762 2464 788 2449T828 2400Q874 2296 913 2206Q929 2168 946 2129T977 2057T1003 1997T1020 1957Z" />
<glyph unicode="&#xda;" glyph-name="Uacute" horiz-adv-x="1382" d="M1248 1568Q1251 1619 1267 1650T1307 1698T1362 1722T1423 1728Q1450 1728 1471 1722T1506 1701T1528 1659T1536 1593Q1536 1316 1503 1078T1410 646T1266 301T1081 48T862 -107T620 -160Q470
-160 369 -100T208 64T122 302T96 588Q96 707 111 829T151 1066T205 1285T266 1472Q285 1530 304 1562T343 1609T381 1628T420 1632Q458 1632 487 1629T537 1615T567 1587T577 1537V1529Q575 1517 574 1503T568 1472Q556 1435 536 1373T491 1230T442 1056T397 866T365
672T352 488Q352 398 367 321T417 186T510 97T651 64Q716 64 774 99T884 199T981 354T1065 552T1133 782T1187 1035T1225 1301T1248 1568ZM931 1957Q937 1970 948 1996T973 2056T1004 2129T1038 2206Q1077 2296 1123 2400Q1136 2434 1162 2449T1218 2464Q1244 2464
1270 2454T1316 2426T1350 2383T1363 2328Q1363 2281 1326 2231Q1307 2205 1283 2174T1232 2108T1178 2039T1125 1975T1080 1919T1047 1879Q1030 1859 1013 1851T979 1842Q955 1842 938 1860T921 1909Q921 1920 923 1932T931 1957Z" />
<glyph unicode="&#xdb;" glyph-name="Ucircumflex" horiz-adv-x="1382" d="M1248 1568Q1251 1619 1267 1650T1307 1698T1362 1722T1423 1728Q1450 1728 1471 1722T1506 1701T1528 1659T1536 1593Q1536 1316 1503 1078T1410 646T1266 301T1081 48T862 -107T620
-160Q470 -160 369 -100T208 64T122 302T96 588Q96 707 111 829T151 1066T205 1285T266 1472Q285 1530 304 1562T343 1609T381 1628T420 1632Q458 1632 487 1629T537 1615T567 1587T577 1537V1529Q575 1517 574 1503T568 1472Q556 1435 536 1373T491 1230T442 1056T397
866T365 672T352 488Q352 398 367 321T417 186T510 97T651 64Q716 64 774 99T884 199T981 354T1065 552T1133 782T1187 1035T1225 1301T1248 1568ZM988 2368Q957 2287 929 2214Q917 2183 905 2151T881 2088T859 2032T841 1988Q823 1941 804 1915T764 1877T722 1863T680
1860Q669 1860 657 1866T635 1885T618 1913T611 1951Q611 1970 619 1989L783 2318Q810 2370 831 2410T876 2477T929 2518T1004 2532Q1048 2532 1078 2516T1129 2467T1165 2389T1196 2282Q1207 2248 1214 2227T1226 2190T1235 2160T1246 2126T1261 2078T1284 2004Q1289
1986 1289 1969Q1289 1922 1260 1889T1174 1856Q1155 1856 1138 1862T1105 1883T1079 1923T1061 1988Q1044 2091 1030 2163T1007 2281Q996 2335 988 2368Z" />
<glyph unicode="&#xdc;" glyph-name="Udieresis" horiz-adv-x="1382" d="M1248 1568Q1251 1619 1267 1650T1307 1698T1362 1722T1423 1728Q1450 1728 1471 1722T1506 1701T1528 1659T1536 1593Q1536 1316 1503 1078T1410 646T1266 301T1081 48T862 -107T620 -160Q470
-160 369 -100T208 64T122 302T96 588Q96 707 111 829T151 1066T205 1285T266 1472Q285 1530 304 1562T343 1609T381 1628T420 1632Q458 1632 487 1629T537 1615T567 1587T577 1537V1529Q575 1517 574 1503T568 1472Q556 1435 536 1373T491 1230T442 1056T397 866T365
672T352 488Q352 398 367 321T417 186T510 97T651 64Q716 64 774 99T884 199T981 354T1065 552T1133 782T1187 1035T1225 1301T1248 1568ZM1348 2054Q1348 2050 1347 2036T1342 2002T1327 1961T1299 1922T1254 1892T1186 1880Q1124 1880 1085 1914T1045 2028Q1045
2061 1054 2092T1082 2148T1131 2187T1203 2202Q1274 2202 1311 2164T1348 2054ZM881 2054Q881 2050 880 2036T874 2002T859 1961T831 1922T786 1892T719 1880Q655 1880 617 1914T578 2028Q578 2061 587 2092T615 2148T664 2187T736 2202Q806 2202 843 2164T881
2054Z" />
<glyph unicode="&#xdd;" glyph-name="Yacute" horiz-adv-x="1344" d="M1126 506Q1044 394 978 311T858 167T758 68T670 6T588 -26T504 -35Q464 -35 423 -17T348 25T291 72T263 108Q257 116 252 131T247 162Q247 177 254 188T278 200Q284 200 293 197Q324 177 354
168T410 159Q485 159 545 185T653 254T739 349T807 457T860 560T904 645Q869 733 832 820T755 986T674 1134T589 1252T500 1331T410 1360Q386 1360 372 1354T349 1338T338 1315T335 1289Q335 1274 337 1259T339 1233Q339 1216 331 1212T311 1208Q291 1208 275 1232T248
1296T231 1387T225 1494Q225 1511 234 1529T262 1562T311 1586T383 1596Q497 1596 591 1539T767 1382T918 1149T1054 864Q1113 971 1167 1074T1268 1268T1350 1430T1411 1548Q1424 1572 1458 1587T1533 1602Q1554 1602 1574 1596T1609 1577T1635 1543T1645 1491Q1645
1449 1619 1388Q1596 1335 1555 1251T1457 1063T1331 842T1186 605L1126 506ZM1061 1833Q1067 1846 1078 1872T1103 1932T1134 2005T1168 2082Q1207 2172 1253 2276Q1266 2310 1292 2325T1348 2340Q1374 2340 1400 2330T1446 2302T1480 2259T1493 2204Q1493 2157
1456 2107Q1437 2081 1413 2050T1362 1984T1308 1915T1255 1851T1210 1795T1177 1755Q1160 1735 1143 1727T1109 1718Q1085 1718 1068 1736T1051 1785Q1051 1796 1053 1808T1061 1833Z" />
<glyph unicode="&#xde;" glyph-name="Thorn" horiz-adv-x="1216" d="M907 393Q879 186 845 43T757 -188T625 -316T430 -355Q367 -355 318 -318T231 -217T168 -71T125 102T102 284T94 457Q94 653 140 815T272 1096T478 1289T746 1383Q751 1428 753 1456T756 1489Q757
1521 762 1567T777 1666T805 1769T847 1862T908 1928T992 1954Q1007 1954 1022 1951T1050 1938T1071 1912T1080 1871Q1080 1864 1080 1862T1079 1855L1008 1515L993 1380Q1126 1362 1225 1311T1392 1188T1492 1028T1526 847Q1526 770 1488 697T1374 563T1181 457T907
393ZM362 483Q362 447 362 389T364 263T372 127T387 4T412 -86T452 -121Q491 -121 521 -90T575 -10T614 99T640 218T654 325T659 401Q610 422 583 437T541 467T524 497T520 535Q520 553 521 570T526 601T539 623T563 632Q573 632 581 628T603 617Q617 615 629 613T652
610Q663 608 672 608Q672 609 674 632T680 695T689 786T699 897T711 1019T723 1143Q627 1120 559 1058T447 906T383 708T362 483ZM1291 824Q1291 871 1276 921T1223 1016T1123 1094T968 1144L913 628Q1011 638 1082 657T1199 703T1268 760T1291 824Z" />
<glyph unicode="&#xdf;" glyph-name="germandbls" horiz-adv-x="1281" d="M332 -39Q332 -69 320 -91T287 -129T242 -151T191 -158Q167 -158 145 -152T106 -135T77 -107T64 -68Q66 77 73 226T95 519T137 800T205 1056T303 1275T436 1446T611 1558T834 1598Q946
1598 1031 1567T1175 1485T1263 1370T1293 1240Q1293 1169 1267 1100T1183 976T1037 885T824 846Q933 846 1015 814T1151 727T1233 602T1261 454Q1261 376 1225 296T1117 150T937 44T685 3Q628 3 567 16T442 52L468 234Q508 222 550 217T633 211Q711 211 783 226T912
275T1003 361T1037 489Q1037 550 1018 589T969 652T899 689T819 710T739 726T669 746T619 782T600 844Q600 876 602 898T615 934T646 954T703 961Q782 961 849 979T965 1033T1041 1118T1069 1232Q1069 1274 1051 1306T1002 1360T928 1393T836 1404Q746 1404 677
1370T556 1274T466 1131T404 953T364 754T342 547T332 344T330 159Q330 100 330 52T332 -39Z" />
<glyph unicode="&#xe0;" glyph-name="agrave" horiz-adv-x="928" d="M1174 245Q1151 213 1113 170T1026 88T923 22T813 -5Q747 -5 703 37T627 161Q603 133 568 104T492 52T405 13T315 -2Q267 -2 222 17T141 73T85 162T64 281Q64 356 85 435T143 589T230 732T341
849T467 928T603 958Q626 958 639 949T660 929T677 906T697 890Q709 885 721 884T747 882Q758 882 769 882T792 883Q807 883 820 880T843 867T858 839T864 790Q864 742 854 684T832 564T810 441T800 324Q800 277 808 251T845 224Q866 224 889 234T935 262T982 300T1027
345Q1076 399 1126 467L1174 245ZM320 324Q320 299 323 276T336 234T360 204T398 192Q435 192 465 224T517 301T552 394T570 474L631 768Q590 768 551 748T478 692T414 612T364 518T332 418T320 324ZM749 1263Q754 1250 756 1238T759 1215Q759 1185 742 1167T701
1148Q684 1148 667 1156T633 1185Q620 1200 600 1225T555 1280T503 1345T449 1413T398 1479T354 1537Q317 1589 317 1634Q317 1664 330 1689T363 1732T410 1760T462 1770Q491 1770 517 1755T557 1706Q603 1602 642 1512Q658 1474 675 1435T706 1363T732 1303T749
1263Z" />
<glyph unicode="&#xe1;" glyph-name="aacute" horiz-adv-x="928" d="M1174 245Q1151 213 1113 170T1026 88T923 22T813 -5Q747 -5 703 37T627 161Q603 133 568 104T492 52T405 13T315 -2Q267 -2 222 17T141 73T85 162T64 281Q64 356 85 435T143 589T230 732T341
849T467 928T603 958Q626 958 639 949T660 929T677 906T697 890Q709 885 721 884T747 882Q758 882 769 882T792 883Q807 883 820 880T843 867T858 839T864 790Q864 742 854 684T832 564T810 441T800 324Q800 277 808 251T845 224Q866 224 889 234T935 262T982 300T1027
345Q1076 399 1126 467L1174 245ZM320 324Q320 299 323 276T336 234T360 204T398 192Q435 192 465 224T517 301T552 394T570 474L631 768Q590 768 551 748T478 692T414 612T364 518T332 418T320 324ZM657 1211Q663 1224 674 1250T699 1310T730 1383T764 1460Q803
1550 849 1654Q862 1688 888 1703T944 1718Q970 1718 996 1708T1042 1680T1076 1637T1089 1582Q1089 1535 1052 1485Q1033 1459 1009 1428T958 1362T904 1293T851 1229T806 1173T773 1133Q756 1113 739 1105T705 1096Q681 1096 664 1114T647 1163Q647 1174 649
1186T657 1211Z" />
<glyph unicode="&#xe2;" glyph-name="acircumflex" horiz-adv-x="928" d="M1174 245Q1151 213 1113 170T1026 88T923 22T813 -5Q747 -5 703 37T627 161Q603 133 568 104T492 52T405 13T315 -2Q267 -2 222 17T141 73T85 162T64 281Q64 356 85 435T143 589T230 732T341
849T467 928T603 958Q626 958 639 949T660 929T677 906T697 890Q709 885 721 884T747 882Q758 882 769 882T792 883Q807 883 820 880T843 867T858 839T864 790Q864 742 854 684T832 564T810 441T800 324Q800 277 808 251T845 224Q866 224 889 234T935 262T982 300T1027
345Q1076 399 1126 467L1174 245ZM320 324Q320 299 323 276T336 234T360 204T398 192Q435 192 465 224T517 301T552 394T570 474L631 768Q590 768 551 748T478 692T414 612T364 518T332 418T320 324ZM696 1585Q665 1504 637 1431Q625 1400 613 1368T589 1305T567
1249T549 1205Q531 1158 512 1132T472 1094T430 1080T388 1077Q377 1077 365 1083T343 1102T326 1130T319 1168Q319 1187 327 1206L491 1535Q518 1587 539 1627T584 1694T637 1735T712 1749Q756 1749 786 1733T837 1684T873 1606T904 1499Q915 1465 922 1444T934
1407T943 1377T954 1343T969 1295T992 1221Q997 1203 997 1186Q997 1139 968 1106T882 1073Q863 1073 846 1079T813 1100T787 1140T769 1205Q752 1308 738 1380T715 1498Q704 1552 696 1585Z" />
<glyph unicode="&#xe3;" glyph-name="atilde" horiz-adv-x="928" d="M1174 245Q1151 213 1113 170T1026 88T923 22T813 -5Q747 -5 703 37T627 161Q603 133 568 104T492 52T405 13T315 -2Q267 -2 222 17T141 73T85 162T64 281Q64 356 85 435T143 589T230 732T341
849T467 928T603 958Q626 958 639 949T660 929T677 906T697 890Q709 885 721 884T747 882Q758 882 769 882T792 883Q807 883 820 880T843 867T858 839T864 790Q864 742 854 684T832 564T810 441T800 324Q800 277 808 251T845 224Q866 224 889 234T935 262T982 300T1027
345Q1076 399 1126 467L1174 245ZM320 324Q320 299 323 276T336 234T360 204T398 192Q435 192 465 224T517 301T552 394T570 474L631 768Q590 768 551 748T478 692T414 612T364 518T332 418T320 324ZM821 1264Q833 1277 845 1294Q856 1308 868 1326T894 1364Q914
1396 943 1411T1002 1427Q1036 1427 1060 1408T1085 1354Q1085 1329 1071 1301Q1059 1278 1040 1243T993 1174T926 1116T839 1092Q808 1092 783 1100T724 1131T644 1191T521 1288Q509 1273 497 1257Q486 1243 473 1226T448 1188Q428 1156 399 1141T340 1125Q306
1125 282 1144T257 1198Q257 1223 271 1251Q283 1274 302 1309T349 1378T416 1436T503 1460Q534 1460 559 1452T618 1421T698 1361T821 1264Z" />
<glyph unicode="&#xe4;" glyph-name="adieresis" horiz-adv-x="928" d="M1174 245Q1151 213 1113 170T1026 88T923 22T813 -5Q747 -5 703 37T627 161Q603 133 568 104T492 52T405 13T315 -2Q267 -2 222 17T141 73T85 162T64 281Q64 356 85 435T143 589T230 732T341
849T467 928T603 958Q626 958 639 949T660 929T677 906T697 890Q709 885 721 884T747 882Q758 882 769 882T792 883Q807 883 820 880T843 867T858 839T864 790Q864 742 854 684T832 564T810 441T800 324Q800 277 808 251T845 224Q866 224 889 234T935 262T982 300T1027
345Q1076 399 1126 467L1174 245ZM320 324Q320 299 323 276T336 234T360 204T398 192Q435 192 465 224T517 301T552 394T570 474L631 768Q590 768 551 748T478 692T414 612T364 518T332 418T320 324ZM1082 1280Q1082 1276 1081 1262T1076 1228T1061 1187T1033 1148T988
1118T920 1106Q858 1106 819 1140T779 1254Q779 1287 788 1318T816 1374T865 1413T937 1428Q1008 1428 1045 1390T1082 1280ZM615 1280Q615 1276 614 1262T608 1228T593 1187T565 1148T520 1118T453 1106Q389 1106 351 1140T312 1254Q312 1287 321 1318T349 1374T398
1413T470 1428Q540 1428 577 1390T615 1280Z" />
<glyph unicode="&#xe5;" glyph-name="aring" horiz-adv-x="928" d="M1174 245Q1151 213 1113 170T1026 88T923 22T813 -5Q747 -5 703 37T627 161Q603 133 568 104T492 52T405 13T315 -2Q267 -2 222 17T141 73T85 162T64 281Q64 356 85 435T143 589T230 732T341
849T467 928T603 958Q626 958 639 949T660 929T677 906T697 890Q709 885 721 884T747 882Q758 882 769 882T792 883Q807 883 820 880T843 867T858 839T864 790Q864 742 854 684T832 564T810 441T800 324Q800 277 808 251T845 224Q866 224 889 234T935 262T982 300T1027
345Q1076 399 1126 467L1174 245ZM320 324Q320 299 323 276T336 234T360 204T398 192Q435 192 465 224T517 301T552 394T570 474L631 768Q590 768 551 748T478 692T414 612T364 518T332 418T320 324ZM446 1334Q446 1380 461 1419T502 1489T561 1545T632 1585T708
1610T782 1618Q819 1618 856 1606T923 1567T970 1502T989 1411Q989 1331 960 1272T886 1174T786 1116T678 1097Q641 1097 600 1109T525 1148T469 1221T446 1334ZM757 1489Q712 1489 679 1475T625 1438T592 1388T581 1333Q581 1313 587 1295T605 1262T636 1240T678
1231Q717 1231 748 1246T800 1286T832 1340T844 1398Q844 1436 823 1462T757 1489Z" />
<glyph unicode="&#xe6;" glyph-name="ae" horiz-adv-x="1715" d="M1174 245Q1151 213 1113 170T1026 88T923 22T813 -5Q747 -5 703 37T627 161Q603 133 568 104T492 52T405 13T315 -2Q267 -2 222 17T141 73T85 162T64 281Q64 356 85 435T143 589T230 732T341 849T467
928T603 958Q626 958 639 949T660 929T677 906T697 890Q709 885 721 884T747 882Q758 882 769 882T792 883Q807 883 820 880T843 867T858 839T864 790Q864 742 854 684T832 564T810 441T800 324Q800 277 808 251T845 224Q866 224 889 234T935 262T982 300T1027
345Q1076 399 1126 467L1174 245ZM320 324Q320 299 323 276T336 234T360 204T398 192Q435 192 465 224T517 301T552 394T570 474L631 768Q590 768 551 748T478 692T414 612T364 518T332 418T320 324ZM1394 0Q1300 0 1230 34T1112 125T1042 258T1018 417Q1018 473
1029 535T1062 658T1119 772T1198 868T1300 934T1426 959Q1482 959 1530 941T1613 891T1669 812T1689 709Q1689 647 1659 585T1574 468T1446 370T1284 303Q1299 276 1313 258T1343 230T1374 216T1410 212Q1470 212 1536 236T1666 296T1785 374T1880 455L2009 321Q1921
230 1822 160Q1779 130 1730 101T1626 50T1513 14T1394 0ZM1261 470Q1297 470 1339 488T1418 536T1480 599T1505 665Q1505 710 1489 739T1448 768Q1405 768 1375 752T1324 711T1291 653T1272 587T1263 523T1261 470Z" />
<glyph unicode="&#xe7;" glyph-name="ccedilla" horiz-adv-x="736" d="M437 0Q345 0 276 34T159 125T88 257T64 413Q64 471 76 534T111 657T169 773T249 869T351 935T474 960Q531 960 579 943T662 894T716 821T736 729Q736 695 727 662T701 603T658 560T602 544Q555
544 541 569T526 638Q526 656 527 676T529 712Q529 736 524 752T502 768Q461 768 432 749T383 698T350 627T331 548T322 474T320 414Q320 378 326 339T351 268T400 214T480 192Q528 192 586 221T702 296T814 395T905 497L974 381Q899 274 812 190Q775 154 732 120T641
60T542 17T437 0ZM541 46Q531 -57 525 -119T515 -217T509 -269T504 -295T500 -318T493 -360Q488 -397 472 -425T433 -472T383 -501T330 -511Q308 -511 288 -504T253 -482T228 -445T219 -392Q219 -350 236 -305T282 -206T350 -91T433 46Q441 66 459 81T497 96Q516
96 529 88T543 61Q543 56 541 46Z" />
<glyph unicode="&#xe8;" glyph-name="egrave" horiz-adv-x="787" d="M466 0Q372 0 302 34T184 125T114 258T90 417Q90 473 101 535T134 658T191 772T270 868T372 934T498 959Q554 959 602 941T685 891T741 812T761 709Q761 647 731 585T646 468T518 370T356 303Q371
276 385 258T415 230T446 216T482 212Q542 212 608 236T738 296T857 374T952 455L1081 321Q993 230 894 160Q851 130 802 101T698 50T585 14T466 0ZM333 470Q369 470 411 488T490 536T552 599T577 665Q577 710 561 739T520 768Q477 768 447 752T396 711T363 653T344
587T335 523T333 470ZM604 1203Q609 1190 611 1178T614 1155Q614 1125 597 1107T556 1088Q539 1088 522 1096T488 1125Q475 1140 455 1165T410 1220T358 1285T304 1353T253 1419T209 1477Q172 1529 172 1574Q172 1604 185 1629T218 1672T265 1700T317 1710Q346
1710 372 1695T412 1646Q458 1542 497 1452Q513 1414 530 1375T561 1303T587 1243T604 1203Z" />
<glyph unicode="&#xe9;" glyph-name="eacute" horiz-adv-x="787" d="M466 0Q372 0 302 34T184 125T114 258T90 417Q90 473 101 535T134 658T191 772T270 868T372 934T498 959Q554 959 602 941T685 891T741 812T761 709Q761 647 731 585T646 468T518 370T356 303Q371
276 385 258T415 230T446 216T482 212Q542 212 608 236T738 296T857 374T952 455L1081 321Q993 230 894 160Q851 130 802 101T698 50T585 14T466 0ZM333 470Q369 470 411 488T490 536T552 599T577 665Q577 710 561 739T520 768Q477 768 447 752T396 711T363 653T344
587T335 523T333 470ZM472 1236Q478 1249 489 1275T514 1335T545 1408T579 1485Q618 1575 664 1679Q677 1713 703 1728T759 1743Q785 1743 811 1733T857 1705T891 1662T904 1607Q904 1560 867 1510Q848 1484 824 1453T773 1387T719 1318T666 1254T621 1198T588
1158Q571 1138 554 1130T520 1121Q496 1121 479 1139T462 1188Q462 1199 464 1211T472 1236Z" />
<glyph unicode="&#xea;" glyph-name="ecircumflex" horiz-adv-x="787" d="M466 0Q372 0 302 34T184 125T114 258T90 417Q90 473 101 535T134 658T191 772T270 868T372 934T498 959Q554 959 602 941T685 891T741 812T761 709Q761 647 731 585T646 468T518 370T356
303Q371 276 385 258T415 230T446 216T482 212Q542 212 608 236T738 296T857 374T952 455L1081 321Q993 230 894 160Q851 130 802 101T698 50T585 14T466 0ZM333 470Q369 470 411 488T490 536T552 599T577 665Q577 710 561 739T520 768Q477 768 447 752T396 711T363
653T344 587T335 523T333 470ZM581 1620Q550 1539 522 1466Q510 1435 498 1403T474 1340T452 1284T434 1240Q416 1193 397 1167T357 1129T315 1115T273 1112Q262 1112 250 1118T228 1137T211 1165T204 1203Q204 1222 212 1241L376 1570Q403 1622 424 1662T469 1729T522
1770T597 1784Q641 1784 671 1768T722 1719T758 1641T789 1534Q800 1500 807 1479T819 1442T828 1412T839 1378T854 1330T877 1256Q882 1238 882 1221Q882 1174 853 1141T767 1108Q748 1108 731 1114T698 1135T672 1175T654 1240Q637 1343 623 1415T600 1533Q589
1587 581 1620Z" />
<glyph unicode="&#xeb;" glyph-name="edieresis" horiz-adv-x="787" d="M466 0Q372 0 302 34T184 125T114 258T90 417Q90 473 101 535T134 658T191 772T270 868T372 934T498 959Q554 959 602 941T685 891T741 812T761 709Q761 647 731 585T646 468T518 370T356
303Q371 276 385 258T415 230T446 216T482 212Q542 212 608 236T738 296T857 374T952 455L1081 321Q993 230 894 160Q851 130 802 101T698 50T585 14T466 0ZM333 470Q369 470 411 488T490 536T552 599T577 665Q577 710 561 739T520 768Q477 768 447 752T396 711T363
653T344 587T335 523T333 470ZM1153 1306Q1153 1302 1152 1288T1147 1254T1132 1213T1104 1174T1059 1144T991 1132Q929 1132 890 1166T850 1280Q850 1313 859 1344T887 1400T936 1439T1008 1454Q1079 1454 1116 1416T1153 1306ZM686 1306Q686 1302 685 1288T679
1254T664 1213T636 1174T591 1144T524 1132Q460 1132 422 1166T383 1280Q383 1313 392 1344T420 1400T469 1439T541 1454Q611 1454 648 1416T686 1306Z" />
<glyph unicode="&#xec;" glyph-name="igrave" horiz-adv-x="537" d="M736 213Q700 180 647 143T531 74T405 21T282 0Q230 0 195 14T137 55T106 118T96 201Q96 264 110 347T146 520T190 699T232 863Q239 889 260 907T307 937T362 954T414 960Q456 960 471 945T486
903Q486 881 476 840T451 746T419 633T387 512T362 394T352 290Q352 245 362 219T403 192Q439 192 483 217T572 277T660 351T736 416V213ZM500 1245Q505 1232 507 1220T510 1197Q510 1167 493 1149T452 1130Q435 1130 418 1138T384 1167Q371 1182 351 1207T306
1262T254 1327T200 1395T149 1461T105 1519Q68 1571 68 1616Q68 1646 81 1671T114 1714T161 1742T213 1752Q242 1752 268 1737T308 1688Q354 1584 393 1494Q409 1456 426 1417T457 1345T483 1285T500 1245Z" />
<glyph unicode="&#xed;" glyph-name="iacute" horiz-adv-x="537" d="M736 213Q700 180 647 143T531 74T405 21T282 0Q230 0 195 14T137 55T106 118T96 201Q96 264 110 347T146 520T190 699T232 863Q239 889 260 907T307 937T362 954T414 960Q456 960 471 945T486
903Q486 881 476 840T451 746T419 633T387 512T362 394T352 290Q352 245 362 219T403 192Q439 192 483 217T572 277T660 351T736 416V213ZM360 1231Q366 1244 377 1270T402 1330T433 1403T467 1480Q506 1570 552 1674Q565 1708 591 1723T647 1738Q673 1738 699
1728T745 1700T779 1657T792 1602Q792 1555 755 1505Q736 1479 712 1448T661 1382T607 1313T554 1249T509 1193T476 1153Q459 1133 442 1125T408 1116Q384 1116 367 1134T350 1183Q350 1194 352 1206T360 1231Z" />
<glyph unicode="&#xee;" glyph-name="icircumflex" horiz-adv-x="537" d="M736 213Q700 180 647 143T531 74T405 21T282 0Q230 0 195 14T137 55T106 118T96 201Q96 264 110 347T146 520T190 699T232 863Q239 889 260 907T307 937T362 954T414 960Q456 960 471
945T486 903Q486 881 476 840T451 746T419 633T387 512T362 394T352 290Q352 245 362 219T403 192Q439 192 483 217T572 277T660 351T736 416V213ZM705 1638Q674 1557 646 1484Q634 1453 622 1421T598 1358T576 1302T558 1258Q540 1211 521 1185T481 1147T439 1133T397
1130Q386 1130 374 1136T352 1155T335 1183T328 1221Q328 1240 336 1259L500 1588Q527 1640 548 1680T593 1747T646 1788T721 1802Q765 1802 795 1786T846 1737T882 1659T913 1552Q924 1518 931 1497T943 1460T952 1430T963 1396T978 1348T1001 1274Q1006 1256
1006 1239Q1006 1192 977 1159T891 1126Q872 1126 855 1132T822 1153T796 1193T778 1258Q761 1361 747 1433T724 1551Q713 1605 705 1638Z" />
<glyph unicode="&#xef;" glyph-name="idieresis" horiz-adv-x="537" d="M736 213Q700 180 647 143T531 74T405 21T282 0Q230 0 195 14T137 55T106 118T96 201Q96 264 110 347T146 520T190 699T232 863Q239 889 260 907T307 937T362 954T414 960Q456 960 471 945T486
903Q486 881 476 840T451 746T419 633T387 512T362 394T352 290Q352 245 362 219T403 192Q439 192 483 217T572 277T660 351T736 416V213ZM1033 1339Q1033 1335 1032 1321T1027 1287T1012 1246T984 1207T939 1177T871 1165Q809 1165 770 1199T730 1313Q730 1346
739 1377T767 1433T816 1472T888 1487Q959 1487 996 1449T1033 1339ZM566 1339Q566 1335 565 1321T559 1287T544 1246T516 1207T471 1177T404 1165Q340 1165 302 1199T263 1313Q263 1346 272 1377T300 1433T349 1472T421 1487Q491 1487 528 1449T566 1339Z" />
<glyph unicode="&#xf0;" glyph-name="eth" horiz-adv-x="1089" d="M426 1506Q410 1506 396 1515T370 1541T353 1577T346 1618Q346 1639 353 1658T378 1694T423 1719T491 1729Q570 1729 639 1712T769 1662T879 1585T971 1483L1136 1555Q1147 1560 1160 1563T1187
1567Q1200 1567 1214 1561T1240 1543T1259 1511T1267 1466Q1267 1440 1249 1414T1182 1366L1062 1314Q1094 1233 1110 1143T1126 958Q1126 827 1106 705T1047 476T955 282T832 132T682 35T510 0Q432 0 353 23T209 97T105 227T64 416Q64 483 88 551T153 684T251
804T372 901T506 967T645 991Q714 991 770 983T872 961V968Q872 1040 863 1101T837 1216Q792 1197 747 1177T653 1136Q630 1126 609 1126Q582 1126 564 1140T533 1172T516 1209T511 1236Q511 1256 525 1276T577 1313L743 1384Q685 1446 606 1476T426 1506ZM542
192Q595 192 642 240T729 365T799 537T847 729Q814 745 770 756T661 767Q597 767 531 739T412 663T324 551T290 416Q290 371 303 331T347 260T425 211T542 192Z" />
<glyph unicode="&#xf1;" glyph-name="ntilde" horiz-adv-x="927" d="M128 209Q128 275 136 361T156 537T183 710T212 852Q223 898 254 929T340 960Q394 960 415 927T436 839Q436 824 433 799T426 743T416 680T407 620T399 572T396 544H416Q422 555 435 579T465
636T501 703T538 771T569 829T590 866Q622 920 663 940T754 960Q804 960 833 918T863 802Q863 791 859 765T847 703T832 624T816 536T805 447T800 366Q800 304 815 264T864 224Q879 224 898 233T940 256T986 290T1033 329Q1086 376 1144 435L1161 211L1111 173Q1070
142 1028 111T939 56T843 16T738 0Q683 0 646 79T608 312Q608 372 616 441T636 591H620L358 71Q338 30 313 15T255 0Q214 0 189 17T151 64T133 131T128 209ZM748 1306Q760 1319 772 1336Q783 1350 795 1368T821 1406Q841 1438 870 1453T929 1469Q963 1469 987 1450T1012
1396Q1012 1371 998 1343Q986 1320 967 1285T920 1216T853 1158T766 1134Q735 1134 710 1142T651 1173T571 1233T448 1330Q436 1315 424 1299Q413 1285 400 1268T375 1230Q355 1198 326 1183T267 1167Q233 1167 209 1186T184 1240Q184 1265 198 1293Q210 1316 229
1351T276 1420T343 1478T430 1502Q461 1502 486 1494T545 1463T625 1403T748 1306Z" />
<glyph unicode="&#xf2;" glyph-name="ograve" horiz-adv-x="873" d="M742 749Q771 691 785 627T800 503Q800 444 787 384T750 268T690 163T609 78T509 21T394 0Q306 0 244 38T141 139T83 279T64 437Q64 547 97 642T191 808T342 919T542 960Q637 960 720 931T875
852T1010 738T1127 606L1108 465Q1081 501 1035 543T938 625T836 700T750 760L742 749ZM433 192Q467 192 499 226T555 313T593 429T608 551Q608 597 601 636T580 705T544 751T491 768Q450 768 413 733T348 644T304 523T288 396Q288 354 296 317T321 253T366 209T433
192ZM633 1259Q638 1246 640 1234T643 1211Q643 1181 626 1163T585 1144Q568 1144 551 1152T517 1181Q504 1196 484 1221T439 1276T387 1341T333 1409T282 1475T238 1533Q201 1585 201 1630Q201 1660 214 1685T247 1728T294 1756T346 1766Q375 1766 401 1751T441
1702Q487 1598 526 1508Q542 1470 559 1431T590 1359T616 1299T633 1259Z" />
<glyph unicode="&#xf3;" glyph-name="oacute" horiz-adv-x="873" d="M742 749Q771 691 785 627T800 503Q800 444 787 384T750 268T690 163T609 78T509 21T394 0Q306 0 244 38T141 139T83 279T64 437Q64 547 97 642T191 808T342 919T542 960Q637 960 720 931T875
852T1010 738T1127 606L1108 465Q1081 501 1035 543T938 625T836 700T750 760L742 749ZM433 192Q467 192 499 226T555 313T593 429T608 551Q608 597 601 636T580 705T544 751T491 768Q450 768 413 733T348 644T304 523T288 396Q288 354 296 317T321 253T366 209T433
192ZM475 1240Q481 1253 492 1279T517 1339T548 1412T582 1489Q621 1579 667 1683Q680 1717 706 1732T762 1747Q788 1747 814 1737T860 1709T894 1666T907 1611Q907 1564 870 1514Q851 1488 827 1457T776 1391T722 1322T669 1258T624 1202T591 1162Q574 1142 557
1134T523 1125Q499 1125 482 1143T465 1192Q465 1203 467 1215T475 1240Z" />
<glyph unicode="&#xf4;" glyph-name="ocircumflex" horiz-adv-x="873" d="M742 749Q771 691 785 627T800 503Q800 444 787 384T750 268T690 163T609 78T509 21T394 0Q306 0 244 38T141 139T83 279T64 437Q64 547 97 642T191 808T342 919T542 960Q637 960 720 931T875
852T1010 738T1127 606L1108 465Q1081 501 1035 543T938 625T836 700T750 760L742 749ZM433 192Q467 192 499 226T555 313T593 429T608 551Q608 597 601 636T580 705T544 751T491 768Q450 768 413 733T348 644T304 523T288 396Q288 354 296 317T321 253T366 209T433
192ZM602 1629Q571 1548 543 1475Q531 1444 519 1412T495 1349T473 1293T455 1249Q437 1202 418 1176T378 1138T336 1124T294 1121Q283 1121 271 1127T249 1146T232 1174T225 1212Q225 1231 233 1250L397 1579Q424 1631 445 1671T490 1738T543 1779T618 1793Q662
1793 692 1777T743 1728T779 1650T810 1543Q821 1509 828 1488T840 1451T849 1421T860 1387T875 1339T898 1265Q903 1247 903 1230Q903 1183 874 1150T788 1117Q769 1117 752 1123T719 1144T693 1184T675 1249Q658 1352 644 1424T621 1542Q610 1596 602 1629Z"
/>
<glyph unicode="&#xf5;" glyph-name="otilde" horiz-adv-x="873" d="M742 749Q771 691 785 627T800 503Q800 444 787 384T750 268T690 163T609 78T509 21T394 0Q306 0 244 38T141 139T83 279T64 437Q64 547 97 642T191 808T342 919T542 960Q637 960 720 931T875
852T1010 738T1127 606L1108 465Q1081 501 1035 543T938 625T836 700T750 760L742 749ZM433 192Q467 192 499 226T555 313T593 429T608 551Q608 597 601 636T580 705T544 751T491 768Q450 768 413 733T348 644T304 523T288 396Q288 354 296 317T321 253T366 209T433
192ZM690 1278Q702 1291 714 1308Q725 1322 737 1340T763 1378Q783 1410 812 1425T871 1441Q905 1441 929 1422T954 1368Q954 1343 940 1315Q928 1292 909 1257T862 1188T795 1130T708 1106Q677 1106 652 1114T593 1145T513 1205T390 1302Q378 1287 366 1271Q355
1257 342 1240T317 1202Q297 1170 268 1155T209 1139Q175 1139 151 1158T126 1212Q126 1237 140 1265Q152 1288 171 1323T218 1392T285 1450T372 1474Q403 1474 428 1466T487 1435T567 1375T690 1278Z" />
<glyph unicode="&#xf6;" glyph-name="odieresis" horiz-adv-x="873" d="M742 749Q771 691 785 627T800 503Q800 444 787 384T750 268T690 163T609 78T509 21T394 0Q306 0 244 38T141 139T83 279T64 437Q64 547 97 642T191 808T342 919T542 960Q637 960 720 931T875
852T1010 738T1127 606L1108 465Q1081 501 1035 543T938 625T836 700T750 760L742 749ZM433 192Q467 192 499 226T555 313T593 429T608 551Q608 597 601 636T580 705T544 751T491 768Q450 768 413 733T348 644T304 523T288 396Q288 354 296 317T321 253T366 209T433
192ZM948 1310Q948 1306 947 1292T942 1258T927 1217T899 1178T854 1148T786 1136Q724 1136 685 1170T645 1284Q645 1317 654 1348T682 1404T731 1443T803 1458Q874 1458 911 1420T948 1310ZM481 1310Q481 1306 480 1292T474 1258T459 1217T431 1178T386 1148T319
1136Q255 1136 217 1170T178 1284Q178 1317 187 1348T215 1404T264 1443T336 1458Q406 1458 443 1420T481 1310Z" />
<glyph unicode="&#xf7;" glyph-name="divide" horiz-adv-x="1025" d="M983 984Q983 980 982 964T976 927T959 883T926 839T873 806T795 793Q758 793 728 802T677 831T643 881T631 955Q631 991 641 1025T674 1087T731 1130T814 1146Q897 1146 940 1104T983 984ZM923
312Q923 308 922 292T916 255T899 211T866 167T813 134T735 121Q698 121 668 130T617 159T583 209T571 283Q571 319 581 353T614 415T671 458T754 474Q837 474 880 432T923 312ZM475 802Q444 802 421 809T383 829T360 858T352 892Q352 910 361 928T387 961T430
985T491 994H1089Q1139 994 1161 971T1184 917Q1184 882 1174 860T1148 824T1114 807T1077 802H475Z" />
<glyph unicode="&#xf8;" glyph-name="oslash" horiz-adv-x="873" d="M742 749Q771 691 785 627T800 503Q800 444 787 384T750 268T690 163T609 78T509 21T394 0L360 -108Q351 -132 341 -146T320 -168T299 -178T279 -180Q269 -180 259 -179T242 -170T229 -150T224
-114Q224 -89 230 -55T254 33Q204 59 168 102T109 200T75 314T64 437Q64 543 95 636T184 799T325 911T514 959Q525 1000 536 1045T565 1129T607 1191T674 1216Q685 1216 691 1209T700 1192T703 1169T704 1145Q704 1139 702 1127T695 1099T687 1069T680 1043L653
948Q727 933 793 899T918 820T1029 719T1127 606L1108 465Q1081 501 1035 543T938 625T836 700T750 760L742 749ZM459 763Q417 751 381 714T317 624T274 512T258 396Q258 348 270 307T311 237L459 763ZM593 719Q563 605 528 473T450 194Q487 201 521 237T581 325T622
436T638 551Q638 603 627 646T593 719Z" />
<glyph unicode="&#xf9;" glyph-name="ugrave" horiz-adv-x="962" d="M876 895Q876 868 870 822T855 720T834 605T814 495T798 406T792 352Q792 324 793 301T799 260T814 233T845 223Q867 223 898 234T965 263T1038 305T1108 355T1169 406T1214 454Q1214 421 1214
394T1215 343T1215 292T1216 234Q1194 212 1162 187T1090 137T1006 89T916 49T827 21T745 10Q707 10 680 25T634 67T601 131T577 215Q541 168 501 129T420 60T336 15T253 -2Q220 -2 191 9T140 46T104 114T91 220Q91 297 109 416T155 688Q157 703 162 728T177 784T201
845T234 901T278 942T336 959Q389 957 412 946T435 917Q426 864 416 799T394 668T373 540T355 428T343 349T338 318Q338 300 341 284T352 254T370 233T396 225Q418 225 441 236T484 269T521 322T545 394L644 902Q649 926 684 942T765 959Q816 959 846 941T876 895ZM655
1240Q660 1227 662 1215T665 1192Q665 1162 648 1144T607 1125Q590 1125 573 1133T539 1162Q526 1177 506 1202T461 1257T409 1322T355 1390T304 1456T260 1514Q223 1566 223 1611Q223 1641 236 1666T269 1709T316 1737T368 1747Q397 1747 423 1732T463 1683Q509
1579 548 1489Q564 1451 581 1412T612 1340T638 1280T655 1240Z" />
<glyph unicode="&#xfa;" glyph-name="uacute" horiz-adv-x="962" d="M876 895Q876 868 870 822T855 720T834 605T814 495T798 406T792 352Q792 324 793 301T799 260T814 233T845 223Q867 223 898 234T965 263T1038 305T1108 355T1169 406T1214 454Q1214 421 1214
394T1215 343T1215 292T1216 234Q1194 212 1162 187T1090 137T1006 89T916 49T827 21T745 10Q707 10 680 25T634 67T601 131T577 215Q541 168 501 129T420 60T336 15T253 -2Q220 -2 191 9T140 46T104 114T91 220Q91 297 109 416T155 688Q157 703 162 728T177 784T201
845T234 901T278 942T336 959Q389 957 412 946T435 917Q426 864 416 799T394 668T373 540T355 428T343 349T338 318Q338 300 341 284T352 254T370 233T396 225Q418 225 441 236T484 269T521 322T545 394L644 902Q649 926 684 942T765 959Q816 959 846 941T876 895ZM506
1240Q512 1253 523 1279T548 1339T579 1412T613 1489Q652 1579 698 1683Q711 1717 737 1732T793 1747Q819 1747 845 1737T891 1709T925 1666T938 1611Q938 1564 901 1514Q882 1488 858 1457T807 1391T753 1322T700 1258T655 1202T622 1162Q605 1142 588 1134T554
1125Q530 1125 513 1143T496 1192Q496 1203 498 1215T506 1240Z" />
<glyph unicode="&#xfb;" glyph-name="ucircumflex" horiz-adv-x="962" d="M876 895Q876 868 870 822T855 720T834 605T814 495T798 406T792 352Q792 324 793 301T799 260T814 233T845 223Q867 223 898 234T965 263T1038 305T1108 355T1169 406T1214 454Q1214 421
1214 394T1215 343T1215 292T1216 234Q1194 212 1162 187T1090 137T1006 89T916 49T827 21T745 10Q707 10 680 25T634 67T601 131T577 215Q541 168 501 129T420 60T336 15T253 -2Q220 -2 191 9T140 46T104 114T91 220Q91 297 109 416T155 688Q157 703 162 728T177
784T201 845T234 901T278 942T336 959Q389 957 412 946T435 917Q426 864 416 799T394 668T373 540T355 428T343 349T338 318Q338 300 341 284T352 254T370 233T396 225Q418 225 441 236T484 269T521 322T545 394L644 902Q649 926 684 942T765 959Q816 959 846 941T876
895ZM631 1630Q600 1549 572 1476Q560 1445 548 1413T524 1350T502 1294T484 1250Q466 1203 447 1177T407 1139T365 1125T323 1122Q312 1122 300 1128T278 1147T261 1175T254 1213Q254 1232 262 1251L426 1580Q453 1632 474 1672T519 1739T572 1780T647 1794Q691
1794 721 1778T772 1729T808 1651T839 1544Q850 1510 857 1489T869 1452T878 1422T889 1388T904 1340T927 1266Q932 1248 932 1231Q932 1184 903 1151T817 1118Q798 1118 781 1124T748 1145T722 1185T704 1250Q687 1353 673 1425T650 1543Q639 1597 631 1630Z"
/>
<glyph unicode="&#xfc;" glyph-name="udieresis" horiz-adv-x="962" d="M876 895Q876 868 870 822T855 720T834 605T814 495T798 406T792 352Q792 324 793 301T799 260T814 233T845 223Q867 223 898 234T965 263T1038 305T1108 355T1169 406T1214 454Q1214 421
1214 394T1215 343T1215 292T1216 234Q1194 212 1162 187T1090 137T1006 89T916 49T827 21T745 10Q707 10 680 25T634 67T601 131T577 215Q541 168 501 129T420 60T336 15T253 -2Q220 -2 191 9T140 46T104 114T91 220Q91 297 109 416T155 688Q157 703 162 728T177
784T201 845T234 901T278 942T336 959Q389 957 412 946T435 917Q426 864 416 799T394 668T373 540T355 428T343 349T338 318Q338 300 341 284T352 254T370 233T396 225Q418 225 441 236T484 269T521 322T545 394L644 902Q649 926 684 942T765 959Q816 959 846 941T876
895ZM992 1329Q992 1325 991 1311T986 1277T971 1236T943 1197T898 1167T830 1155Q768 1155 729 1189T689 1303Q689 1336 698 1367T726 1423T775 1462T847 1477Q918 1477 955 1439T992 1329ZM525 1329Q525 1325 524 1311T518 1277T503 1236T475 1197T430 1167T363
1155Q299 1155 261 1189T222 1303Q222 1336 231 1367T259 1423T308 1462T380 1477Q450 1477 487 1439T525 1329Z" />
<glyph unicode="&#xfd;" glyph-name="yacute" horiz-adv-x="928" d="M640 768Q648 802 668 828T715 873T771 900T826 909Q857 909 878 896T899 853Q899 844 896 832Q890 806 881 761T862 659T840 539T819 412Q794 264 768 94Q798 111 833 136T911 203T1007 308T1126
467L1174 245Q1156 214 1128 182T1065 117T993 54T919 -4Q834 -68 736 -128Q717 -235 691 -336T630 -526T549 -689T446 -816T317 -898T160 -928Q126 -928 87 -921T14 -893T-42 -833T-64 -729Q-64 -684 -41 -628T22 -509T117 -379T236 -244T371 -112T514 12L541
105Q487 57 429 28T315 -2Q267 -2 222 17T141 73T85 162T64 281Q64 368 72 441T97 580T137 707T192 832Q215 877 258 900T342 924Q377 924 402 907T427 852Q427 841 425 828T416 800Q398 754 381 692T350 564T328 435T320 324Q320 299 323 276T336 234T360 204T398
192Q435 192 465 224T517 301T552 394T570 474L640 768ZM172 -736Q214 -736 251 -712T320 -647T378 -556T424 -452T458 -347T480 -256Q441 -282 401 -318T322 -395T249 -481T188 -565T147 -641T132 -699Q132 -736 172 -736ZM549 1231Q555 1244 566 1270T591 1330T622
1403T656 1480Q695 1570 741 1674Q754 1708 780 1723T836 1738Q862 1738 888 1728T934 1700T968 1657T981 1602Q981 1555 944 1505Q925 1479 901 1448T850 1382T796 1313T743 1249T698 1193T665 1153Q648 1133 631 1125T597 1116Q573 1116 556 1134T539 1183Q539
1194 541 1206T549 1231Z" />
<glyph unicode="&#xfe;" glyph-name="thorn" horiz-adv-x="1023" d="M391 805Q471 875 536 917T666 960Q725 960 771 934T849 865T898 766T915 649Q915 598 911 553T897 464T868 377T819 288Q855 309 892 329T966 373T1042 426T1120 496L1197 331Q1142 281 1088
244T976 180T856 132T723 96Q706 79 677 62T618 31Q585 15 547 0H522Q457 0 392 14T268 50L144 -615Q138 -641 128 -656T106 -680T80 -690T53 -693Q44 -693 36 -693T20 -692Q1 -692 -15 -682T-42 -654T-59 -613T-66 -563Q-66 -551 -65 -537T-62 -508Q-46 -391 -33
-304T-10 -146T10 -18T29 99T50 222T76 370T109 559T153 809Q153 809 158 836T173 911T196 1021T225 1158T256 1312T288 1472Q298 1522 320 1541T367 1561Q382 1561 403 1554T448 1536T494 1509T535 1477T564 1442T576 1408Q576 1404 563 1400T533 1391T502 1383T486
1376L391 805ZM561 732Q526 732 491 718T426 673T373 595T339 480Q330 426 324 381T314 300Q310 260 307 225Q340 215 373 208Q402 202 434 197T495 192Q529 192 557 212T607 265T645 342T671 431T686 523T691 607Q691 632 686 654T666 694T626 721T561 732Z" />
<glyph unicode="&#xff;" glyph-name="ydieresis" horiz-adv-x="928" d="M640 768Q648 802 668 828T715 873T771 900T826 909Q857 909 878 896T899 853Q899 844 896 832Q890 806 881 761T862 659T840 539T819 412Q794 264 768 94Q798 111 833 136T911 203T1007
308T1126 467L1174 245Q1156 214 1128 182T1065 117T993 54T919 -4Q834 -68 736 -128Q717 -235 691 -336T630 -526T549 -689T446 -816T317 -898T160 -928Q126 -928 87 -921T14 -893T-42 -833T-64 -729Q-64 -684 -41 -628T22 -509T117 -379T236 -244T371 -112T514
12L541 105Q487 57 429 28T315 -2Q267 -2 222 17T141 73T85 162T64 281Q64 368 72 441T97 580T137 707T192 832Q215 877 258 900T342 924Q377 924 402 907T427 852Q427 841 425 828T416 800Q398 754 381 692T350 564T328 435T320 324Q320 299 323 276T336 234T360
204T398 192Q435 192 465 224T517 301T552 394T570 474L640 768ZM172 -736Q214 -736 251 -712T320 -647T378 -556T424 -452T458 -347T480 -256Q441 -282 401 -318T322 -395T249 -481T188 -565T147 -641T132 -699Q132 -736 172 -736ZM975 1306Q975 1302 974 1288T969
1254T954 1213T926 1174T881 1144T813 1132Q751 1132 712 1166T672 1280Q672 1313 681 1344T709 1400T758 1439T830 1454Q901 1454 938 1416T975 1306ZM508 1306Q508 1302 507 1288T501 1254T486 1213T458 1174T413 1144T346 1132Q282 1132 244 1166T205 1280Q205
1313 214 1344T242 1400T291 1439T363 1454Q433 1454 470 1416T508 1306Z" />
<glyph unicode="&#x2013;" glyph-name="endash" horiz-adv-x="991" d="M159 384Q142 384 126 390T96 409T74 442T65 492Q65 530 74 553T100 588T139 604T187 608H807Q844 608 867 601T904 581T923 552T928 518Q928 490 922 466T901 423T862 395T803 384H159Z" />
<glyph unicode="&#x2014;" glyph-name="emdash" horiz-adv-x="1120" d="M157 384Q140 384 124 390T94 409T72 442T63 492Q63 530 72 553T98 588T137 604T185 608H935Q972 608 995 601T1032 581T1051 552T1056 518Q1056 490 1050 466T1029 423T990 395T931 384H157Z" />
<glyph unicode="&#x2018;" glyph-name="quoteleft" horiz-adv-x="704" d="M488 1757Q488 1739 487 1710T483 1647T478 1574T472 1498Q465 1411 456 1312Q456 1282 441 1258T402 1218T348 1193T288 1184Q263 1184 240 1190T199 1210T171 1243T160 1293Q160 1305
162 1317T168 1344Q181 1392 198 1449T232 1564T266 1672T296 1760Q313 1808 344 1831T408 1855Q440 1855 464 1831T488 1757Z" />
<glyph unicode="&#x2019;" glyph-name="quoteright" horiz-adv-x="640" d="M160 1283Q160 1301 161 1329T165 1392T170 1465T176 1541Q183 1628 192 1728Q192 1758 207 1781T246 1821T300 1847T360 1856Q385 1856 408 1850T449 1830T477 1796T488 1747Q488 1735
486 1723T480 1696Q466 1648 450 1591T416 1476T382 1368T352 1280Q335 1232 304 1209T240 1185Q208 1185 184 1209T160 1283Z" />
<glyph unicode="&#x201a;" glyph-name="quotesinglbase" horiz-adv-x="609" d="M293 -72Q296 -59 301 -39T312 6T326 56T341 109Q358 169 377 237Q383 258 396 274T428 300T469 316T514 321Q542 321 570 314T620 291T657 255T671 205Q671 185 664 166T645 125Q626
95 604 61T559 -8T515 -74T477 -129Q453 -162 424 -176T368 -191Q335 -191 311 -170T287 -109Q287 -93 293 -72Z" />
<glyph unicode="&#x201c;" glyph-name="quotedblleft" horiz-adv-x="1184" d="M872 1757Q872 1739 871 1710T867 1647T862 1574T856 1498Q849 1411 840 1312Q840 1282 825 1258T786 1218T732 1193T672 1184Q647 1184 624 1190T583 1210T555 1243T544 1293Q544
1305 546 1317T552 1344Q565 1392 582 1449T616 1564T650 1672T680 1760Q697 1808 728 1831T792 1855Q824 1855 848 1831T872 1757ZM488 1757Q488 1739 487 1710T483 1647T478 1574T472 1498Q465 1411 456 1312Q456 1282 441 1258T402 1218T348 1193T288 1184Q263
1184 240 1190T199 1210T171 1243T160 1293Q160 1305 162 1317T168 1344Q181 1392 198 1449T232 1564T266 1672T296 1760Q313 1808 344 1831T408 1855Q440 1855 464 1831T488 1757Z" />
<glyph unicode="&#x201d;" glyph-name="quotedblright" horiz-adv-x="1184" d="M160 1283Q160 1301 161 1329T165 1392T170 1465T176 1541Q183 1628 192 1728Q192 1758 207 1781T246 1821T300 1847T360 1856Q385 1856 408 1850T449 1830T477 1796T488 1747Q488
1735 486 1723T480 1696Q466 1648 450 1591T416 1476T382 1368T352 1280Q335 1232 304 1209T240 1185Q208 1185 184 1209T160 1283ZM544 1283Q544 1301 545 1329T549 1392T554 1465T560 1541Q567 1628 576 1728Q576 1758 591 1781T630 1821T684 1847T744 1856Q769
1856 792 1850T833 1830T861 1796T872 1747Q872 1735 870 1723T864 1696Q850 1648 834 1591T800 1476T766 1368T736 1280Q719 1232 688 1209T624 1185Q592 1185 568 1209T544 1283Z" />
<glyph unicode="&#x201e;" glyph-name="quotedblbase" horiz-adv-x="1025" d="M684 -72Q687 -59 692 -39T703 6T717 56T732 109Q749 169 768 237Q774 258 787 274T819 300T860 316T905 321Q933 321 961 314T1011 291T1048 255T1062 205Q1062 185 1055 166T1036
125Q1017 95 995 61T950 -8T906 -74T868 -129Q844 -162 815 -176T759 -191Q726 -191 702 -170T678 -109Q678 -93 684 -72ZM293 -72Q296 -59 301 -39T312 6T326 56T341 109Q358 169 377 237Q383 258 396 274T428 300T469 316T514 321Q542 321 570 314T620 291T657
255T671 205Q671 185 664 166T645 125Q626 95 604 61T559 -8T515 -74T477 -129Q453 -162 424 -176T368 -191Q335 -191 311 -170T287 -109Q287 -93 293 -72Z" />
<glyph unicode="&#x2022;" glyph-name="bullet" horiz-adv-x="1120" d="M256 544Q256 629 291 695T383 805T507 873T640 896Q686 896 727 885T798 849T846 780T864 672Q864 573 833 495T753 363T640 280T512 251Q465 251 420 266T338 315T279 405T256 544Z" />
<glyph unicode="&#x2039;" glyph-name="guilsinglleft" horiz-adv-x="1089" d="M738 87Q658 117 595 144T480 197T387 247T308 294T238 339T168 385Q127 414 104 454T81 540Q81 570 92 602T128 666T191 725T282 778L780 988Q794 994 807 996T833 999Q857 999 877
991T913 969T936 936T945 896Q945 865 923 832T846 773L320 544L789 313Q804 307 825 294T866 260T900 214T914 158Q914 145 906 130T884 103T849 82T802 73Q772 73 738 87Z" />
<glyph unicode="&#x203a;" glyph-name="guilsinglright" horiz-adv-x="1089" d="M382 87Q348 73 318 73Q292 73 272 81T237 102T214 130T206 158Q206 188 220 214T253 260T294 293T331 313L800 544L274 773Q220 798 198 831T175 896Q175 917 183 935T207 968T242
991T287 999Q299 999 312 997T340 988L838 778Q944 737 991 681T1039 570Q1039 543 1034 516T1014 461T971 406T896 352Q785 289 657 220T382 87Z" />
</font>
</defs>
</svg>
